{
.formatVersion = 3;
axes = (
{
name = Weight;
tag = wght;
}
);
classes = (
{
code = "Decyr Elcyr vecyr zhecyr zecyr kacyr elcyr yucyr";
name = locl_ss02;
},
{
code = "Decyr.loclBGR Elcyr.loclBGR vecyr.loclBGR zhecyr.loclBGR zecyr.loclBGR kacyr.loclBGR elcyr.loclBGR yucyr.loclBGR";
name = locl_ss022;
},
{
code = "Acyr Iecyr Icyr Ocyr Ucyr Ylongcyr Yucyr Yacyr Iocyr Iukrcyr Yukrcyr Eukrcyr acyr iecyr icyr ocyr ucyr ylongcyr yucyr yacyr iocyr iukrcyr yukrcyr eukrcyr";
name = liga3;
}
);
familyName = "Acari Sans";
customParameters = (
{
name = glyphOrder;
value = (
.notdef,
NULL,
CR,
space,
exclam,
quotedbl,
numbersign,
dollar,
percent,
ampersand,
quotesingle,
parenleft,
parenright,
asterisk,
plus,
comma,
hyphen,
period,
slash,
zero,
one,
two,
three,
four,
five,
six,
seven,
eight,
nine,
colon,
semicolon,
less,
equal,
greater,
question,
at,
A,
B,
C,
D,
E,
F,
G,
H,
I,
J,
K,
L,
M,
N,
O,
P,
Q,
R,
S,
T,
U,
V,
W,
X,
Y,
Z,
bracketleft,
backslash,
bracketright,
asciicircum,
underscore,
grave,
a,
b,
c,
d,
e,
f,
g,
h,
i,
j,
k,
l,
m,
n,
o,
p,
q,
r,
s,
t,
u,
v,
w,
x,
y,
z,
braceleft,
bar,
braceright,
asciitilde,
nbspace,
exclamdown,
cent,
sterling,
currency,
yen,
brokenbar,
section,
dieresis,
copyright,
ordfeminine,
guillemotleft,
logicalnot,
softhyphen,
registered,
macron,
degree,
plusminus,
two.superior,
three.superior,
acute,
micro,
paragraph,
periodcentered,
cedilla,
one.superior,
ordmasculine,
guillemotright,
questiondown,
Agrave,
Aacute,
Acircumflex,
Atilde,
Adieresis,
Aring,
AE,
Ccedilla,
Egrave,
Eacute,
Ecircumflex,
Edieresis,
Igrave,
Iacute,
Icircumflex,
Idieresis,
Eth,
Ntilde,
Ograve,
Oacute,
Ocircumflex,
Otilde,
Odieresis,
multiply,
Oslash,
Ugrave,
Uacute,
Ucircumflex,
Udieresis,
Yacute,
Thorn,
germandbls,
agrave,
aacute,
acircumflex,
atilde,
adieresis,
aring,
ae,
ccedilla,
egrave,
eacute,
ecircumflex,
edieresis,
igrave,
iacute,
icircumflex,
idieresis,
eth,
ntilde,
ograve,
oacute,
ocircumflex,
otilde,
odieresis,
divide,
oslash,
ugrave,
uacute,
ucircumflex,
udieresis,

glyphs = (
{
glyphname = .notdef;
layers = (
{
layerId = "70095191-B7C5-4384-884C-B6DE2D335D53";
shapes = (
{
closed = 1;
nodes = (
(224,0,l),
(1711,0,l),
(1711,1483,l),
(224,1483,l)
);
},
{
closed = 1;
nodes = (
(1019,1366,l),
(1536,1366,l),
(1536,604,l),
(1019,604,l)
);
},
{
closed = 1;
nodes = (
(916,1366,l),
(916,604,l),
(764,604,l),
(764,749,l),
(549,1069,l),
(549,604,l),
(398,604,l),
(398,1366,l),
(549,1366,l),
(764,1041,l),
(764,1366,l)
);
},
{
closed = 1;
nodes = (
(398,456,l),
(629,456,l),
(629,389,l),
(465,389,l),
(465,183,l),
(561,183,l),
(561,252,l),
(515,252,l),
(515,321,l),
(629,321,l),
(629,117,l),
(398,117,l)
);
},
{
closed = 1;
nodes = (
(678,456,l),
(746,456,l),
(746,183,l),
(883,183,l),
(883,117,l),
(678,117,l)
);
},
{
closed = 1;
nodes = (
(795,456,l),
(862,456,l),
(862,321,l),
(938,321,l),
(938,456,l),
(1005,456,l),
(1005,117,l),
(938,117,l),
(938,252,l),
(795,252,l)
);
},
{
closed = 1;
nodes = (
(1060,456,l),
(1272,456,l),
(1272,252,l),
(1127,252,l),
(1127,117,l),
(1060,117,l)
);
},
{
closed = 1;
nodes = (
(1327,456,l),
(1394,456,l),
(1394,321,l),
(1470,321,l),
(1470,456,l),
(1536,456,l),
(1536,117,l),
(1470,117,l),
(1470,252,l),
(1394,252,l),
(1394,117,l),
(1327,117,l)
);
},
{
closed = 1;
nodes = (
(1172,1214,l),
(1172,755,l),
(1387,755,l),
(1387,1214,l)
);
},
{
closed = 1;
nodes = (
(1127,389,l),
(1127,321,l),
(1203,321,l),
(1203,389,l)
);
}
);
width = 1830;
},
{
layerId = "22EA05E5-9529-48D9-B1F8-A3D05D6A9FB7";
shapes = (
{
closed = 1;
nodes = (
(224,0,l),
(1711,0,l),
(1711,1483,l),
(224,1483,l)
);
},
{
closed = 1;
nodes = (
(1019,1366,l),
(1536,1366,l),
(1536,604,l),
(1019,604,l)
);
},
{
closed = 1;
nodes = (
(916,1366,l),
(916,604,l),
(764,604,l),
(764,749,l),
(549,1069,l),
(549,604,l),
(398,604,l),
(398,1366,l),
(549,1366,l),
(764,1041,l),
(764,1366,l)
);
},
{
closed = 1;
nodes = (
(398,456,l),
(629,456,l),
(629,389,l),
(465,389,l),
(465,183,l),
(561,183,l),
(561,252,l),
(515,252,l),
(515,321,l),
(629,321,l),
(629,117,l),
(398,117,l)
);
},
{
closed = 1;
nodes = (
(678,456,l),
(746,456,l),
(746,183,l),
(883,183,l),
(883,117,l),
(678,117,l)
);
},
{
closed = 1;
nodes = (
(795,456,l),
(862,456,l),
(862,321,l),
(938,321,l),
(938,456,l),
(1005,456,l),
(1005,117,l),
(938,117,l),
(938,252,l),
(795,252,l)
);
},
{
closed = 1;
nodes = (
(1060,456,l),
(1272,456,l),
(1272,252,l),
(1127,252,l),
(1127,117,l),
(1060,117,l)
);
},
{
closed = 1;
nodes = (
(1327,456,l),
(1394,456,l),
(1394,321,l),
(1470,321,l),
(1470,456,l),
(1536,456,l),
(1536,117,l),
(1470,117,l),
(1470,252,l),
(1394,252,l),
(1394,117,l),
(1327,117,l)
);
},
{
closed = 1;
nodes = (
(1172,1214,l),
(1172,755,l),
(1387,755,l),
(1387,1214,l)
);
},
{
closed = 1;
nodes = (
(1127,389,l),
(1127,321,l),
(1203,321,l),
(1203,389,l)
);
}
);
width = 1830;
},
{
layerId = "03B966DD-30AE-4CDF-A24A-6C10C63FDFF4";
shapes = (
{
closed = 1;
nodes = (
(224,0,l),
(1711,0,l),
(1711,1483,l),
(224,1483,l)
);
},
{
closed = 1;
nodes = (
(1019,1366,l),
(1536,1366,l),
(1536,604,l),
(1019,604,l)
);
},
{
closed = 1;
nodes = (
(916,1366,l),
(916,604,l),
(764,604,l),
(764,749,l),
(549,1069,l),
(549,604,l),
(398,604,l),
(398,1366,l),
(549,1366,l),
(764,1041,l),
(764,1366,l)
);
},
{
closed = 1;
nodes = (
(398,456,l),
(629,456,l),
(629,389,l),
(465,389,l),
(465,183,l),
(561,183,l),
(561,252,l),
(515,252,l),
(515,321,l),
(629,321,l),
(629,117,l),
(398,117,l)
);
},
{
closed = 1;
nodes = (
(678,456,l),
(746,456,l),
(746,183,l),
(883,183,l),
(883,117,l),
(678,117,l)
);
},
{
closed = 1;
nodes = (
(795,456,l),
(862,456,l),
(862,321,l),
(938,321,l),
(938,456,l),
(1005,456,l),
(1005,117,l),
(938,117,l),
(938,252,l),
(795,252,l)
);
},
{
closed = 1;
nodes = (
(1060,456,l),
(1272,456,l),
(1272,252,l),
(1127,252,l),
(1127,117,l),
(1060,117,l)
);
},
{
closed = 1;
nodes = (
(1327,456,l),
(1394,456,l),
(1394,321,l),
(1470,321,l),
(1470,456,l),
(1536,456,l),
(1536,117,l),
(1470,117,l),
(1470,252,l),
(1394,252,l),
(1394,117,l),
(1327,117,l)
);
},
{
closed = 1;
nodes = (
(1172,1214,l),
(1172,755,l),
(1387,755,l),
(1387,1214,l)
);
},
{
closed = 1;
nodes = (
(1127,389,l),
(1127,321,l),
(1203,321,l),
(1203,389,l)
);
}
);
width = 1830;
}
);
},
{
glyphname = exclam;
layers = (
{
layerId = "70095191-B7C5-4384-884C-B6DE2D335D53";
shapes = (
{
closed = 1;
nodes = (
(417,454,l),
(679,1467,l),
(410,1467,l),
(206,454,l)
);
},
{
closed = 1;
nodes = (
(355,0,l),
(420,293,l),
(125,293,l),
(60,0,l)
);
}
);
width = 649;
},
{
layerId = "22EA05E5-9529-48D9-B1F8-A3D05D6A9FB7";
shapes = (
{
closed = 1;
nodes = (
(362,397,l),
(639,1469,l),
(457,1469,l),
(238,397,l)
);
},
{
closed = 1;
nodes = (
(313,0,l),
(361,207,l),
(152,207,l),
(106,0,l)
);
}
);
width = 652;
},
{
layerId = "03B966DD-30AE-4CDF-A24A-6C10C63FDFF4";
shapes = (
{
closed = 1;
nodes = (
(328,363,l),
(616,1469,l),
(484,1469,l),
(257,363,l)
);
},
{
closed = 1;
nodes = (
(288,0,l),
(323,152,l),
(169,152,l),
(133,0,l)
);
}
);
width = 654;
}
);
unicode = 33;
},
{
glyphname = quotedbl;
layers = (
{
layerId = "70095191-B7C5-4384-884C-B6DE2D335D53";
shapes = (
{
closed = 1;
nodes = (
(199,850,l),
(430,850,l),
(568,1448,l),
(337,1448,l)
);
},
{
closed = 1;
nodes = (
(619,850,l),
(850,850,l),
(988,1448,l),
(757,1448,l)
);
}
);
width = 892;
},
{
layerId = "22EA05E5-9529-48D9-B1F8-A3D05D6A9FB7";
shapes = (
{
closed = 1;
nodes = (
(261,993,l),
(406,993,l),
(512,1448,l),
(366,1448,l)
);
},
{
closed = 1;
nodes = (
(580,993,l),
(726,993,l),
(830,1448,l),
(684,1448,l)
);
}
);
width = 763;
},
{
layerId = "03B966DD-30AE-4CDF-A24A-6C10C63FDFF4";
shapes = (
{
closed = 1;
nodes = (
(306,1082,l),
(398,1082,l),
(481,1448,l),
(389,1448,l)
);
},
{
closed = 1;
nodes = (
(590,1082,l),
(681,1082,l),
(766,1448,l),
(675,1448,l)
);
}
);
width = 725;
}
);
unicode = 34;
},
{
glyphname = numbersign;
layers = (
{
layerId = "70095191-B7C5-4384-884C-B6DE2D335D53";
shapes = (
{
closed = 1;
nodes = (
(763,0,l),
(951,404,l),
(1236,404,l),
(1285,611,l),
(1039,611,l),
(1148,857,l),
(1424,857,l),
(1471,1053,l),
(1234,1053,l),
(1427,1468,l),
(1206,1468,l),
(1026,1064,l),
(797,1064,l),
(979,1468,l),
(758,1468,l),
(566,1064,l),
(282,1064,l),
(232,857,l),
(477,857,l),
(370,611,l),
(92,611,l),
(46,416,l),
(284,416,l),
(93,0,l),
(314,0,l),
(500,416,l),
(732,416,l),
(544,0,l)
);
},
{
closed = 1;
nodes = (
(820,611,l),
(589,611,l),
(697,857,l),
(929,857,l)
);
}
);
width = 1417;
},
{
layerId = "22EA05E5-9529-48D9-B1F8-A3D05D6A9FB7";
shapes = (
{
closed = 1;
nodes = (
(725,0,l),
(923,448,l),
(1200,448,l),
(1230,568,l),
(976,568,l),
(1122,901,l),
(1389,901,l),
(1419,1022,l),
(1174,1022,l),
(1373,1468,l),
(1239,1468,l),
(1041,1020,l),
(723,1020,l),
(923,1468,l),
(789,1468,l),
(590,1022,l),
(311,1022,l),
(282,901,l),
(536,901,l),
(392,568,l),
(123,568,l),
(93,446,l),
(338,446,l),
(142,0,l),
(276,0,l),
(471,447,l),
(789,447,l),
(591,0,l)
);
},
{
closed = 1;
nodes = (
(843,568,l),
(525,568,l),
(671,901,l),
(988,901,l)
);
}
);
width = 1411;
},
{
layerId = "03B966DD-30AE-4CDF-A24A-6C10C63FDFF4";
shapes = (
{
closed = 1;
nodes = (
(704,0,l),
(908,475,l),
(1181,475,l),
(1196,541,l),
(938,541,l),
(1107,928,l),
(1370,928,l),
(1387,1003,l),
(1138,1003,l),
(1339,1468,l),
(1262,1468,l),
(1055,997,l),
(682,997,l),
(889,1468,l),
(812,1468,l),
(605,997,l),
(332,997,l),
(316,928,l),
(576,928,l),
(407,541,l),
(142,541,l),
(127,465,l),
(374,465,l),
(176,0,l),
(253,0,l),
(458,465,l),
(831,465,l),
(625,0,l)
);
},
{
closed = 1;
nodes = (
(860,541,l),
(487,541,l),
(656,928,l),
(1028,928,l)
);
}
);
width = 1409;
}
);
unicode = 35;
},
{
glyphname = dollar;
layers = (
{
layerId = "70095191-B7C5-4384-884C-B6DE2D335D53";
shapes = (
{
closed = 1;
nodes = (
(541,-252,l),
(602,-19,l),
(895,17,o),
(1118,244,o),
(1118,506,cs),
(1118,705,o),
(946,791,o),
(793,859,cs),
(670,914,o),
(559,956,o),
(559,1037,cs),
(559,1129,o),
(668,1218,o),
(783,1218,cs),
(880,1218,o),
(942,1178,o),
(964,1102,c),
(1221,1214,l),
(1176,1351,o),
(1078,1434,o),
(930,1463,c),
(992,1699,l),
(756,1699,l),
(696,1464,l),
(441,1405,o),
(271,1219,o),
(271,1002,cs),
(271,776,o),
(473,701,o),
(635,635,cs),
(743,591,o),
(833,550,o),
(833,469,cs),
(833,343,o),
(703,241,o),
(542,241,cs),
(392,241,o),
(313,303,o),
(313,419,cs),
(313,426,o),
(314,433,o),
(315,446,c),
(29,411,l),
(29,379,ls),
(29,182,o),
(159,34,o),
(368,-10,c),
(306,-252,l)
);
}
);
width = 1229;
},
{
layerId = "22EA05E5-9529-48D9-B1F8-A3D05D6A9FB7";
shapes = (
{
closed = 1;
nodes = (
(472,-252,l),
(533,-16,l),
(840,-7,o),
(1047,160,o),
(1047,447,cs),
(1047,669,o),
(877,741,o),
(726,814,cs),
(605,872,o),
(496,931,o),
(496,1067,cs),
(496,1215,o),
(628,1315,o),
(791,1315,cs),
(898,1315,o),
(987,1252,o),
(1015,1158,c),
(1165,1231,l),
(1122,1360,o),
(1006,1450,o),
(862,1465,c),
(923,1699,l),
(802,1699,l),
(741,1464,l),
(492,1442,o),
(321,1274,o),
(321,1047,cs),
(321,808,o),
(520,744,o),
(679,665,cs),
(785,612,o),
(874,552,o),
(874,428,cs),
(874,235,o),
(731,145,o),
(509,145,cs),
(338,145,o),
(238,228,o),
(238,372,cs),
(238,385,o),
(239,399,o),
(241,413,c),
(68,385,l),
(68,367,ls),
(68,154,o),
(211,20,o),
(412,-11,c),
(351,-252,l)
);
}
);
width = 1229;
},
{
layerId = "03B966DD-30AE-4CDF-A24A-6C10C63FDFF4";
shapes = (
{
closed = 1;
nodes = (
(440,-254,l),
(501,-14,l),
(816,-24,o),
(1003,95,o),
(1003,403,cs),
(1003,639,o),
(835,712,o),
(686,790,cs),
(566,852,o),
(458,914,o),
(458,1090,cs),
(458,1276,o),
(598,1374,o),
(795,1374,cs),
(909,1374,o),
(1019,1294,o),
(1049,1194,c),
(1131,1242,l),
(1092,1362,o),
(970,1458,o),
(830,1465,c),
(891,1699,l),
(822,1699,l),
(758,1464,l),
(514,1467,o),
(353,1314,o),
(353,1081,cs),
(353,821,o),
(539,759,o),
(696,672,cs),
(801,614,o),
(899,551,o),
(899,390,cs),
(899,157,o),
(750,86,o),
(490,86,cs),
(304,86,o),
(192,182,o),
(192,342,cs),
(192,360,o),
(193,376,o),
(195,392,c),
(91,368,l),
(91,365,ls),
(91,139,o),
(239,14,o),
(429,-13,c),
(368,-254,l)
);
}
);
width = 1229;
}
);
unicode = 36;
},
{
glyphname = percent;
layers = (
{
layerId = "70095191-B7C5-4384-884C-B6DE2D335D53";
shapes = (
{
closed = 1;
nodes = (
(1007,-14,o),
(1173,180,o),
(1173,412,cs),
(1173,578,o),
(1081,681,o),
(933,681,cs),
(730,681,o),
(564,488,o),
(564,252,cs),
(564,82,o),
(652,-14,o),
(808,-14,cs)
);
},
{
closed = 1;
nodes = (
(781,185,o),
(762,216,o),
(762,279,cs),
(762,377,o),
(840,480,o),
(915,480,cs),
(955,480,o),
(972,453,o),
(972,391,cs),
(972,284,o),
(899,185,o),
(820,185,cs)
);
},
{
closed = 1;
nodes = (
(156,361,l),
(1274,925,l),
(1173,1095,l),
(62,534,l)
);
},
{
closed = 1;
nodes = (
(599,775,o),
(765,969,o),
(765,1201,cs),
(765,1367,o),
(673,1470,o),
(525,1470,cs),
(322,1470,o),
(156,1277,o),
(156,1041,cs),
(156,871,o),
(244,775,o),
(400,775,cs)
);
},
{
closed = 1;
nodes = (
(373,974,o),
(354,1005,o),
(354,1068,cs),
(354,1166,o),
(432,1269,o),
(507,1269,cs),
(547,1269,o),
(564,1242,o),
(564,1180,cs),
(564,1073,o),
(491,974,o),
(412,974,cs)
);
}
);
width = 1229;
},
{
layerId = "22EA05E5-9529-48D9-B1F8-A3D05D6A9FB7";
shapes = (
{
closed = 1;
nodes = (
(1002,0,o),
(1153,190,o),
(1153,413,cs),
(1153,560,o),
(1081,652,o),
(955,652,cs),
(760,652,o),
(619,476,o),
(619,233,cs),
(619,83,o),
(690,0,o),
(824,0,cs)
);
},
{
closed = 1;
nodes = (
(776,111,o),
(737,157,o),
(737,239,cs),
(737,409,o),
(825,541,o),
(937,541,cs),
(995,541,o),
(1033,493,o),
(1034,413,c),
(1034,250,o),
(944,111,o),
(836,111,cs)
);
},
{
closed = 1;
nodes = (
(163,415,l),
(1230,951,l),
(1170,1050,l),
(110,516,l)
);
},
{
closed = 1;
nodes = (
(564,818,o),
(715,1008,o),
(715,1231,cs),
(715,1378,o),
(643,1470,o),
(517,1470,cs),
(322,1470,o),
(181,1294,o),
(181,1052,cs),
(181,902,o),
(252,818,o),
(386,818,cs)
);
},
{
closed = 1;
nodes = (
(338,930,o),
(299,975,o),
(299,1058,cs),
(299,1228,o),
(387,1359,o),
(499,1359,cs),
(557,1359,o),
(595,1312,o),
(596,1231,c),
(596,1068,o),
(506,930,o),
(398,930,cs)
);
}
);
width = 1229;
},
{
layerId = "03B966DD-30AE-4CDF-A24A-6C10C63FDFF4";
shapes = (
{
closed = 1;
nodes = (
(998,9,o),
(1140,196,o),
(1140,413,cs),
(1140,548,o),
(1081,632,o),
(970,632,cs),
(780,632,o),
(655,468,o),
(655,221,cs),
(655,84,o),
(716,9,o),
(834,9,cs)
);
},
{
closed = 1;
nodes = (
(773,62,o),
(720,117,o),
(720,213,cs),
(720,431,o),
(815,581,o),
(952,581,cs),
(1021,581,o),
(1074,520,o),
(1075,427,c),
(1075,227,o),
(974,62,o),
(846,62,cs)
);
},
{
closed = 1;
nodes = (
(167,451,l),
(1201,969,l),
(1168,1020,l),
(142,504,l)
);
},
{
closed = 1;
nodes = (
(540,847,o),
(682,1034,o),
(682,1251,cs),
(682,1386,o),
(623,1470,o),
(512,1470,cs),
(322,1470,o),
(197,1306,o),
(197,1059,cs),
(197,922,o),
(258,847,o),
(376,847,cs)
);
},
{
closed = 1;
nodes = (
(315,900,o),
(262,955,o),
(262,1051,cs),
(262,1269,o),
(357,1419,o),
(494,1419,cs),
(563,1419,o),
(616,1358,o),
(617,1265,c),
(617,1065,o),
(516,900,o),
(388,900,cs)
);
}
);
width = 1229;
}
);
unicode = 37;
},
{
glyphname = ampersand;
layers = (
{
layerId = "70095191-B7C5-4384-884C-B6DE2D335D53";
shapes = (
{
closed = 1;
nodes = (
(1040,-85,l),
(1276,94,l),
(1121,325,l),
(1211,438,o),
(1272,554,o),
(1303,675,c),
(1038,727,l),
(1028,669,o),
(1007,611,o),
(971,548,c),
(849,725,l),
(1067,848,o),
(1188,1002,o),
(1188,1160,cs),
(1188,1340,o),
(1049,1464,o),
(847,1464,cs),
(573,1464,o),
(360,1286,o),
(360,1050,cs),
(360,959,o),
(390,881,o),
(457,798,c),
(161,646,o),
(16,479,o),
(16,288,cs),
(16,91,o),
(175,-25,o),
(444,-25,cs),
(599,-25,o),
(759,27,o),
(904,124,c)
);
},
{
closed = 1;
nodes = (
(647,979,o),
(631,1025,o),
(631,1064,cs),
(631,1161,o),
(724,1247,o),
(829,1247,cs),
(894,1247,o),
(930,1218,o),
(930,1165,cs),
(930,1080,o),
(844,992,o),
(684,912,c)
);
},
{
closed = 1;
nodes = (
(355,211,o),
(309,270,o),
(309,323,cs),
(309,410,o),
(402,491,o),
(599,590,c),
(774,323,l),
(675,250,o),
(567,211,o),
(464,211,cs)
);
}
);
width = 1414;
},
{
layerId = "22EA05E5-9529-48D9-B1F8-A3D05D6A9FB7";
shapes = (
{
closed = 1;
nodes = (
(1073,-59,l),
(1201,38,l),
(1040,291,l),
(1127,402,o),
(1196,534,o),
(1243,684,c),
(1100,714,l),
(1064,599,o),
(1018,503,o),
(959,417,c),
(751,747,l),
(1000,889,o),
(1130,1043,o),
(1130,1199,cs),
(1130,1361,o),
(1022,1464,o),
(854,1464,cs),
(627,1464,o),
(433,1295,o),
(433,1097,cs),
(433,1007,o),
(467,918,o),
(546,792,c),
(228,618,o),
(72,453,o),
(72,266,cs),
(72,94,o),
(211,-22,o),
(416,-22,cs),
(596,-22,o),
(779,59,o),
(927,175,c)
);
},
{
closed = 1;
nodes = (
(606,956,o),
(576,1036,o),
(576,1094,cs),
(576,1216,o),
(708,1330,o),
(849,1330,cs),
(935,1330,o),
(996,1275,o),
(996,1199,cs),
(996,1094,o),
(884,978,o),
(667,857,c)
);
},
{
closed = 1;
nodes = (
(304,110,o),
(229,187,o),
(229,286,cs),
(229,414,o),
(351,525,o),
(616,671,c),
(853,292,l),
(736,194,o),
(589,110,o),
(432,110,cs)
);
}
);
width = 1403;
},
{
layerId = "03B966DD-30AE-4CDF-A24A-6C10C63FDFF4";
shapes = (
{
closed = 1;
nodes = (
(1094,-42,l),
(1155,4,l),
(991,272,l),
(1076,381,o),
(1150,519,o),
(1209,688,c),
(1142,708,l),
(1087,555,o),
(1029,435,o),
(953,337,c),
(692,762,l),
(954,908,o),
(1096,1068,o),
(1096,1216,cs),
(1096,1372,o),
(1009,1464,o),
(860,1464,cs),
(657,1464,o),
(479,1306,o),
(479,1127,cs),
(479,1039,o),
(513,941,o),
(603,788,c),
(270,599,o),
(106,438,o),
(106,260,cs),
(106,96,o),
(228,-22,o),
(397,-22,cs),
(594,-22,o),
(796,80,o),
(944,207,c)
);
},
{
closed = 1;
nodes = (
(583,945,o),
(542,1044,o),
(542,1113,cs),
(542,1254,o),
(693,1381,o),
(864,1381,cs),
(962,1381,o),
(1040,1309,o),
(1040,1218,cs),
(1040,1100,o),
(907,965,o),
(659,823,c)
);
},
{
closed = 1;
nodes = (
(279,42,o),
(176,134,o),
(176,263,cs),
(176,418,o),
(324,550,o),
(629,722,c),
(906,273,l),
(778,164,o),
(600,42,o),
(411,42,cs)
);
}
);
width = 1401;
}
);
unicode = 38;
},
{
glyphname = quotesingle;
layers = (
{
layerId = "70095191-B7C5-4384-884C-B6DE2D335D53";
shapes = (
{
closed = 1;
nodes = (
(515,879,l),
(651,1477,l),
(419,1477,l),
(282,879,l)
);
}
);
width = 624;
},
{
layerId = "22EA05E5-9529-48D9-B1F8-A3D05D6A9FB7";
shapes = (
{
closed = 1;
nodes = (
(505,1021,l),
(609,1477,l),
(464,1477,l),
(359,1021,l)
);
}
);
width = 627;
},
{
layerId = "03B966DD-30AE-4CDF-A24A-6C10C63FDFF4";
shapes = (
{
closed = 1;
nodes = (
(499,1112,l),
(584,1477,l),
(491,1477,l),
(408,1112,l)
);
}
);
width = 629;
}
);
unicode = 39;
},
{
glyphname = parenleft;
layers = (
{
layerId = "70095191-B7C5-4384-884C-B6DE2D335D53";
shapes = (
{
closed = 1;
nodes = (
(433,-151,l),
(347,2,o),
(304,156,o),
(304,309,cs),
(304,779,o),
(503,1286,o),
(850,1610,c),
(590,1610,l),
(260,1329,o),
(97,717,o),
(97,305,cs),
(97,96,o),
(131,-59,o),
(200,-151,c)
);
}
);
width = 589;
},
{
layerId = "22EA05E5-9529-48D9-B1F8-A3D05D6A9FB7";
shapes = (
{
closed = 1;
nodes = (
(381,-42,l),
(304,100,o),
(273,248,o),
(273,405,cs),
(273,793,o),
(472,1230,o),
(745,1500,c),
(596,1500,l),
(316,1232,o),
(149,809,o),
(149,423,cs),
(149,281,o),
(172,79,o),
(253,-42,c)
);
}
);
width = 582;
},
{
layerId = "03B966DD-30AE-4CDF-A24A-6C10C63FDFF4";
shapes = (
{
closed = 1;
nodes = (
(351,26,l),
(279,159,o),
(254,307,o),
(254,464,cs),
(254,808,o),
(449,1188,o),
(682,1432,c),
(602,1432,l),
(354,1177,o),
(183,862,o),
(183,497,cs),
(183,357,o),
(210,147,o),
(287,26,c)
);
}
);
width = 580;
}
);
unicode = 40;
},
{
glyphname = parenright;
layers = (
{
layerId = "70095191-B7C5-4384-884C-B6DE2D335D53";
shapes = (
{
closed = 1;
nodes = (
(90,-150,l),
(412,115,o),
(597,762,o),
(597,1159,cs),
(597,1341,o),
(563,1504,o),
(494,1610,c),
(253,1610,l),
(337,1473,o),
(379,1301,o),
(379,1129,cs),
(379,657,o),
(176,180,o),
(-160,-150,c)
);
}
);
width = 588;
},
{
layerId = "22EA05E5-9529-48D9-B1F8-A3D05D6A9FB7";
shapes = (
{
closed = 1;
nodes = (
(80,-42,l),
(365,205,o),
(537,675,o),
(537,1040,cs),
(537,1205,o),
(508,1374,o),
(428,1500,c),
(298,1500,l),
(371,1358,o),
(404,1188,o),
(404,1025,cs),
(404,638,o),
(205,229,o),
(-63,-42,c)
);
}
);
width = 584;
},
{
layerId = "03B966DD-30AE-4CDF-A24A-6C10C63FDFF4";
shapes = (
{
closed = 1;
nodes = (
(76,26,l),
(327,254,o),
(501,631,o),
(501,966,cs),
(501,1114,o),
(476,1287,o),
(390,1432,c),
(328,1432,l),
(394,1286,o),
(423,1116,o),
(423,960,cs),
(423,627,o),
(224,256,o),
(0,26,c)
);
}
);
width = 582;
}
);
unicode = 41;
},
{
glyphname = asterisk;
layers = (
{
layerId = "70095191-B7C5-4384-884C-B6DE2D335D53";
shapes = (
{
closed = 1;
nodes = (
(439,849,l),
(595,1054,l),
(657,849,l),
(860,965,l),
(736,1116,l),
(971,1144,l),
(943,1333,l),
(721,1255,l),
(796,1447,l),
(569,1447,l),
(554,1255,l),
(361,1333,l),
(249,1144,l),
(467,1116,l),
(279,965,l)
);
}
);
width = 930;
},
{
layerId = "22EA05E5-9529-48D9-B1F8-A3D05D6A9FB7";
shapes = (
{
closed = 1;
nodes = (
(413,870,l),
(590,1104,l),
(661,870,l),
(777,943,l),
(644,1141,l),
(908,1181,l),
(895,1301,l),
(639,1201,l),
(728,1447,l),
(604,1447,l),
(577,1201,l),
(365,1301,l),
(298,1181,l),
(541,1141,l),
(322,942,l)
);
}
);
width = 900;
},
{
layerId = "03B966DD-30AE-4CDF-A24A-6C10C63FDFF4";
shapes = (
{
closed = 1;
nodes = (
(400,883,l),
(590,1138,l),
(667,885,l),
(726,930,l),
(599,1151,l),
(872,1204,l),
(870,1282,l),
(603,1172,l),
(690,1447,l),
(627,1447,l),
(586,1172,l),
(371,1282,l),
(332,1204,l),
(582,1151,l),
(354,929,l)
);
}
);
width = 889;
}
);
unicode = 42;
},
{
glyphname = plus;
layers = (
{
layerId = "70095191-B7C5-4384-884C-B6DE2D335D53";
shapes = (
{
closed = 1;
nodes = (
(744,109,l),
(744,532,l),
(1212,532,l),
(1212,745,l),
(744,745,l),
(744,1170,l),
(534,1170,l),
(534,745,l),
(66,745,l),
(66,532,l),
(534,532,l),
(534,109,l)
);
}
);
width = 1276;
},
{
layerId = "22EA05E5-9529-48D9-B1F8-A3D05D6A9FB7";
shapes = (
{
closed = 1;
nodes = (
(717,109,l),
(717,579,l),
(1185,579,l),
(1185,703,l),
(717,703,l),
(717,1169,l),
(591,1169,l),
(591,703,l),
(123,703,l),
(123,579,l),
(591,579,l),
(591,109,l)
);
}
);
width = 1308;
},
{
layerId = "03B966DD-30AE-4CDF-A24A-6C10C63FDFF4";
shapes = (
{
closed = 1;
nodes = (
(694,109,l),
(694,606,l),
(1164,606,l),
(1164,676,l),
(694,676,l),
(694,1169,l),
(623,1169,l),
(623,676,l),
(155,676,l),
(155,606,l),
(623,606,l),
(623,109,l)
);
}
);
width = 1319;
}
);
unicode = 43;
},
{
glyphname = comma;
layers = (
{
layerId = "70095191-B7C5-4384-884C-B6DE2D335D53";
shapes = (
{
closed = 1;
nodes = (
(100,-230,l),
(446,270,l),
(128,270,l),
(-90,-230,l)
);
}
);
width = 614;
},
{
layerId = "22EA05E5-9529-48D9-B1F8-A3D05D6A9FB7";
shapes = (
{
closed = 1;
nodes = (
(63,-231,l),
(389,268,l),
(177,268,l),
(-42,-231,l)
);
}
);
width = 614;
},
{
layerId = "03B966DD-30AE-4CDF-A24A-6C10C63FDFF4";
shapes = (
{
closed = 1;
nodes = (
(40,-231,l),
(353,266,l),
(211,266,l),
(-10,-231,l)
);
}
);
width = 614;
}
);
unicode = 44;
},
{
glyphname = hyphen;
layers = (
{
layerId = "70095191-B7C5-4384-884C-B6DE2D335D53";
shapes = (
{
closed = 1;
nodes = (
(760,487,l),
(829,757,l),
(209,757,l),
(140,487,l)
);
}
);
width = 918;
},
{
layerId = "22EA05E5-9529-48D9-B1F8-A3D05D6A9FB7";
shapes = (
{
closed = 1;
nodes = (
(724,580,l),
(754,705,l),
(220,705,l),
(190,580,l)
);
}
);
width = 884;
},
{
layerId = "03B966DD-30AE-4CDF-A24A-6C10C63FDFF4";
shapes = (
{
closed = 1;
nodes = (
(705,610,l),
(720,680,l),
(239,680,l),
(224,610,l)
);
}
);
width = 882;
}
);
leftKerningGroup = endash;
rightKerningGroup = endash1;
unicode = 45;
},
{
glyphname = period;
layers = (
{
layerId = "70095191-B7C5-4384-884C-B6DE2D335D53";
shapes = (
{
closed = 1;
nodes = (
(332,0,l),
(397,293,l),
(130,293,l),
(65,0,l)
);
}
);
width = 614;
},
{
layerId = "22EA05E5-9529-48D9-B1F8-A3D05D6A9FB7";
shapes = (
{
closed = 1;
nodes = (
(308,0,l),
(356,207,l),
(148,207,l),
(100,0,l)
);
}
);
width = 614;
},
{
layerId = "03B966DD-30AE-4CDF-A24A-6C10C63FDFF4";
shapes = (
{
closed = 1;
nodes = (
(297,0,l),
(333,152,l),
(163,152,l),
(125,0,l)
);
}
);
width = 614;
}
);
unicode = 46;
},
{
glyphname = slash;
layers = (
{
layerId = "70095191-B7C5-4384-884C-B6DE2D335D53";
shapes = (
{
closed = 1;
nodes = (
(-17,-440,l),
(1253,1552,l),
(989,1552,l),
(-278,-440,l)
);
}
);
width = 955;
},
{
layerId = "22EA05E5-9529-48D9-B1F8-A3D05D6A9FB7";
shapes = (
{
closed = 1;
nodes = (
(-42,-441,l),
(1193,1552,l),
(1025,1552,l),
(-212,-441,l)
);
}
);
width = 961;
},
{
layerId = "03B966DD-30AE-4CDF-A24A-6C10C63FDFF4";
shapes = (
{
closed = 1;
nodes = (
(-59,-441,l),
(1155,1552,l),
(1046,1552,l),
(-174,-441,l)
);
}
);
width = 963;
}
);
unicode = 47;
},
{
glyphname = zero;
layers = (
{
layerId = "03B966DD-30AE-4CDF-A24A-6C10C63FDFF4";
shapes = (
{
closed = 1;
nodes = (
(981,-12,o),
(1155,700,o),
(1167,1023,cs),
(1176,1281,o),
(1089,1465,o),
(848,1465,cs),
(364,1465,o),
(209,712,o),
(198,422,cs),
(190,179,o),
(264,-12,o),
(520,-12,cs)
);
},
{
closed = 1;
nodes = (
(353,81,o),
(294,226,o),
(301,430,cs),
(309,680,o),
(448,1370,o),
(827,1370,cs),
(1000,1370,o),
(1070,1235,o),
(1063,1014,cs),
(1054,746,o),
(906,81,o),
(539,81,cs)
);
}
);
width = 1229;
},
{
layerId = "70095191-B7C5-4384-884C-B6DE2D335D53";
shapes = (
{
closed = 1;
nodes = (
(1119,-20,o),
(1230,739,o),
(1230,1014,cs),
(1230,1237,o),
(1149,1452,o),
(814,1452,cs),
(198,1452,o),
(95,692,o),
(95,424,cs),
(95,193,o),
(179,-20,o),
(509,-20,cs)
);
},
{
closed = 1;
nodes = (
(431,256,o),
(385,342,o),
(385,469,cs),
(385,631,o),
(461,1174,o),
(757,1174,cs),
(891,1174,o),
(937,1090,o),
(937,965,cs),
(937,803,o),
(860,256,o),
(569,256,cs)
);
}
);
width = 1229;
},
{
layerId = "22EA05E5-9529-48D9-B1F8-A3D05D6A9FB7";
shapes = (
{
closed = 1;
nodes = (
(1036,-15,o),
(1185,716,o),
(1192,1019,cs),
(1198,1263,o),
(1113,1460,o),
(834,1460,cs),
(298,1460,o),
(163,704,o),
(157,423,cs),
(152,185,o),
(230,-15,o),
(516,-15,cs)
);
},
{
closed = 1;
nodes = (
(384,151,o),
(330,272,o),
(335,446,cs),
(339,660,o),
(453,1292,o),
(799,1292,cs),
(956,1292,o),
(1017,1177,o),
(1013,994,cs),
(1007,769,o),
(888,151,o),
(551,151,cs)
);
}
);
width = 1229;
}
);
leftKerningGroup = zero;
unicode = 48;
},
{
glyphname = one;
layers = (
{
layerId = "03B966DD-30AE-4CDF-A24A-6C10C63FDFF4";
shapes = (
{
closed = 1;
nodes = (
(577,0,l),
(674,0,l),
(1005,1448,l),
(908,1448,l),
(876,1311,ls),
(861,1239,o),
(816,1212,o),
(745,1212,cs),
(481,1212,l),
(462,1132,l),
(871,1132,l),
(849,1186,l)
);
}
);
width = 1229;
},
{
layerId = "70095191-B7C5-4384-884C-B6DE2D335D53";
shapes = (
{
closed = 1;
nodes = (
(438,0,l),
(731,0,l),
(1065,1448,l),
(780,1448,l),
(765,1383,ls),
(745,1294,o),
(689,1238,o),
(587,1238,cs),
(342,1238,l),
(290,1012,l),
(703,1012,l),
(679,1043,l)
);
}
);
width = 1229;
},
{
layerId = "22EA05E5-9529-48D9-B1F8-A3D05D6A9FB7";
shapes = (
{
closed = 1;
nodes = (
(521,0,l),
(697,0,l),
(1029,1448,l),
(857,1448,l),
(832,1340,l),
(815,1261,o),
(765,1222,o),
(682,1222,cs),
(425,1222,l),
(393,1084,l),
(804,1084,l),
(781,1129,l)
);
}
);
width = 1229;
}
);
unicode = 49;
},
{
glyphname = two;
layers = (
{
layerId = "03B966DD-30AE-4CDF-A24A-6C10C63FDFF4";
shapes = (
{
closed = 1;
nodes = (
(18,0,l),
(1013,0,l),
(1034,93,l),
(142,93,l),
(141,85,l),
(512,275,o),
(1177,657,o),
(1192,1141,cs),
(1199,1338,o),
(1072,1461,o),
(852,1461,cs),
(563,1461,o),
(361,1261,o),
(297,981,c),
(390,975,l),
(446,1210,o),
(599,1366,o),
(830,1366,cs),
(1006,1366,o),
(1096,1271,o),
(1091,1122,cs),
(1073,661,o),
(388,296,o),
(42,101,c)
);
}
);
width = 1229;
},
{
layerId = "70095191-B7C5-4384-884C-B6DE2D335D53";
shapes = (
{
closed = 1;
nodes = (
(-72,0,l),
(1055,0,l),
(1116,261,l),
(454,261,l),
(453,246,l),
(868,438,o),
(1227,842,o),
(1227,1111,cs),
(1227,1321,o),
(1063,1468,o),
(830,1468,cs),
(547,1468,o),
(270,1232,o),
(200,934,c),
(472,893,l),
(522,1086,o),
(648,1207,o),
(798,1207,cs),
(890,1207,o),
(940,1165,o),
(940,1086,cs),
(940,889,o),
(487,488,o),
(-24,231,c)
);
}
);
width = 1229;
},
{
layerId = "22EA05E5-9529-48D9-B1F8-A3D05D6A9FB7";
shapes = (
{
closed = 1;
nodes = (
(-18,0,l),
(1030,0,l),
(1067,160,l),
(267,160,l),
(266,149,l),
(654,340,o),
(1197,731,o),
(1206,1129,cs),
(1210,1331,o),
(1068,1464,o),
(843,1464,cs),
(557,1464,o),
(325,1249,o),
(258,962,c),
(423,942,l),
(476,1160,o),
(619,1302,o),
(817,1302,cs),
(960,1302,o),
(1034,1229,o),
(1031,1108,cs),
(1020,752,o),
(428,373,o),
(16,153,c)
);
}
);
width = 1229;
}
);
unicode = 50;
},
{
glyphname = three;
layers = (
{
layerId = "03B966DD-30AE-4CDF-A24A-6C10C63FDFF4";
shapes = (
{
closed = 1;
nodes = (
(901,-12,o),
(1097,272,o),
(1105,488,cs),
(1112,676,o),
(945,750,o),
(780,775,c),
(997,809,o),
(1177,948,o),
(1185,1166,cs),
(1191,1344,o),
(1050,1461,o),
(838,1461,cs),
(594,1461,o),
(379,1309,o),
(325,1075,c),
(419,1068,l),
(462,1249,o),
(619,1368,o),
(815,1368,cs),
(980,1368,o),
(1084,1275,o),
(1079,1141,cs),
(1072,918,o),
(866,811,o),
(619,811,cs),
(571,811,l),
(551,719,l),
(599,719,ls),
(778,719,o),
(1012,684,o),
(1004,478,cs),
(999,324,o),
(862,81,o),
(525,81,cs),
(313,81,o),
(188,183,o),
(194,353,c),
(194,376,o),
(197,401,o),
(204,428,c),
(105,422,l),
(98,389,o),
(94,359,o),
(93,331,cs),
(86,111,o),
(248,-12,o),
(503,-12,cs)
);
}
);
width = 1229;
},
{
layerId = "70095191-B7C5-4384-884C-B6DE2D335D53";
shapes = (
{
closed = 1;
nodes = (
(863,-20,o),
(1143,207,o),
(1143,518,cs),
(1143,631,o),
(1105,713,o),
(1023,774,c),
(1139,864,o),
(1210,1000,o),
(1210,1133,cs),
(1210,1328,o),
(1045,1468,o),
(816,1468,cs),
(527,1468,o),
(293,1292,o),
(240,1034,c),
(507,993,l),
(538,1115,o),
(642,1196,o),
(770,1196,cs),
(867,1196,o),
(928,1158,o),
(928,1098,cs),
(928,987,o),
(827,896,o),
(703,896,cs),
(548,896,l),
(486,639,l),
(657,639,ls),
(793,639,o),
(871,593,o),
(871,512,cs),
(871,368,o),
(714,249,o),
(526,249,cs),
(391,249,o),
(312,311,o),
(312,418,cs),
(312,437,o),
(314,457,o),
(318,480,c),
(43,480,l),
(33,442,o),
(28,401,o),
(28,362,cs),
(28,134,o),
(211,-20,o),
(481,-20,cs)
);
}
);
width = 1229;
},
{
layerId = "22EA05E5-9529-48D9-B1F8-A3D05D6A9FB7";
shapes = (
{
closed = 1;
nodes = (
(886,-15,o),
(1115,246,o),
(1120,500,c),
(1124,658,o),
(1009,735,o),
(877,775,c),
(1054,831,o),
(1190,969,o),
(1195,1153,c),
(1199,1338,o),
(1048,1464,o),
(829,1464,cs),
(567,1464,o),
(345,1302,o),
(291,1059,c),
(454,1038,l),
(492,1195,o),
(628,1299,o),
(797,1299,cs),
(935,1299,o),
(1022,1228,o),
(1019,1124,cs),
(1014,946,o),
(850,845,o),
(653,845,cs),
(562,845,l),
(525,687,l),
(622,687,ls),
(784,687,o),
(956,648,o),
(951,492,c),
(948,342,o),
(803,148,o),
(525,148,cs),
(344,148,o),
(238,234,o),
(241,379,c),
(241,400,o),
(244,423,o),
(250,449,c),
(80,445,l),
(72,410,o),
(68,376,o),
(67,343,cs),
(63,120,o),
(233,-15,o),
(494,-15,cs)
);
}
);
width = 1229;
}
);
rightKerningGroup = eight11;
unicode = 51;
},
{
glyphname = four;
layers = (
{
layerId = "03B966DD-30AE-4CDF-A24A-6C10C63FDFF4";
shapes = (
{
closed = 1;
nodes = (
(819,0,l),
(901,347,l),
(1137,347,l),
(1159,442,l),
(920,442,l),
(1153,1448,l),
(1053,1448,l),
(72,418,l),
(54,347,l),
(800,347,l),
(722,0,l)
);
},
{
closed = 1;
nodes = (
(822,442,l),
(160,442,l),
(161,405,l),
(1037,1332,l),
(1028,1338,l)
);
}
);
width = 1229;
},
{
layerId = "70095191-B7C5-4384-884C-B6DE2D335D53";
shapes = (
{
closed = 1;
nodes = (
(850,0,l),
(921,325,l),
(1140,325,l),
(1198,592,l),
(979,592,l),
(1167,1448,l),
(925,1448,l),
(34,489,l),
(0,325,l),
(635,325,l),
(565,0,l)
);
},
{
closed = 1;
nodes = (
(693,592,l),
(399,592,l),
(410,569,l),
(800,1006,l),
(787,1013,l)
);
}
);
width = 1229;
},
{
layerId = "22EA05E5-9529-48D9-B1F8-A3D05D6A9FB7";
shapes = (
{
closed = 1;
nodes = (
(831,0,l),
(909,338,l),
(1138,338,l),
(1175,502,l),
(944,502,l),
(1159,1448,l),
(1002,1448,l),
(57,446,l),
(32,338,l),
(734,338,l),
(659,0,l)
);
},
{
closed = 1;
nodes = (
(770,502,l),
(256,502,l),
(261,471,l),
(942,1202,l),
(932,1208,l)
);
}
);
width = 1229;
}
);
unicode = 52;
},
{
glyphname = five;
layers = (
{
layerId = "03B966DD-30AE-4CDF-A24A-6C10C63FDFF4";
shapes = (
{
closed = 1;
nodes = (
(879,-14,o),
(1115,309,o),
(1125,583,cs),
(1132,803,o),
(994,958,o),
(762,958,cs),
(625,958,o),
(476,898,o),
(341,767,c),
(362,765,l),
(614,1396,l),
(554,1355,l),
(1240,1355,l),
(1263,1448,l),
(537,1448,l),
(240,708,l),
(340,676,l),
(450,793,o),
(588,865,o),
(731,865,cs),
(921,865,o),
(1026,742,o),
(1020,571,cs),
(1012,349,o),
(818,81,o),
(527,81,cs),
(334,81,o),
(216,210,o),
(223,409,c),
(120,393,l),
(114,152,o),
(268,-14,o),
(516,-14,cs)
);
}
);
width = 1229;
},
{
layerId = "70095191-B7C5-4384-884C-B6DE2D335D53";
shapes = (
{
closed = 1;
nodes = (
(892,-20,o),
(1182,227,o),
(1182,621,cs),
(1182,851,o),
(1014,1010,o),
(769,1010,cs),
(698,1010,o),
(578,988,o),
(509,940,c),
(521,927,l),
(649,1207,l),
(605,1179,l),
(1238,1179,l),
(1299,1448,l),
(464,1448,l),
(143,676,l),
(397,607,l),
(466,687,o),
(579,744,o),
(668,744,cs),
(790,744,o),
(864,681,o),
(864,554,cs),
(864,393,o),
(751,245,o),
(550,245,cs),
(422,245,o),
(330,326,o),
(330,493,c),
(51,443,l),
(51,176,o),
(265,-20,o),
(555,-20,cs)
);
}
);
width = 1229;
},
{
layerId = "22EA05E5-9529-48D9-B1F8-A3D05D6A9FB7";
shapes = (
{
closed = 1;
nodes = (
(884,-16,o),
(1142,276,o),
(1148,598,cs),
(1152,822,o),
(1002,979,o),
(765,979,cs),
(654,979,o),
(517,934,o),
(408,836,c),
(426,830,l),
(628,1320,l),
(574,1285,l),
(1239,1285,l),
(1277,1448,l),
(508,1448,l),
(201,695,l),
(363,648,l),
(456,751,o),
(584,817,o),
(706,817,cs),
(869,817,o),
(961,718,o),
(958,564,cs),
(953,367,o),
(791,147,o),
(536,147,cs),
(369,147,o),
(262,256,o),
(266,443,c),
(92,413,l),
(89,162,o),
(267,-16,o),
(532,-16,cs)
);
}
);
width = 1229;
}
);
unicode = 53;
},
{
glyphname = six;
layers = (
{
layerId = "03B966DD-30AE-4CDF-A24A-6C10C63FDFF4";
shapes = (
{
closed = 1;
nodes = (
(842,-14,o),
(1103,280,o),
(1113,547,cs),
(1121,761,o),
(969,922,o),
(739,922,cs),
(644,922,o),
(545,885,o),
(460,829,c),
(467,813,l),
(993,1448,l),
(880,1448,l),
(274,710,ls),
(186,599,o),
(135,480,o),
(132,365,cs),
(124,145,o),
(283,-14,o),
(518,-14,cs)
);
},
{
closed = 1;
nodes = (
(351,81,o),
(226,206,o),
(232,383,cs),
(240,595,o),
(443,833,o),
(712,833,cs),
(894,833,o),
(1018,706,o),
(1012,532,cs),
(1005,322,o),
(801,81,o),
(535,81,cs)
);
}
);
width = 1229;
},
{
layerId = "70095191-B7C5-4384-884C-B6DE2D335D53";
shapes = (
{
closed = 1;
nodes = (
(823,-20,o),
(1162,244,o),
(1162,589,cs),
(1162,852,o),
(1013,989,o),
(775,989,cs),
(747,989,o),
(717,987,o),
(685,983,c),
(691,964,l),
(1143,1448,l),
(803,1448,l),
(203,753,ls),
(112,647,o),
(59,536,o),
(59,393,cs),
(59,144,o),
(255,-20,o),
(496,-20,cs)
);
},
{
closed = 1;
nodes = (
(448,253,o),
(342,308,o),
(342,424,cs),
(342,583,o),
(522,730,o),
(674,730,cs),
(777,730,o),
(878,677,o),
(878,561,cs),
(878,404,o),
(703,253,o),
(551,253,cs)
);
}
);
width = 1229;
},
{
layerId = "22EA05E5-9529-48D9-B1F8-A3D05D6A9FB7";
shapes = (
{
closed = 1;
nodes = (
(834,-16,o),
(1127,266,o),
(1133,564,cs),
(1137,797,o),
(987,949,o),
(753,949,cs),
(685,949,o),
(614,926,o),
(550,891,c),
(557,873,l),
(1053,1448,l),
(849,1448,l),
(246,727,l),
(156,618,o),
(105,502,o),
(103,376,c),
(98,145,o),
(272,-16,o),
(509,-16,cs)
);
},
{
closed = 1;
nodes = (
(390,150,o),
(272,247,o),
(276,399,cs),
(281,590,o),
(475,792,o),
(697,792,cs),
(847,792,o),
(962,694,o),
(958,544,cs),
(954,355,o),
(762,150,o),
(541,150,cs)
);
}
);
width = 1229;
}
);
unicode = 54;
},
{
glyphname = seven;
layers = (
{
layerId = "03B966DD-30AE-4CDF-A24A-6C10C63FDFF4";
shapes = (
{
closed = 1;
nodes = (
(298,0,l),
(1346,1378,l),
(1360,1448,l),
(327,1448,l),
(306,1355,l),
(1258,1355,l),
(1241,1380,l),
(183,0,l)
);
}
);
width = 1229;
},
{
layerId = "70095191-B7C5-4384-884C-B6DE2D335D53";
shapes = (
{
closed = 1;
nodes = (
(390,0,l),
(1335,1299,l),
(1369,1448,l),
(299,1448,l),
(238,1182,l),
(981,1182,l),
(968,1207,l),
(65,0,l)
);
}
);
width = 1229;
},
{
layerId = "22EA05E5-9529-48D9-B1F8-A3D05D6A9FB7";
shapes = (
{
closed = 1;
nodes = (
(335,0,l),
(1342,1346,l),
(1364,1448,l),
(316,1448,l),
(279,1286,l),
(1147,1286,l),
(1132,1311,l),
(136,0,l)
);
}
);
width = 1229;
}
);
unicode = 55;
},
{
glyphname = eight;
layers = (
{
layerId = "03B966DD-30AE-4CDF-A24A-6C10C63FDFF4";
shapes = (
{
closed = 1;
nodes = (
(823,-14,o),
(1076,204,o),
(1086,492,cs),
(1091,640,o),
(1012,748,o),
(872,787,c),
(1053,843,o),
(1158,1010,o),
(1163,1172,cs),
(1169,1344,o),
(1048,1463,o),
(852,1463,cs),
(604,1463,o),
(381,1263,o),
(373,1029,cs),
(369,912,o),
(425,825,o),
(521,787,c),
(278,734,o),
(133,530,o),
(126,327,cs),
(119,111,o),
(300,-14,o),
(514,-14,cs)
);
},
{
closed = 1;
nodes = (
(555,817,o),
(466,900,o),
(471,1033,cs),
(477,1214,o),
(635,1368,o),
(834,1368,cs),
(982,1368,o),
(1070,1283,o),
(1066,1152,cs),
(1060,985,o),
(917,817,o),
(705,817,cs)
);
},
{
closed = 1;
nodes = (
(359,79,o),
(223,168,o),
(229,341,cs),
(236,549,o),
(413,746,o),
(687,746,cs),
(877,746,o),
(994,642,o),
(988,484,cs),
(981,266,o),
(789,79,o),
(533,79,cs)
);
}
);
width = 1229;
},
{
layerId = "70095191-B7C5-4384-884C-B6DE2D335D53";
shapes = (
{
closed = 1;
nodes = (
(810,-20,o),
(1152,145,o),
(1152,510,cs),
(1152,616,o),
(1116,707,o),
(1026,768,c),
(1137,857,o),
(1225,984,o),
(1225,1130,cs),
(1225,1362,o),
(1030,1468,o),
(821,1468,cs),
(550,1468,o),
(260,1294,o),
(260,995,cs),
(260,922,o),
(280,854,o),
(326,797,c),
(154,703,o),
(36,535,o),
(36,336,cs),
(36,90,o),
(276,-20,o),
(492,-20,cs)
);
},
{
closed = 1;
nodes = (
(622,894,o),
(539,914,o),
(539,1000,cs),
(539,1123,o),
(679,1200,o),
(790,1200,cs),
(857,1200,o),
(945,1183,o),
(945,1099,cs),
(945,975,o),
(803,894,o),
(692,894,cs)
);
},
{
closed = 1;
nodes = (
(447,243,o),
(323,266,o),
(323,380,cs),
(323,557,o),
(501,642,o),
(656,642,cs),
(741,642,o),
(870,620,o),
(870,510,cs),
(870,340,o),
(686,243,o),
(537,243,cs)
);
}
);
width = 1229;
},
{
layerId = "22EA05E5-9529-48D9-B1F8-A3D05D6A9FB7";
shapes = (
{
closed = 1;
nodes = (
(818,-16,o),
(1106,180,o),
(1112,499,cs),
(1115,630,o),
(1054,732,o),
(934,779,c),
(1087,849,o),
(1185,1000,o),
(1188,1155,cs),
(1191,1351,o),
(1041,1465,o),
(840,1465,cs),
(582,1465,o),
(333,1275,o),
(328,1015,cs),
(325,916,o),
(367,837,o),
(443,791,c),
(228,722,o),
(94,532,o),
(90,331,cs),
(86,103,o),
(290,-16,o),
(505,-16,cs)
);
},
{
closed = 1;
nodes = (
(582,848,o),
(495,906,o),
(498,1020,cs),
(502,1178,o),
(653,1301,o),
(816,1301,cs),
(932,1301,o),
(1020,1243,o),
(1018,1131,cs),
(1014,981,o),
(871,848,o),
(700,848,cs)
);
},
{
closed = 1;
nodes = (
(394,145,o),
(263,207,o),
(267,357,cs),
(271,552,o),
(448,704,o),
(675,704,cs),
(823,704,o),
(944,633,o),
(941,494,cs),
(937,296,o),
(748,145,o),
(535,145,cs)
);
}
);
width = 1229;
}
);
rightKerningGroup = eight11;
unicode = 56;
},
{
glyphname = nine;
layers = (
{
layerId = "03B966DD-30AE-4CDF-A24A-6C10C63FDFF4";
shapes = (
{
closed = 1;
nodes = (
(482,0,l),
(1073,723,ls),
(1178,850,o),
(1227,968,o),
(1231,1083,cs),
(1239,1303,o),
(1080,1463,o),
(846,1463,cs),
(519,1463,o),
(259,1168,o),
(250,902,cs),
(243,688,o),
(395,526,o),
(624,526,cs),
(720,526,o),
(818,563,o),
(904,619,c),
(895,636,l),
(371,0,l)
);
},
{
closed = 1;
nodes = (
(1013,1368,o),
(1135,1243,o),
(1129,1066,cs),
(1122,854,o),
(918,615,o),
(652,615,cs),
(469,615,o),
(344,742,o),
(351,916,cs),
(358,1126,o),
(562,1368,o),
(827,1368,cs)
);
}
);
width = 1229;
},
{
layerId = "70095191-B7C5-4384-884C-B6DE2D335D53";
shapes = (
{
closed = 1;
nodes = (
(526,0,l),
(1126,695,ls),
(1217,801,o),
(1270,912,o),
(1270,1055,cs),
(1270,1304,o),
(1074,1468,o),
(833,1468,cs),
(506,1468,o),
(167,1204,o),
(167,859,cs),
(167,596,o),
(316,459,o),
(554,459,cs),
(582,459,o),
(612,461,o),
(644,465,c),
(638,484,l),
(186,0,l)
);
},
{
closed = 1;
nodes = (
(881,1195,o),
(987,1140,o),
(987,1024,cs),
(987,865,o),
(807,718,o),
(655,718,cs),
(552,718,o),
(451,771,o),
(451,887,cs),
(451,1044,o),
(626,1195,o),
(778,1195,cs)
);
}
);
width = 1229;
},
{
layerId = "22EA05E5-9529-48D9-B1F8-A3D05D6A9FB7";
shapes = (
{
closed = 1;
nodes = (
(500,0,l),
(1094,712,ls),
(1194,830,o),
(1244,946,o),
(1247,1072,cs),
(1251,1303,o),
(1078,1465,o),
(841,1465,cs),
(514,1465,o),
(222,1182,o),
(217,885,cs),
(213,651,o),
(363,499,o),
(596,499,cs),
(665,499,o),
(736,522,o),
(800,557,c),
(792,575,l),
(297,0,l)
);
},
{
closed = 1;
nodes = (
(960,1299,o),
(1076,1202,o),
(1072,1049,cs),
(1068,858,o),
(874,656,o),
(653,656,cs),
(502,656,o),
(387,754,o),
(391,904,cs),
(395,1093,o),
(588,1299,o),
(807,1299,cs)
);
}
);
width = 1229;
}
);
unicode = 57;
},
{
glyphname = colon;
layers = (
{
layerId = "70095191-B7C5-4384-884C-B6DE2D335D53";
shapes = (
{
closed = 1;
nodes = (
(501,684,l),
(569,977,l),
(274,977,l),
(207,684,l)
);
},
{
closed = 1;
nodes = (
(345,0,l),
(411,293,l),
(116,293,l),
(50,0,l)
);
}
);
width = 614;
},
{
layerId = "22EA05E5-9529-48D9-B1F8-A3D05D6A9FB7";
shapes = (
{
closed = 1;
nodes = (
(473,769,l),
(521,976,l),
(311,976,l),
(264,769,l)
);
},
{
closed = 1;
nodes = (
(296,0,l),
(344,207,l),
(136,207,l),
(88,0,l)
);
}
);
width = 614;
},
{
layerId = "03B966DD-30AE-4CDF-A24A-6C10C63FDFF4";
shapes = (
{
closed = 1;
nodes = (
(454,824,l),
(489,976,l),
(334,976,l),
(298,824,l)
);
},
{
closed = 1;
nodes = (
(264,0,l),
(300,152,l),
(147,152,l),
(111,0,l)
);
}
);
width = 614;
}
);
unicode = 58;
},
{
glyphname = semicolon;
layers = (
{
layerId = "70095191-B7C5-4384-884C-B6DE2D335D53";
shapes = (
{
closed = 1;
nodes = (
(476,684,l),
(544,977,l),
(249,977,l),
(179,684,l)
);
},
{
closed = 1;
nodes = (
(101,-230,l),
(450,270,l),
(129,270,l),
(-88,-230,l)
);
}
);
width = 614;
},
{
layerId = "22EA05E5-9529-48D9-B1F8-A3D05D6A9FB7";
shapes = (
{
closed = 1;
nodes = (
(467,769,l),
(515,976,l),
(306,976,l),
(258,769,l)
);
},
{
closed = 1;
nodes = (
(56,-231,l),
(380,268,l),
(169,268,l),
(-49,-231,l)
);
}
);
width = 614;
},
{
layerId = "03B966DD-30AE-4CDF-A24A-6C10C63FDFF4";
shapes = (
{
closed = 1;
nodes = (
(461,824,l),
(496,976,l),
(342,976,l),
(304,824,l)
);
},
{
closed = 1;
nodes = (
(26,-231,l),
(336,266,l),
(192,266,l),
(-26,-231,l)
);
}
);
width = 614;
}
);
unicode = 59;
},
{
glyphname = less;
layers = (
{
layerId = "70095191-B7C5-4384-884C-B6DE2D335D53";
shapes = (
{
closed = 1;
nodes = (
(1062,150,l),
(1179,351,l),
(476,690,l),
(1179,1029,l),
(1062,1230,l),
(26,690,l)
);
}
);
width = 1271;
},
{
layerId = "22EA05E5-9529-48D9-B1F8-A3D05D6A9FB7";
shapes = (
{
closed = 1;
nodes = (
(1035,172,l),
(1110,299,l),
(376,690,l),
(1110,1080,l),
(1035,1208,l),
(104,690,l)
);
}
);
width = 1254;
},
{
layerId = "03B966DD-30AE-4CDF-A24A-6C10C63FDFF4";
shapes = (
{
closed = 1;
nodes = (
(1020,185,l),
(1068,265,l),
(315,690,l),
(1068,1114,l),
(1020,1193,l),
(155,690,l)
);
}
);
width = 1248;
}
);
unicode = 60;
},
{
glyphname = equal;
layers = (
{
layerId = "70095191-B7C5-4384-884C-B6DE2D335D53";
shapes = (
{
closed = 1;
nodes = (
(1085,763,l),
(1085,996,l),
(213,996,l),
(213,763,l)
);
},
{
closed = 1;
nodes = (
(1085,379,l),
(1085,613,l),
(213,613,l),
(213,379,l)
);
}
);
width = 1297;
},
{
layerId = "22EA05E5-9529-48D9-B1F8-A3D05D6A9FB7";
shapes = (
{
closed = 1;
nodes = (
(1044,791,l),
(1044,939,l),
(257,939,l),
(257,791,l)
);
},
{
closed = 1;
nodes = (
(1044,436,l),
(1044,584,l),
(257,584,l),
(257,436,l)
);
}
);
width = 1302;
},
{
layerId = "03B966DD-30AE-4CDF-A24A-6C10C63FDFF4";
shapes = (
{
closed = 1;
nodes = (
(1019,808,l),
(1019,903,l),
(284,903,l),
(284,808,l)
);
},
{
closed = 1;
nodes = (
(1019,474,l),
(1019,565,l),
(284,565,l),
(284,474,l)
);
}
);
width = 1304;
}
);
unicode = 61;
},
{
glyphname = greater;
layers = (
{
layerId = "70095191-B7C5-4384-884C-B6DE2D335D53";
shapes = (
{
closed = 1;
nodes = (
(209,150,l),
(1245,690,l),
(209,1230,l),
(92,1029,l),
(795,690,l),
(92,351,l)
);
}
);
width = 1272;
},
{
layerId = "22EA05E5-9529-48D9-B1F8-A3D05D6A9FB7";
shapes = (
{
closed = 1;
nodes = (
(219,172,l),
(1151,690,l),
(219,1208,l),
(145,1080,l),
(877,690,l),
(145,299,l)
);
}
);
width = 1252;
},
{
layerId = "03B966DD-30AE-4CDF-A24A-6C10C63FDFF4";
shapes = (
{
closed = 1;
nodes = (
(225,185,l),
(1092,690,l),
(225,1193,l),
(181,1114,l),
(932,690,l),
(181,265,l)
);
}
);
width = 1246;
}
);
unicode = 62;
},
{
glyphname = question;
layers = (
{
layerId = "70095191-B7C5-4384-884C-B6DE2D335D53";
shapes = (
{
closed = 1;
nodes = (
(600,438,l),
(613,503,ls),
(638,627,o),
(732,694,o),
(826,761,cs),
(951,849,o),
(1076,940,o),
(1076,1153,cs),
(1076,1366,o),
(908,1468,o),
(701,1468,cs),
(418,1468,o),
(191,1302,o),
(134,1007,c),
(381,1007,l),
(408,1155,o),
(498,1234,o),
(650,1234,cs),
(760,1234,o),
(822,1194,o),
(822,1116,cs),
(822,1011,o),
(740,952,o),
(648,890,c),
(543,815,o),
(419,734,o),
(377,524,cs),
(360,438,l)
);
},
{
closed = 1;
nodes = (
(530,0,l),
(595,293,l),
(300,293,l),
(236,0,l)
);
}
);
width = 1011;
},
{
layerId = "22EA05E5-9529-48D9-B1F8-A3D05D6A9FB7";
shapes = (
{
closed = 1;
nodes = (
(573.178,406,l),
(604.927,542,ls),
(633.187,664,o),
(726.178,721,o),
(826.308,782,cs),
(975.486,873,o),
(1096.594,962,o),
(1104.032,1175,cs),
(1110.737,1367,o),
(968.264,1468,o),
(755.264,1468,cs),
(495.264,1468,o),
(284.886,1314,o),
(224.946,1058,c),
(368.946,1058,l),
(406.953,1230,o),
(537.549,1333,o),
(722.549,1333,cs),
(879.549,1333,o),
(963.314,1269,o),
(959.299,1154,cs),
(954.165,1007,o),
(859.651,935,o),
(732.102,862,c),
(625.797,796,o),
(512.283,724,o),
(471.276,552,cs),
(436.178,406,l)
);
},
{
closed = 1;
nodes = (
(520,0,l),
(575.229,207,l),
(366.229,207,l),
(311,0,l)
);
}
);
width = 1057;
},
{
layerId = "03B966DD-30AE-4CDF-A24A-6C10C63FDFF4";
shapes = (
{
closed = 1;
nodes = (
(545,387,l),
(586,565,ls),
(614,685,o),
(707,740,o),
(807,796,cs),
(968,887,o),
(1087,978,o),
(1094,1189,cs),
(1100,1369,o),
(969,1468,o),
(752,1468,cs),
(508,1468,o),
(310,1324,o),
(255,1091,c),
(335,1091,l),
(380,1275,o),
(532,1392,o),
(734,1392,cs),
(921,1392,o),
(1016,1314,o),
(1012,1177,cs),
(1006,1005,o),
(905,929,o),
(756,847,c),
(652,786,o),
(544,724,o),
(509,571,cs),
(467,387,l)
);
},
{
closed = 1;
nodes = (
(513,0,l),
(548,152,l),
(392,152,l),
(357,0,l)
);
}
);
width = 1072;
}
);
unicode = 63;
},
{
glyphname = at;
layers = (
{
layerId = "70095191-B7C5-4384-884C-B6DE2D335D53";
shapes = (
{
closed = 1;
nodes = (
(930,-356,o),
(1040,-343,o),
(1150,-306,c),
(1109,-96,l),
(1023,-124,o),
(939,-140,o),
(849,-140,cs),
(553,-140,o),
(273,17,o),
(273,344,cs),
(273,834,o),
(733,1260,o),
(1215,1260,cs),
(1526,1260,o),
(1786,1083,o),
(1786,750,cs),
(1786,527,o),
(1642,129,o),
(1368,129,cs),
(1340,129,o),
(1315,154,o),
(1315,201,cs),
(1315,235,o),
(1345,339,o),
(1416,492,cs),
(1665,1031,l),
(1448,1043,l),
(1410,961,l),
(1361,1055,o),
(1270,1094,o),
(1168,1094,cs),
(830,1094,o),
(518,668,o),
(518,344,cs),
(518,165,o),
(611,37,o),
(799,37,cs),
(915,37,o),
(1020,77,o),
(1111,148,c),
(1111,-14,o),
(1190,-85,o),
(1354,-85,cs),
(1760,-85,o),
(1992,397,o),
(1992,750,cs),
(1992,1196,o),
(1677,1466,o),
(1243,1466,cs),
(633,1466,o),
(67,966,o),
(67,334,cs),
(67,-95,o),
(390,-356,o),
(815,-356,cs)
);
},
{
closed = 1;
nodes = (
(763,251,o),
(719,277,o),
(719,355,cs),
(719,578,o),
(940,880,o),
(1178,880,cs),
(1248,880,o),
(1295,855,o),
(1295,779,cs),
(1295,564,o),
(1059,251,o),
(837,251,cs)
);
}
);
width = 2041;
},
{
layerId = "22EA05E5-9529-48D9-B1F8-A3D05D6A9FB7";
shapes = (
{
closed = 1;
nodes = (
(967,-357,o),
(1073,-340,o),
(1174,-307,c),
(1139,-158,l),
(1052,-186,o),
(962,-199,o),
(872,-199,cs),
(543,-199,o),
(275,-24,o),
(275,326,cs),
(275,848,o),
(741,1318,o),
(1265,1318,cs),
(1601,1318,o),
(1855,1127,o),
(1855,772,cs),
(1855,514,o),
(1705,81,o),
(1403,81,cs),
(1335,81,o),
(1300,131,o),
(1300,203,cs),
(1300,260,o),
(1311,291,o),
(1350,375,cs),
(1639,1007,l),
(1481,1015,l),
(1417,866,l),
(1409,994,o),
(1317,1065,o),
(1180,1065,cs),
(857,1065,o),
(562,639,o),
(562,340,cs),
(562,175,o),
(646,65,o),
(818,65,cs),
(951,65,o),
(1077,129,o),
(1172,225,c),
(1136,62,o),
(1232,-57,o),
(1388,-57,cs),
(1788,-57,o),
(2004,440,o),
(2004,783,cs),
(2004,1198,o),
(1714,1466,o),
(1281,1466,cs),
(664,1466,o),
(125,931,o),
(125,311,cs),
(125,-120,o),
(446,-357,o),
(858,-357,cs)
);
},
{
closed = 1;
nodes = (
(758,221,o),
(703,258,o),
(703,355,cs),
(703,586,o),
(945,928,o),
(1190,928,cs),
(1280,928,o),
(1338,868,o),
(1338,778,cs),
(1338,544,o),
(1094,221,o),
(850,221,cs)
);
}
);
width = 2112;
},
{
layerId = "03B966DD-30AE-4CDF-A24A-6C10C63FDFF4";
shapes = (
{
closed = 1;
nodes = (
(971,-357,o),
(1077,-340,o),
(1180,-307,c),
(1147,-196,l),
(1060,-224,o),
(966,-237,o),
(874,-237,cs),
(535,-237,o),
(264,-51,o),
(264,311,cs),
(264,850,o),
(737,1356,o),
(1284,1356,cs),
(1635,1356,o),
(1889,1150,o),
(1889,791,cs),
(1889,516,o),
(1739,58,o),
(1403,58,cs),
(1331,58,o),
(1281,110,o),
(1281,214,cs),
(1281,287,o),
(1296,318,o),
(1346,424,cs),
(1612,992,l),
(1492,998,l),
(1411,807,l),
(1420,969,o),
(1317,1048,o),
(1178,1048,cs),
(870,1048,o),
(577,626,o),
(577,338,cs),
(577,181,o),
(657,82,o),
(820,82,cs),
(966,82,o),
(1109,167,o),
(1199,274,c),
(1144,115,o),
(1238,-40,o),
(1399,-40,cs),
(1794,-40,o),
(2002,467,o),
(2002,802,cs),
(2002,1236,o),
(1684,1466,o),
(1300,1466,cs),
(681,1466,o),
(150,920,o),
(150,296,cs),
(150,-131,o),
(467,-357,o),
(869,-357,cs)
);
},
{
closed = 1;
nodes = (
(743,202,o),
(682,245,o),
(682,353,cs),
(682,588,o),
(930,964,o),
(1182,964,cs),
(1280,964,o),
(1355,883,o),
(1355,776,cs),
(1355,529,o),
(1098,202,o),
(848,202,cs)
);
}
);
width = 2135;
}
);
unicode = 64;
},
{
glyphname = A;
layers = (
{
guides = (
{
angle = 90;
position = "{837, 0}";
}
);
layerId = "70095191-B7C5-4384-884C-B6DE2D335D53";
shapes = (
{
closed = 1;
nodes = (
(1271,0,l),
(1017,1448,l),
(800,1448,l),
(-123,0,l),
(198,0,l),
(818,1020,l),
(962,0,l)
);
},
{
closed = 1;
nodes = (
(912,559,l),
(508,559,l),
(350,314,l),
(953,314,l)
);
}
);
width = 1388;
},
{
guides = (
{
angle = 90;
position = "{837, 0}";
}
);
layerId = "22EA05E5-9529-48D9-B1F8-A3D05D6A9FB7";
shapes = (
{
closed = 1;
nodes = (
(1163,0,l),
(952,1448,l),
(819,1448,l),
(-63,0,l),
(129,0,l),
(833,1192,l),
(979,0,l)
);
},
{
closed = 1;
nodes = (
(949,471,l),
(376,471,l),
(282,318,l),
(973,318,l)
);
}
);
width = 1338;
},
{
guides = (
{
angle = 90;
position = "{837, 0}";
}
);
layerId = "03B966DD-30AE-4CDF-A24A-6C10C63FDFF4";
shapes = (
{
closed = 1;
nodes = (
(1104,0,l),
(918,1448,l),
(838,1448,l),
(-19,0,l),
(95,0,l),
(850,1300,l),
(998,0,l)
);
},
{
closed = 1;
nodes = (
(981,416,l),
(300,416,l),
(244,320,l),
(992,320,l)
);
}
);
width = 1323;
}
);
leftKerningGroup = A2;
rightKerningGroup = A;
unicode = 65;
},
{
color = 1;
glyphname = B;
layers = (
{
layerId = "70095191-B7C5-4384-884C-B6DE2D335D53";
shapes = (
{
closed = 1;
nodes = (
(648,0,ls),
(944,0,o),
(1164,164,o),
(1225,432,cs),
(1263,603,o),
(1221,722,o),
(1082,786,c),
(1190,848,o),
(1265,953,o),
(1295,1081,cs),
(1348,1309,o),
(1203,1448,o),
(908,1448,cs),
(376,1448,l),
(42,0,l)
);
},
{
closed = 1;
nodes = (
(493,608,l),
(765,608,ls),
(824,608,o),
(953,601,o),
(917,446,cs),
(894,347,o),
(826,286,o),
(689,286,cs),
(419,286,l)
);
},
{
closed = 1;
nodes = (
(621,1163,l),
(842,1163,ls),
(941,1163,o),
(993,1125,o),
(974,1038,cs),
(953,943,o),
(881,899,o),
(785,899,cs),
(561,899,l)
);
}
);
width = 1266;
},
{
layerId = "22EA05E5-9529-48D9-B1F8-A3D05D6A9FB7";
shapes = (
{
closed = 1;
nodes = (
(605,0,ls),
(901,0,o),
(1106,148,o),
(1165,408,cs),
(1209,600,o),
(1148,727,o),
(990,774,c),
(1121,828,o),
(1212,941,o),
(1245,1086,cs),
(1296,1313,o),
(1164,1448,o),
(890,1448,cs),
(429,1448,l),
(95,0,l)
);
},
{
closed = 1;
nodes = (
(427,669,l),
(787,669,ls),
(919,669,o),
(1033,605,o),
(990,417,cs),
(952,252,o),
(836,163,o),
(630,163,cs),
(311,163,l)
);
},
{
closed = 1;
nodes = (
(569,1285,l),
(851,1285,ls),
(1017,1285,o),
(1095,1208,o),
(1063,1064,cs),
(1030,921,o),
(919,836,o),
(778,836,cs),
(465,836,l)
);
}
);
width = 1269;
},
{
layerId = "03B966DD-30AE-4CDF-A24A-6C10C63FDFF4";
shapes = (
{
closed = 1;
nodes = (
(581,0,ls),
(877,0,o),
(1073,139,o),
(1131,395,cs),
(1178,599,o),
(1106,730,o),
(938,767,c),
(1082,817,o),
(1182,934,o),
(1217,1089,cs),
(1267,1315,o),
(1142,1448,o),
(879,1448,cs),
(459,1448,l),
(125,0,l)
);
},
{
closed = 1;
nodes = (
(390,704,l),
(799,704,ls),
(973,704,o),
(1078,607,o),
(1031,401,cs),
(985,198,o),
(842,93,o),
(596,93,cs),
(249,93,l)
);
},
{
closed = 1;
nodes = (
(539,1355,l),
(856,1355,ls),
(1060,1355,o),
(1153,1255,o),
(1113,1079,cs),
(1074,908,o),
(941,800,o),
(774,800,cs),
(411,800,l)
);
}
);
width = 1270;
}
);
leftKerningGroup = B;
unicode = 66;
},
{
color = 1;
glyphname = C;
layers = (
{
layerId = "70095191-B7C5-4384-884C-B6DE2D335D53";
shapes = (
{
closed = 1;
nodes = (
(968,-20,o),
(1230,129,o),
(1385,408,c),
(1129,513,l),
(1046,349,o),
(898,266,o),
(717,266,cs),
(480,266,o),
(371,440,o),
(371,637,cs),
(371,892,o),
(554,1182,o),
(883,1182,cs),
(1061,1182,o),
(1184,1103,o),
(1211,943,c),
(1505,1050,l),
(1451,1314,o),
(1254,1468,o),
(942,1468,cs),
(442,1468,o),
(78,1082,o),
(78,577,cs),
(78,236,o),
(314,-20,o),
(677,-20,cs)
);
}
);
width = 1423;
},
{
layerId = "22EA05E5-9529-48D9-B1F8-A3D05D6A9FB7";
shapes = (
{
closed = 1;
nodes = (
(960,-20,o),
(1204,118,o),
(1363,386,c),
(1207,451,l),
(1093,252,o),
(918,152,o),
(702,152,cs),
(435,152,o),
(301,328,o),
(301,575,cs),
(301,942,o),
(526,1295,o),
(928,1295,cs),
(1146,1295,o),
(1278,1201,o),
(1314,1004,c),
(1491,1068,l),
(1440,1328,o),
(1261,1468,o),
(962,1468,cs),
(457,1468,o),
(122,1057,o),
(122,541,cs),
(122,204,o),
(333,-20,o),
(680,-20,cs)
);
}
);
width = 1452;
},
{
layerId = "03B966DD-30AE-4CDF-A24A-6C10C63FDFF4";
shapes = (
{
closed = 1;
nodes = (
(954,-20,o),
(1186,111,o),
(1348,372,c),
(1259,410,l),
(1125,188,o),
(932,76,o),
(692,76,cs),
(405,76,o),
(254,253,o),
(254,534,cs),
(254,976,o),
(507,1370,o),
(958,1370,cs),
(1203,1370,o),
(1340,1267,o),
(1382,1045,c),
(1482,1080,l),
(1432,1337,o),
(1265,1468,o),
(976,1468,cs),
(467,1468,o),
(152,1041,o),
(152,517,cs),
(152,182,o),
(346,-20,o),
(682,-20,cs)
);
}
);
width = 1471;
}
);
leftKerningGroup = C;
rightKerningGroup = C1;
unicode = 67;
},
{
glyphname = D;
layers = (
{
guides = (
{
angle = 90;
position = "{897, 0}";
}
);
layerId = "70095191-B7C5-4384-884C-B6DE2D335D53";
shapes = (
{
closed = 1;
nodes = (
(498,0,ls),
(1064,0,o),
(1443,369,o),
(1443,925,cs),
(1443,1310,o),
(1169,1448,o),
(821,1448,cs),
(392,1448,l),
(59,0,l)
);
},
{
closed = 1;
nodes = (
(411,266,l),
(622,1180,l),
(769,1180,ls),
(954,1180,o),
(1159,1161,o),
(1159,924,cs),
(1159,532,o),
(931,266,o),
(521,266,cs)
);
}
);
width = 1442;
},
{
guides = (
{
angle = 90;
position = "{897, 0}";
}
);
layerId = "22EA05E5-9529-48D9-B1F8-A3D05D6A9FB7";
shapes = (
{
closed = 1;
nodes = (
(479,0,ls),
(1035,0,o),
(1399,392,o),
(1399,935,cs),
(1399,1311,o),
(1140,1448,o),
(771,1448,cs),
(434,1448,l),
(101,0,l)
);
},
{
closed = 1;
nodes = (
(312,159,l),
(573,1291,l),
(774,1291,ls),
(1023,1291,o),
(1227,1208,o),
(1227,926,cs),
(1227,495,o),
(927,159,o),
(480,159,cs)
);
}
);
width = 1448;
},
{
guides = (
{
angle = 90;
position = "{897, 0}";
}
);
layerId = "03B966DD-30AE-4CDF-A24A-6C10C63FDFF4";
shapes = (
{
closed = 1;
nodes = (
(464,0,ls),
(1024,0,o),
(1369,417,o),
(1369,941,cs),
(1369,1362,o),
(1056,1448,o),
(731,1448,cs),
(457,1448,l),
(124,0,l)
);
},
{
closed = 1;
nodes = (
(249,91,l),
(541,1361,l),
(776,1361,ls),
(1061,1361,o),
(1269,1238,o),
(1269,928,cs),
(1269,474,o),
(923,91,o),
(453,91,cs)
);
}
);
width = 1450;
}
);
leftKerningGroup = B;
rightKerningGroup = D;
unicode = 68;
},
{
glyphname = E;
layers = (
{
guides = (
{
angle = 90;
position = "{871, 0}";
}
);
layerId = "70095191-B7C5-4384-884C-B6DE2D335D53";
shapes = (
{
closed = 1;
nodes = (
(1029,0,l),
(1094,276,l),
(414,276,l),
(484,588,l),
(1133,588,l),
(1194,858,l),
(545,858,l),
(622,1179,l),
(1302,1179,l),
(1362,1448,l),
(392,1448,l),
(59,0,l)
);
}
);
width = 1275;
},
{
guides = (
{
angle = 90;
position = "{871, 0}";
}
);
layerId = "22EA05E5-9529-48D9-B1F8-A3D05D6A9FB7";
shapes = (
{
closed = 1;
nodes = (
(1040,0,l),
(1076,160,l),
(310,160,l),
(422,650,l),
(1094,650,l),
(1129,798,l),
(459,798,l),
(572,1296,l),
(1338,1296,l),
(1373,1448,l),
(433,1448,l),
(100,0,l)
);
}
);
width = 1277;
},
{
guides = (
{
angle = 90;
position = "{871, 0}";
}
);
layerId = "03B966DD-30AE-4CDF-A24A-6C10C63FDFF4";
shapes = (
{
closed = 1;
nodes = (
(1046,0,l),
(1065,88,l),
(247,88,l),
(384,682,l),
(1071,682,l),
(1089,765,l),
(404,765,l),
(542,1368,l),
(1361,1368,l),
(1379,1448,l),
(458,1448,l),
(125,0,l)
);
}
);
width = 1279;
}
);
leftKerningGroup = B;
rightKerningGroup = E;
unicode = 69;
},
{
glyphname = F;
layers = (
{
layerId = "70095191-B7C5-4384-884C-B6DE2D335D53";
shapes = (
{
closed = 1;
nodes = (
(349,0,l),
(484,588,l),
(1159,588,l),
(1220,858,l),
(545,858,l),
(622,1179,l),
(1386,1179,l),
(1448,1448,l),
(392,1448,l),
(59,0,l)
);
}
);
width = 1275;
},
{
layerId = "22EA05E5-9529-48D9-B1F8-A3D05D6A9FB7";
shapes = (
{
closed = 1;
nodes = (
(272,0,l),
(420,650,l),
(1097,650,l),
(1132,798,l),
(457,798,l),
(570,1296,l),
(1337,1296,l),
(1373,1448,l),
(431,1448,l),
(98,0,l)
);
}
);
width = 1234;
},
{
layerId = "03B966DD-30AE-4CDF-A24A-6C10C63FDFF4";
shapes = (
{
closed = 1;
nodes = (
(230,0,l),
(386,682,l),
(1063,682,l),
(1083,765,l),
(406,765,l),
(545,1368,l),
(1312,1368,l),
(1331,1448,l),
(461,1448,l),
(128,0,l)
);
}
);
width = 1221;
}
);
leftKerningGroup = B;
unicode = 70;
},
{
glyphname = G;
layers = (
{
guides = (
{
angle = 90;
position = "{984, 0}";
}
);
layerId = "70095191-B7C5-4384-884C-B6DE2D335D53";
shapes = (
{
closed = 1;
nodes = (
(859,-20,o),
(1102,70,o),
(1226,230,c),
(1131,230,l),
(1108,0,l),
(1342,0,l),
(1529,801,l),
(810,801,l),
(756,571,l),
(1184,571,l),
(1178,559,l),
(1103,387,o),
(910,242,o),
(720,242,cs),
(516,242,o),
(392,339,o),
(392,552,cs),
(392,863,o),
(614,1215,o),
(953,1215,cs),
(1131,1215,o),
(1260,1142,o),
(1271,944,c),
(1552,1031,l),
(1495,1317,o),
(1277,1470,o),
(992,1470,cs),
(460,1470,o),
(99,1028,o),
(99,523,cs),
(99,176,o),
(329,-20,o),
(668,-20,cs)
);
}
);
width = 1583;
},
{
guides = (
{
angle = 90;
position = "{984, 0}";
}
);
layerId = "22EA05E5-9529-48D9-B1F8-A3D05D6A9FB7";
shapes = (
{
closed = 1;
nodes = (
(941,-20,o),
(1184,103,o),
(1269,291,c),
(1208,291,l),
(1157,0,l),
(1302,0,l),
(1478,760,l),
(899,760,l),
(865,614,l),
(1271,614,l),
(1254,541,l),
(1188,303,o),
(974,139,o),
(713,139,cs),
(449,139,o),
(320,282,o),
(320,522,cs),
(320,904,o),
(565,1312,o),
(987,1312,cs),
(1205,1312,o),
(1323,1203,o),
(1356,1003,c),
(1530,1060,l),
(1480,1315,o),
(1305,1469,o),
(1007,1469,cs),
(472,1469,o),
(140,992,o),
(140,497,cs),
(140,168,o),
(338,-20,o),
(669,-20,cs)
);
}
);
width = 1556;
},
{
layerId = "03B966DD-30AE-4CDF-A24A-6C10C63FDFF4";
shapes = (
{
closed = 1;
nodes = (
(995,-20,o),
(1239,125,o),
(1298,331,c),
(1259,331,l),
(1189,0,l),
(1275,0,l),
(1444,733,l),
(959,733,l),
(938,642,l),
(1329,642,l),
(1305,529,ls),
(1245,247,o),
(1017,71,o),
(708,71,cs),
(405,71,o),
(272,244,o),
(272,502,cs),
(272,931,o),
(533,1377,o),
(1009,1377,cs),
(1254,1377,o),
(1365,1243,o),
(1412,1043,c),
(1516,1080,l),
(1470,1313,o),
(1323,1468,o),
(1017,1468,cs),
(480,1468,o),
(167,968,o),
(167,479,cs),
(167,162,o),
(344,-20,o),
(670,-20,cs)
);
}
);
width = 1538;
}
);
leftKerningGroup = G;
rightKerningGroup = G1;
unicode = 71;
},
{
glyphname = H;
layers = (
{
guides = (
{
angle = 90;
position = "{939, 0}";
}
);
layerId = "70095191-B7C5-4384-884C-B6DE2D335D53";
shapes = (
{
closed = 1;
nodes = (
(1242,0,l),
(1576,1448,l),
(1286,1448,l),
(1148,858,l),
(545,858,l),
(682,1448,l),
(392,1448,l),
(59,0,l),
(349,0,l),
(484,588,l),
(1086,588,l),
(952,0,l)
);
}
);
width = 1536;
},
{
guides = (
{
angle = 90;
position = "{939, 0}";
}
);
layerId = "22EA05E5-9529-48D9-B1F8-A3D05D6A9FB7";
shapes = (
{
closed = 1;
nodes = (
(1167,0,l),
(1501,1448,l),
(1325,1448,l),
(1177,798,l),
(457,798,l),
(605,1448,l),
(431,1448,l),
(98,0,l),
(272,0,l),
(420,650,l),
(1140,650,l),
(993,0,l)
);
}
);
width = 1499;
},
{
guides = (
{
angle = 90;
position = "{939, 0}";
}
);
layerId = "03B966DD-30AE-4CDF-A24A-6C10C63FDFF4";
shapes = (
{
closed = 1;
nodes = (
(1125,0,l),
(1459,1448,l),
(1357,1448,l),
(1202,780,l),
(408,780,l),
(563,1448,l),
(461,1448,l),
(128,0,l),
(230,0,l),
(386,688,l),
(1180,688,l),
(1025,0,l)
);
}
);
width = 1486;
}
);
leftKerningGroup = B;
rightKerningGroup = H;
unicode = 72;
},
{
glyphname = I;
layers = (
{
guides = (
{
angle = 90;
position = "{519, 0}";
}
);
layerId = "70095191-B7C5-4384-884C-B6DE2D335D53";
shapes = (
{
closed = 1;
nodes = (
(349,0,l),
(682,1448,l),
(392,1448,l),
(59,0,l)
);
}
);
width = 642;
},
{
guides = (
{
angle = 90;
position = "{519, 0}";
}
);
layerId = "22EA05E5-9529-48D9-B1F8-A3D05D6A9FB7";
shapes = (
{
closed = 1;
nodes = (
(272,0,l),
(605,1448,l),
(431,1448,l),
(98,0,l)
);
}
);
width = 604;
},
{
guides = (
{
angle = 90;
position = "{519, 0}";
}
);
layerId = "03B966DD-30AE-4CDF-A24A-6C10C63FDFF4";
shapes = (
{
closed = 1;
nodes = (
(230,0,l),
(563,1448,l),
(461,1448,l),
(128,0,l)
);
}
);
width = 591;
}
);
leftKerningGroup = B;
rightKerningGroup = H;
unicode = 73;
},
{
glyphname = J;
layers = (
{
guides = (
{
angle = 90;
position = "{1082, 0}";
}
);
layerId = "70095191-B7C5-4384-884C-B6DE2D335D53";
shapes = (
{
closed = 1;
nodes = (
(753,-20,o),
(949,182,o),
(1025,513,cs),
(1240,1448,l),
(952,1448,l),
(740,537,ls),
(701,370,o),
(640,251,o),
(449,251,cs),
(338,251,o),
(290,311,o),
(290,417,cs),
(290,441,o),
(292,463,o),
(296,481,c),
(9,481,l),
(4,444,o),
(2,411,o),
(2,378,cs),
(2,140,o),
(165,-20,o),
(402,-20,cs)
);
}
);
width = 1170;
},
{
guides = (
{
angle = 90;
position = "{1082, 0}";
}
);
layerId = "22EA05E5-9529-48D9-B1F8-A3D05D6A9FB7";
shapes = (
{
closed = 1;
nodes = (
(780,-20,o),
(907,260,o),
(1003,677,cs),
(1181,1448,l),
(1006,1448,l),
(788,506,ls),
(740,298,o),
(647,134,o),
(411,134,cs),
(275,134,o),
(216,223,o),
(216,350,cs),
(216,374,o),
(218,400,o),
(222,424,c),
(52,419,l),
(47,388,o),
(44,361,o),
(44,334,cs),
(44,92,o),
(198,-20,o),
(421,-20,cs)
);
}
);
width = 1156;
},
{
guides = (
{
angle = 90;
position = "{1082, 0}";
}
);
layerId = "03B966DD-30AE-4CDF-A24A-6C10C63FDFF4";
shapes = (
{
closed = 1;
nodes = (
(805,-20,o),
(887,315,o),
(1001,816,cs),
(1145,1448,l),
(1042,1448,l),
(822,487,ls),
(769,256,o),
(653,60,o),
(388,60,cs),
(239,60,o),
(172,168,o),
(172,308,cs),
(172,336,o),
(174,360,o),
(178,388,c),
(79,379,l),
(74,354,o),
(71,329,o),
(71,300,cs),
(71,62,o),
(223,-20,o),
(432,-20,cs)
);
}
);
width = 1152;
}
);
leftKerningGroup = J;
rightKerningGroup = J1;
unicode = 74;
},
{
glyphname = K;
layers = (
{
layerId = "70095191-B7C5-4384-884C-B6DE2D335D53";
shapes = (
{
closed = 1;
nodes = (
(1414,0,l),
(1022,847,l),
(1751,1448,l),
(1355,1448,l),
(513,722,l),
(682,1448,l),
(392,1448,l),
(59,0,l),
(349,0,l),
(436,369,l),
(777,650,l),
(1057,0,l)
);
}
);
width = 1537;
},
{
layerId = "22EA05E5-9529-48D9-B1F8-A3D05D6A9FB7";
shapes = (
{
closed = 1;
nodes = (
(1293,0,l),
(918,874,l),
(1603,1448,l),
(1370,1448,l),
(391,612,l),
(585,1448,l),
(411,1448,l),
(77,0,l),
(252,0,l),
(344,396,l),
(774,754,l),
(1088,0,l)
);
}
);
width = 1493;
},
{
layerId = "03B966DD-30AE-4CDF-A24A-6C10C63FDFF4";
shapes = (
{
closed = 1;
nodes = (
(1219,0,l),
(857,891,l),
(1512,1448,l),
(1381,1448,l),
(319,544,l),
(528,1448,l),
(426,1448,l),
(92,0,l),
(193,0,l),
(289,411,l),
(774,817,l),
(1109,0,l)
);
}
);
width = 1478;
}
);
leftKerningGroup = B;
rightKerningGroup = K;
unicode = 75;
},
{
glyphname = L;
layers = (
{
guides = (
{
angle = 90;
position = "{504, 0}";
}
);
layerId = "70095191-B7C5-4384-884C-B6DE2D335D53";
shapes = (
{
closed = 1;
nodes = (
(968,0,l),
(1032,276,l),
(414,276,l),
(682,1448,l),
(392,1448,l),
(59,0,l)
);
}
);
width = 1095;
},
{
guides = (
{
angle = 90;
position = "{504, 0}";
}
);
layerId = "22EA05E5-9529-48D9-B1F8-A3D05D6A9FB7";
shapes = (
{
closed = 1;
nodes = (
(892,0,l),
(928,160,l),
(309,160,l),
(606,1448,l),
(432,1448,l),
(99,0,l)
);
}
);
width = 1070;
},
{
guides = (
{
angle = 90;
position = "{504, 0}";
}
);
layerId = "03B966DD-30AE-4CDF-A24A-6C10C63FDFF4";
shapes = (
{
closed = 1;
nodes = (
(848,0,l),
(867,88,l),
(248,88,l),
(562,1448,l),
(459,1448,l),
(126,0,l)
);
}
);
width = 1062;
}
);
leftKerningGroup = B;
rightKerningGroup = A;
unicode = 76;
},
{
glyphname = M;
layers = (
{
layerId = "70095191-B7C5-4384-884C-B6DE2D335D53";
shapes = (
{
closed = 1;
nodes = (
(1556,0,l),
(1890,1448,l),
(1511,1448,l),
(910,459,l),
(767,1448,l),
(392,1448,l),
(59,0,l),
(335,0,l),
(570,1013,l),
(699,126,l),
(975,126,l),
(1514,1013,l),
(1279,0,l)
);
}
);
width = 1850;
},
{
layerId = "22EA05E5-9529-48D9-B1F8-A3D05D6A9FB7";
shapes = (
{
closed = 1;
nodes = (
(1461,0,l),
(1796,1448,l),
(1526,1448,l),
(833,299,l),
(678,1448,l),
(411,1448,l),
(77,0,l),
(249,0,l),
(543,1264,l),
(706,126,l),
(892,126,l),
(1583,1264,l),
(1290,0,l)
);
}
);
width = 1810;
},
{
layerId = "03B966DD-30AE-4CDF-A24A-6C10C63FDFF4";
shapes = (
{
closed = 1;
nodes = (
(1406,0,l),
(1739,1448,l),
(1561,1448,l),
(789,200,l),
(593,1448,l),
(426,1448,l),
(92,0,l),
(198,0,l),
(522,1378,l),
(712,126,l),
(841,126,l),
(1621,1378,l),
(1301,0,l)
);
}
);
width = 1797;
}
);
leftKerningGroup = B;
rightKerningGroup = H;
unicode = 77;
},
{
glyphname = N;
layers = (
{
guides = (
{
angle = 90;
position = "{937, 0}";
}
);
layerId = "70095191-B7C5-4384-884C-B6DE2D335D53";
shapes = (
{
closed = 1;
nodes = (
(1204,0,l),
(1538,1448,l),
(1261,1448,l),
(1041,511,l),
(657,1448,l),
(392,1448,l),
(59,0,l),
(335,0,l),
(555,939,l),
(938,0,l)
);
}
);
width = 1498;
},
{
guides = (
{
angle = 90;
position = "{937, 0}";
}
);
layerId = "22EA05E5-9529-48D9-B1F8-A3D05D6A9FB7";
shapes = (
{
closed = 1;
nodes = (
(1110,0,l),
(1443,1448,l),
(1272,1448,l),
(989,228,l),
(637,1448,l),
(411,1448,l),
(78,0,l),
(250,0,l),
(534,1221,l),
(881,0,l)
);
}
);
width = 1458;
},
{
guides = (
{
angle = 90;
position = "{937, 0}";
}
);
layerId = "03B966DD-30AE-4CDF-A24A-6C10C63FDFF4";
shapes = (
{
closed = 1;
nodes = (
(1051,0,l),
(1384,1448,l),
(1280,1448,l),
(967,101,l),
(584,1448,l),
(426,1448,l),
(91,0,l),
(197,0,l),
(512,1359,l),
(887,0,l)
);
}
);
width = 1443;
}
);
leftKerningGroup = B;
rightKerningGroup = H;
unicode = 78;
},
{
glyphname = O;
layers = (
{
hints = (
{
horizontal = 1;
place = (-23,273);
type = Stem;
},
{
horizontal = 1;
place = (1190,273);
type = Stem;
},
{
place = (85,309);
type = Stem;
},
{
place = (1180,306);
type = Stem;
}
);
layerId = "70095191-B7C5-4384-884C-B6DE2D335D53";
shapes = (
{
closed = 1;
nodes = (
(1205,-23,o),
(1561,440,o),
(1561,953,cs),
(1561,1281,o),
(1356,1463,o),
(1005,1463,cs),
(463,1463,o),
(103,1005,o),
(103,492,cs),
(103,162,o),
(308,-23,o),
(661,-23,cs)
);
},
{
closed = 1;
nodes = (
(534,250,o),
(420,359,o),
(420,559,cs),
(420,856,o),
(611,1190,o),
(941,1190,cs),
(1131,1190,o),
(1246,1081,o),
(1246,880,cs),
(1246,583,o),
(1053,250,o),
(724,250,cs)
);
}
);
width = 1571;
},
{
hints = (
{
horizontal = 1;
place = (-17,160);
type = Stem;
},
{
horizontal = 1;
place = (1298,160);
type = Stem;
},
{
place = (129,180);
type = Stem;
},
{
place = (1284,179);
type = Stem;
}
);
layerId = "22EA05E5-9529-48D9-B1F8-A3D05D6A9FB7";
shapes = (
{
closed = 1;
nodes = (
(1097.075,-17,o),
(1408.336,283,o),
(1509.456,721,cs),
(1610.345,1158,o),
(1437.606,1458,o),
(1012.606,1458,cs),
(587.606,1458,o),
(276.114,1157,o),
(175.456,721,cs),
(74.567,284,o),
(247.075,-17,o),
(672.075,-17,cs)
);
},
{
closed = 1;
nodes = (
(395.014,143,o),
(276.73,380,o),
(355.456,721,cs),
(433.951,1061,o),
(661.667,1298,o),
(975.667,1298,cs),
(1289.667,1298,o),
(1408.951,1061,o),
(1330.456,721,cs),
(1251.73,380,o),
(1023.014,143,o),
(709.014,143,cs)
);
}
);
width = 1591;
},
{
hints = (
{
horizontal = 1;
place = (-14,90);
type = Stem;
},
{
horizontal = 1;
place = (1364,90);
type = Stem;
},
{
place = (156,100);
type = Stem;
},
{
place = (1348,100);
type = Stem;
}
);
layerId = "03B966DD-30AE-4CDF-A24A-6C10C63FDFF4";
shapes = (
{
closed = 1;
nodes = (
(1192,-14,o),
(1522,475,o),
(1522,948,cs),
(1522,1247,o),
(1360,1454,o),
(1018,1454,cs),
(505,1454,o),
(174,966,o),
(174,493,cs),
(174,193,o),
(337,-14,o),
(679,-14,cs)
);
},
{
closed = 1;
nodes = (
(411,76,o),
(276,254,o),
(276,510,cs),
(276,916,o),
(550,1364,o),
(997,1364,cs),
(1285,1364,o),
(1420,1186,o),
(1420,930,cs),
(1420,524,o),
(1147,76,o),
(700,76,cs)
);
}
);
width = 1604;
}
);
leftKerningGroup = O;
rightKerningGroup = O1;
unicode = 79;
},
{
glyphname = P;
layers = (
{
layerId = "70095191-B7C5-4384-884C-B6DE2D335D53";
shapes = (
{
closed = 1;
nodes = (
(346,0,l),
(481,585,l),
(615,585,ls),
(940,585,o),
(1292,707,o),
(1292,1098,cs),
(1292,1352,o),
(1075,1448,o),
(853,1448,cs),
(392,1448,l),
(59,0,l)
);
},
{
closed = 1;
nodes = (
(543,858,l),
(616,1175,l),
(802,1175,ls),
(872,1175,o),
(1008,1171,o),
(1008,1073,cs),
(1008,912,o),
(848,858,o),
(715,858,cs)
);
}
);
width = 1247;
},
{
layerId = "22EA05E5-9529-48D9-B1F8-A3D05D6A9FB7";
shapes = (
{
closed = 1;
nodes = (
(273,0,l),
(422,647,l),
(617,647,ls),
(926,647,o),
(1230,784,o),
(1230,1137,cs),
(1230,1361,o),
(1034,1448,o),
(838,1448,cs),
(432,1448,l),
(99,0,l)
);
},
{
closed = 1;
nodes = (
(457,803,l),
(571,1292,l),
(816,1292,ls),
(946,1292,o),
(1059,1253,o),
(1059,1123,cs),
(1059,912,o),
(886,803,o),
(691,803,cs)
);
}
);
width = 1186;
},
{
layerId = "03B966DD-30AE-4CDF-A24A-6C10C63FDFF4";
shapes = (
{
closed = 1;
nodes = (
(229,0,l),
(384,687,l),
(577,687,ls),
(886,687,o),
(1192,799,o),
(1192,1160,cs),
(1192,1367,o),
(1013,1448,o),
(832,1448,cs),
(459,1448,l),
(126,0,l)
);
},
{
closed = 1;
nodes = (
(404,769,l),
(544,1364,l),
(822,1364,ls),
(944,1364,o),
(1093,1329,o),
(1093,1155,cs),
(1093,914,o),
(909,769,o),
(678,769,cs)
);
}
);
width = 1182;
}
);
leftKerningGroup = B;
unicode = 80;
},
{
glyphname = Q;
layers = (
{
hints = (
{
horizontal = 1;
place = (-23,273);
type = Stem;
},
{
horizontal = 1;
place = (1190,273);
type = Stem;
},
{
place = (85,309);
type = Stem;
},
{
place = (1180,306);
type = Stem;
}
);
layerId = "70095191-B7C5-4384-884C-B6DE2D335D53";
shapes = (
{
closed = 1;
nodes = (
(1561,1281,o),
(1356,1463,o),
(1005,1463,cs),
(463,1463,o),
(103,1005,o),
(103,492,cs),
(103,162,o),
(308,-23,o),
(659,-23,cs),
(791,-23,o),
(937,7,o),
(1024,51,c),
(1156,-113,l),
(1362,61,l),
(1248,199,l),
(1436,387,o),
(1561,684,o),
(1561,942,cs)
);
},
{
closed = 1;
nodes = (
(534,250,o),
(420,359,o),
(420,559,cs),
(420,856,o),
(611,1190,o),
(941,1190,cs),
(1131,1190,o),
(1246,1081,o),
(1246,874,cs),
(1246,718,o),
(1177,532,o),
(1074,409,c),
(914,604,l),
(713,434,l),
(849,267,l),
(817,257,o),
(766,250,o),
(722,250,cs)
);
}
);
width = 1595;
},
{
hints = (
{
horizontal = 1;
place = (-17,160);
type = Stem;
},
{
horizontal = 1;
place = (1298,160);
type = Stem;
},
{
place = (128,180);
type = Stem;
},
{
place = (1283,179);
type = Stem;
}
);
layerId = "22EA05E5-9529-48D9-B1F8-A3D05D6A9FB7";
shapes = (
{
closed = 1;
nodes = (
(1536,1259,o),
(1358,1458,o),
(1012,1458,cs),
(489,1458,o),
(146,981,o),
(146,494,cs),
(146,183,o),
(324,-17,o),
(670,-17,cs),
(810,-17,o),
(962,20,o),
(1049,76,c),
(1179,-87,l),
(1302,16,l),
(1183,165,l),
(1395,357,o),
(1536,667,o),
(1536,941,cs)
);
},
{
closed = 1;
nodes = (
(456,143,o),
(331,295,o),
(331,533,cs),
(331,898,o),
(573,1298,o),
(975,1298,cs),
(1226,1298,o),
(1353,1146,o),
(1353,904,cs),
(1353,690,o),
(1245,443,o),
(1083,286,c),
(881,541,l),
(761,440,l),
(949,201,l),
(894,166,o),
(796,143,o),
(704,143,cs)
);
}
);
width = 1604;
},
{
hints = (
{
horizontal = 1;
place = (-14,90);
type = Stem;
},
{
horizontal = 1;
place = (1364,90);
type = Stem;
},
{
place = (154,100);
type = Stem;
},
{
place = (1347,100);
type = Stem;
}
);
layerId = "03B966DD-30AE-4CDF-A24A-6C10C63FDFF4";
shapes = (
{
closed = 1;
nodes = (
(1521,1247,o),
(1358,1454,o),
(1016,1454,cs),
(503,1454,o),
(172,966,o),
(172,493,cs),
(172,193,o),
(335,-14,o),
(676,-14,cs),
(822,-14,o),
(978,28,o),
(1065,90,c),
(1193,-72,l),
(1264,-12,l),
(1143,143,l),
(1370,335,o),
(1521,654,o),
(1521,941,cs)
);
},
{
closed = 1;
nodes = (
(409,76,o),
(274,254,o),
(274,510,cs),
(274,917,o),
(548,1364,o),
(996,1364,cs),
(1285,1364,o),
(1419,1186,o),
(1419,922,cs),
(1419,669,o),
(1287,384,o),
(1088,210,c),
(860,501,l),
(789,443,l),
(1011,159,l),
(941,109,o),
(815,76,o),
(697,76,cs)
);
}
);
width = 1610;
}
);
leftKerningGroup = O;
unicode = 81;
},
{
glyphname = R;
layers = (
{
guides = (
{
angle = 90;
position = "{798, 0}";
}
);
layerId = "70095191-B7C5-4384-884C-B6DE2D335D53";
shapes = (
{
closed = 1;
nodes = (
(1185,-2,l),
(933,632,l),
(1138,706,o),
(1300,875,o),
(1300,1103,cs),
(1300,1333,o),
(1089,1448,o),
(881,1448,cs),
(392,1448,l),
(57,-2,l),
(346,-2,l),
(489,609,l),
(656,609,l),
(871,-2,l)
);
},
{
closed = 1;
nodes = (
(545,841,l),
(624,1188,l),
(826,1188,ls),
(904,1188,o),
(1012,1168,o),
(1012,1070,cs),
(1012,934,o),
(880,841,o),
(752,841,cs)
);
}
);
width = 1312;
},
{
guides = (
{
angle = 90;
position = "{798, 0}";
}
);
layerId = "22EA05E5-9529-48D9-B1F8-A3D05D6A9FB7";
shapes = (
{
closed = 1;
nodes = (
(1062,-2,l),
(829,664,l),
(1050,709,o),
(1226,894,o),
(1226,1127,cs),
(1226,1345,o),
(1041,1448,o),
(845,1448,cs),
(430,1448,l),
(94,-2,l),
(269,-2,l),
(420,644,l),
(663,644,l),
(874,-2,l)
);
},
{
closed = 1;
nodes = (
(456,799,l),
(570,1293,l),
(823,1293,ls),
(949,1293,o),
(1057,1241,o),
(1057,1117,cs),
(1057,950,o),
(897,799,o),
(733,799,cs)
);
}
);
width = 1258;
},
{
guides = (
{
angle = 90;
position = "{798, 0}";
}
);
layerId = "03B966DD-30AE-4CDF-A24A-6C10C63FDFF4";
shapes = (
{
closed = 1;
nodes = (
(992,-2,l),
(772,683,l),
(1004,713,o),
(1188,905,o),
(1188,1144,cs),
(1188,1343,o),
(1020,1448,o),
(837,1448,cs),
(460,1448,l),
(126,-2,l),
(227,-2,l),
(382,665,l),
(676,665,l),
(885,-2,l)
);
},
{
closed = 1;
nodes = (
(403,749,l),
(543,1360,l),
(827,1360,ls),
(949,1360,o),
(1093,1307,o),
(1093,1142,cs),
(1093,912,o),
(941,749,o),
(727,749,cs)
);
}
);
width = 1241;
}
);
leftKerningGroup = B;
rightKerningGroup = R;
unicode = 82;
},
{
glyphname = S;
widthMetricsKey = "=1138";
layers = (
{
guides = (
{
angle = 90;
position = "{742, 0}";
}
);
layerId = "70095191-B7C5-4384-884C-B6DE2D335D53";
shapes = (
{
closed = 1;
nodes = (
(825,-20,o),
(1118,136,o),
(1118,444,cs),
(1118,707,o),
(904,803,o),
(742,891,cs),
(645,944,o),
(567,993,o),
(567,1074,cs),
(567,1173,o),
(660,1224,o),
(749,1224,cs),
(847,1224,o),
(929,1158,o),
(959,1064,c),
(1218,1189,l),
(1147,1384,o),
(947,1468,o),
(752,1468,cs),
(507,1468,o),
(261,1333,o),
(261,1061,cs),
(261,821,o),
(456,740,o),
(615,656,cs),
(722,600,o),
(812,541,o),
(812,435,cs),
(812,299,o),
(698,244,o),
(577,244,cs),
(424,244,o),
(332,330,o),
(332,484,c),
(26,434,l),
(26,134,o),
(272,-20,o),
(549,-20,cs)
);
}
);
width = 1188;
},
{
guides = (
{
angle = 90;
position = "{742, 0}";
}
);
layerId = "22EA05E5-9529-48D9-B1F8-A3D05D6A9FB7";
shapes = (
{
closed = 1;
nodes = (
(795,-20,o),
(1046,152,o),
(1046,434,cs),
(1046,656,o),
(861,748,o),
(704,835,cs),
(582,902,o),
(473,966,o),
(473,1082,cs),
(473,1228,o),
(604,1321,o),
(732,1321,cs),
(852,1321,o),
(956,1257,o),
(1005,1141,c),
(1161,1223,l),
(1089,1392,o),
(910,1468,o),
(737,1468,cs),
(513,1468,o),
(293,1318,o),
(293,1069,cs),
(293,872,o),
(460,788,o),
(612,705,cs),
(742,633,o),
(865,561,o),
(865,420,cs),
(865,238,o),
(714,134,o),
(554,134,cs),
(387,134,o),
(226,237,o),
(241,422,c),
(58,386,l),
(58,118,o),
(298,-20,o),
(540,-20,cs)
);
}
);
width = 1156;
},
{
guides = (
{
angle = 90;
position = "{1810, 0}";
}
);
layerId = "03B966DD-30AE-4CDF-A24A-6C10C63FDFF4";
shapes = (
{
closed = 1;
nodes = (
(779,-20,o),
(1005,162,o),
(1005,429,cs),
(1005,627,o),
(838,719,o),
(683,805,cs),
(548,880,o),
(420,951,o),
(420,1088,cs),
(420,1259,o),
(572,1377,o),
(723,1377,cs),
(855,1377,o),
(972,1314,o),
(1030,1184,c),
(1128,1242,l),
(1055,1397,o),
(890,1468,o),
(729,1468,cs),
(517,1468,o),
(311,1309,o),
(311,1074,cs),
(311,902,o),
(462,817,o),
(611,733,cs),
(754,652,o),
(895,572,o),
(895,411,cs),
(895,204,o),
(723,73,o),
(541,73,cs),
(366,73,o),
(167,185,o),
(189,386,c),
(77,359,l),
(77,110,o),
(312,-20,o),
(535,-20,cs)
);
}
);
width = 1138;
}
);
leftKerningGroup = S;
rightKerningGroup = S1;
unicode = 83;
},
{
glyphname = T;
layers = (
{
guides = (
{
angle = 90;
position = "{673, 0}";
}
);
layerId = "70095191-B7C5-4384-884C-B6DE2D335D53";
shapes = (
{
closed = 1;
nodes = (
(636,0,l),
(907,1179,l),
(1349,1179,l),
(1411,1448,l),
(236,1448,l),
(175,1179,l),
(618,1179,l),
(346,0,l)
);
}
);
width = 1213;
},
{
guides = (
{
angle = 90;
position = "{673, 0}";
}
);
layerId = "22EA05E5-9529-48D9-B1F8-A3D05D6A9FB7";
shapes = (
{
closed = 1;
nodes = (
(529,0,l),
(829,1296,l),
(1313,1296,l),
(1347,1448,l),
(202,1448,l),
(168,1296,l),
(653,1296,l),
(353,0,l)
);
}
);
width = 1115;
},
{
guides = (
{
angle = 90;
position = "{673, 0}";
}
);
layerId = "03B966DD-30AE-4CDF-A24A-6C10C63FDFF4";
shapes = (
{
closed = 1;
nodes = (
(474,0,l),
(791,1368,l),
(1301,1368,l),
(1318,1448,l),
(194,1448,l),
(177,1368,l),
(687,1368,l),
(370,0,l)
);
}
);
width = 1075;
}
);
leftKerningGroup = T2;
rightKerningGroup = T;
unicode = 84;
},
{
glyphname = U;
layers = (
{
guides = (
{
angle = 90;
position = "{867, 0}";
}
);
layerId = "70095191-B7C5-4384-884C-B6DE2D335D53";
shapes = (
{
closed = 1;
nodes = (
(1004,-20,o),
(1206,198,o),
(1293,573,cs),
(1495,1448,l),
(1205,1448,l),
(1011,610,ls),
(961,393,o),
(884,261,o),
(640,261,cs),
(522,261,o),
(427,287,o),
(427,425,cs),
(427,479,o),
(438,534,o),
(450,587,cs),
(647,1448,l),
(356,1448,l),
(159,586,ls),
(144,519,o),
(133,452,o),
(133,382,cs),
(133,83,o),
(331,-20,o),
(603,-20,cs)
);
}
);
width = 1420;
},
{
guides = (
{
angle = 90;
position = "{867, 0}";
}
);
layerId = "22EA05E5-9529-48D9-B1F8-A3D05D6A9FB7";
shapes = (
{
closed = 1;
nodes = (
(938,-20,o),
(1144,224,o),
(1221,561,cs),
(1424,1448,l),
(1249,1448,l),
(1051,586,ls),
(995,343,o),
(878,144,o),
(598,144,cs),
(427,144,o),
(349,220,o),
(349,385,cs),
(349,452,o),
(380,603,o),
(406,716,cs),
(576,1448,l),
(401,1448,l),
(230,707,ls),
(204,593,o),
(171,440,o),
(171,369,cs),
(171,120,o),
(317,-20,o),
(584,-20,cs)
);
}
);
width = 1391;
},
{
guides = (
{
angle = 90;
position = "{867, 0}";
}
);
layerId = "03B966DD-30AE-4CDF-A24A-6C10C63FDFF4";
shapes = (
{
closed = 1;
nodes = (
(927,-20,o),
(1111,266,o),
(1179,559,cs),
(1384,1448,l),
(1283,1448,l),
(1078,571,l),
(1020,313,o),
(882,72,o),
(577,72,cs),
(389,72,o),
(303,167,o),
(303,362,cs),
(303,446,o),
(355,679,o),
(391,830,c),
(534,1448,l),
(433,1448,l),
(285,819,ls),
(250,669,o),
(198,440,o),
(198,361,cs),
(198,105,o),
(351,-20,o),
(578,-20,cs)
);
}
);
width = 1380;
}
);
leftKerningGroup = U;
rightKerningGroup = U1;
unicode = 85;
},
{
glyphname = V;
layers = (
{
layerId = "70095191-B7C5-4384-884C-B6DE2D335D53";
shapes = (
{
closed = 1;
nodes = (
(681,0,l),
(1602,1448,l),
(1276,1448,l),
(681,486,l),
(532,1448,l),
(212,1448,l),
(469,0,l)
);
}
);
width = 1396;
},
{
layerId = "22EA05E5-9529-48D9-B1F8-A3D05D6A9FB7";
shapes = (
{
closed = 1;
nodes = (
(619,0,l),
(1499,1448,l),
(1312,1448,l),
(598,244,l),
(442,1448,l),
(256,1448,l),
(472,0,l)
);
}
);
width = 1325;
},
{
layerId = "03B966DD-30AE-4CDF-A24A-6C10C63FDFF4";
shapes = (
{
closed = 1;
nodes = (
(585,0,l),
(1440,1448,l),
(1339,1448,l),
(554,92,l),
(391,1448,l),
(290,1448,l),
(480,0,l)
);
}
);
width = 1304;
}
);
leftKerningGroup = T2;
rightKerningGroup = V;
unicode = 86;
},
{
glyphname = W;
layers = (
{
guides = (
{
angle = 90;
position = "{1193, 0}";
}
);
layerId = "70095191-B7C5-4384-884C-B6DE2D335D53";
shapes = (
{
closed = 1;
nodes = (
(1441,0,l),
(2217,1448,l),
(1915,1448,l),
(1384,439,l),
(1309,1448,l),
(1085,1448,l),
(545,439,l),
(479,1448,l),
(177,1448,l),
(286,0,l),
(559,0,l),
(1090,989,l),
(1167,0,l)
);
}
);
width = 2060;
},
{
guides = (
{
angle = 90;
position = "{1193, 0}";
}
);
layerId = "22EA05E5-9529-48D9-B1F8-A3D05D6A9FB7";
shapes = (
{
closed = 1;
nodes = (
(1378,0,l),
(2123,1448,l),
(1944,1448,l),
(1323,223,l),
(1249,1448,l),
(1109,1448,l),
(472,223,l),
(414,1448,l),
(235,1448,l),
(311,0,l),
(502,0,l),
(1115,1165,l),
(1187,0,l)
);
}
);
width = 2023;
},
{
guides = (
{
angle = 90;
position = "{1193, 0}";
}
);
layerId = "03B966DD-30AE-4CDF-A24A-6C10C63FDFF4";
shapes = (
{
closed = 1;
nodes = (
(1344,0,l),
(2070,1448,l),
(1967,1448,l),
(1291,90,l),
(1215,1448,l),
(1130,1448,l),
(432,90,l),
(376,1448,l),
(277,1448,l),
(334,0,l),
(472,0,l),
(1134,1276,l),
(1206,0,l)
);
}
);
width = 2012;
}
);
leftKerningGroup = W2;
rightKerningGroup = W;
unicode = 87;
},
{
glyphname = X;
layers = (
{
layerId = "70095191-B7C5-4384-884C-B6DE2D335D53";
shapes = (
{
closed = 1;
nodes = (
(240,0,l),
(730,561,l),
(699,566,l),
(927,0,l),
(1269,0,l),
(952,724,l),
(1607,1447,l),
(1255,1447,l),
(764,879,l),
(795,873,l),
(571,1447,l),
(229,1447,l),
(543,724,l),
(-114,0,l)
);
}
);
width = 1399;
},
{
layerId = "22EA05E5-9529-48D9-B1F8-A3D05D6A9FB7";
shapes = (
{
closed = 1;
nodes = (
(167,0,l),
(740,632,l),
(708,637,l),
(993,0,l),
(1198,0,l),
(864,730,l),
(1526,1448,l),
(1307,1448,l),
(740,820,l),
(771,814,l),
(494,1448,l),
(292,1448,l),
(618,730,l),
(-53,0,l)
);
}
);
width = 1350;
},
{
layerId = "D3D7CBA2-D3F1-4522-9D49-99CBE43DF2C8";
name = "Thin Italic.1";
shapes = (
{
closed = 1;
nodes = (
(973,0,l),
(668,724,l),
(1307,1447,l),
(1189,1447,l),
(645,819,l),
(396,1447,l),
(280,1447,l),
(583,724,l),
(-58,0,l),
(64,0,l),
(605,616,l),
(863,0,l)
);
}
);
width = 1170;
},
{
layerId = "03B966DD-30AE-4CDF-A24A-6C10C63FDFF4";
shapes = (
{
closed = 1;
nodes = (
(119,0,l),
(747,680,l),
(714,684,l),
(1037,0,l),
(1150,0,l),
(805,734,l),
(1472,1448,l),
(1341,1448,l),
(724,781,l),
(755,775,l),
(443,1448,l),
(334,1448,l),
(668,734,l),
(-12,0,l)
);
}
);
width = 1318;
}
);
unicode = 88;
},
{
glyphname = Y;
layers = (
{
guides = (
{
angle = 90;
position = "{842, 0}";
}
);
layerId = "70095191-B7C5-4384-884C-B6DE2D335D53";
shapes = (
{
closed = 1;
nodes = (
(753,0,l),
(885,563,l),
(1688,1448,l),
(1339,1448,l),
(790,818,l),
(534,1448,l),
(195,1448,l),
(593,563,l),
(461,0,l)
);
}
);
width = 1446;
},
{
guides = (
{
angle = 90;
position = "{842, 0}";
}
);
layerId = "22EA05E5-9529-48D9-B1F8-A3D05D6A9FB7";
shapes = (
{
closed = 1;
nodes = (
(656,0,l),
(788,565,l),
(1545,1448,l),
(1340,1448,l),
(735,735,l),
(464,1448,l),
(265,1448,l),
(617,565,l),
(486,0,l)
);
}
);
width = 1374;
},
{
guides = (
{
angle = 90;
position = "{842, 0}";
}
);
layerId = "03B966DD-30AE-4CDF-A24A-6C10C63FDFF4";
shapes = (
{
closed = 1;
nodes = (
(607,0,l),
(739,567,l),
(1467,1448,l),
(1353,1448,l),
(712,684,l),
(432,1448,l),
(320,1448,l),
(644,567,l),
(513,0,l)
);
}
);
width = 1351;
}
);
leftKerningGroup = T2;
rightKerningGroup = T;
unicode = 89;
},
{
glyphname = Z;
layers = (
{
guides = (
{
angle = 90;
position = "{878, 0}";
}
);
layerId = "70095191-B7C5-4384-884C-B6DE2D335D53";
shapes = (
{
closed = 1;
nodes = (
(1114,0,l),
(1177,269,l),
(407,269,l),
(1402,1242,l),
(1449,1448,l),
(312,1448,l),
(251,1179,l),
(976,1179,l),
(-26,205,l),
(-67,0,l)
);
}
);
width = 1298;
},
{
guides = (
{
angle = 90;
position = "{878, 0}";
}
);
layerId = "22EA05E5-9529-48D9-B1F8-A3D05D6A9FB7";
shapes = (
{
closed = 1;
nodes = (
(1095,0,l),
(1133,153,l),
(240,153,l),
(1399,1307,l),
(1428,1448,l),
(354,1448,l),
(319,1296,l),
(1167,1296,l),
(2,128,l),
(-25,0,l)
);
}
);
width = 1316;
},
{
guides = (
{
angle = 90;
position = "{878, 0}";
}
);
layerId = "03B966DD-30AE-4CDF-A24A-6C10C63FDFF4";
shapes = (
{
closed = 1;
nodes = (
(1078,0,l),
(1101,79,l),
(132,79,l),
(1393,1349,l),
(1413,1448,l),
(377,1448,l),
(357,1368,l),
(1283,1368,l),
(15,79,l),
(-2,0,l)
);
}
);
width = 1322;
}
);
leftKerningGroup = Z;
rightKerningGroup = Z1;
unicode = 90;
},
{
glyphname = bracketleft;
layers = (
{
layerId = "70095191-B7C5-4384-884C-B6DE2D335D53";
shapes = (
{
closed = 1;
nodes = (
(473,-190,l),
(518,0,l),
(276,0,l),
(610,1444,l),
(851,1444,l),
(894,1632,l),
(429,1632,l),
(8,-190,l)
);
}
);
width = 656;
},
{
layerId = "22EA05E5-9529-48D9-B1F8-A3D05D6A9FB7";
shapes = (
{
closed = 1;
nodes = (
(446,-108,l),
(473,16,l),
(231,16,l),
(562,1430,l),
(804,1430,l),
(829,1552,l),
(448,1552,l),
(64,-108,l)
);
}
);
width = 657;
},
{
layerId = "03B966DD-30AE-4CDF-A24A-6C10C63FDFF4";
shapes = (
{
closed = 1;
nodes = (
(428,-53,l),
(443,26,l),
(201,26,l),
(530,1421,l),
(772,1421,l),
(785,1499,l),
(461,1499,l),
(102,-53,l)
);
}
);
width = 657;
}
);
unicode = 91;
},
{
glyphname = backslash;
layers = (
{
layerId = "70095191-B7C5-4384-884C-B6DE2D335D53";
shapes = (
{
closed = 1;
nodes = (
(787,-440,l),
(438,1552,l),
(189,1552,l),
(535,-440,l)
);
}
);
width = 955;
},
{
layerId = "22EA05E5-9529-48D9-B1F8-A3D05D6A9FB7";
shapes = (
{
closed = 1;
nodes = (
(728,-441,l),
(414,1552,l),
(251,1552,l),
(569,-441,l)
);
}
);
width = 960;
},
{
layerId = "03B966DD-30AE-4CDF-A24A-6C10C63FDFF4";
shapes = (
{
closed = 1;
nodes = (
(690,-441,l),
(399,1552,l),
(289,1552,l),
(588,-441,l)
);
}
);
width = 962;
}
);
unicode = 92;
},
{
glyphname = bracketright;
layers = (
{
layerId = "70095191-B7C5-4384-884C-B6DE2D335D53";
shapes = (
{
closed = 1;
nodes = (
(323,-190,l),
(745,1632,l),
(281,1632,l),
(238,1444,l),
(478,1444,l),
(145,0,l),
(-96,0,l),
(-142,-190,l)
);
}
);
width = 656;
},
{
layerId = "22EA05E5-9529-48D9-B1F8-A3D05D6A9FB7";
shapes = (
{
closed = 1;
nodes = (
(312,-108,l),
(695,1552,l),
(308,1552,l),
(283,1430,l),
(525,1430,l),
(194,16,l),
(-48,16,l),
(-75,-108,l)
);
}
);
width = 657;
},
{
layerId = "03B966DD-30AE-4CDF-A24A-6C10C63FDFF4";
shapes = (
{
closed = 1;
nodes = (
(304,-53,l),
(661,1499,l),
(326,1499,l),
(313,1421,l),
(556,1421,l),
(226,26,l),
(-16,26,l),
(-31,-53,l)
);
}
);
width = 657;
}
);
unicode = 93;
},
{
glyphname = asciicircum;
layers = (
{
layerId = "70095191-B7C5-4384-884C-B6DE2D335D53";
shapes = (
{
closed = 1;
nodes = (
(1025,813,l),
(736,1554,l),
(111,813,l),
(391,813,l),
(645,1111,l),
(759,813,l)
);
}
);
width = 1004;
},
{
layerId = "22EA05E5-9529-48D9-B1F8-A3D05D6A9FB7";
shapes = (
{
closed = 1;
nodes = (
(963,856,l),
(721,1471,l),
(201,856,l),
(377,856,l),
(665,1194,l),
(795,856,l)
);
}
);
width = 1009;
},
{
layerId = "03B966DD-30AE-4CDF-A24A-6C10C63FDFF4";
shapes = (
{
closed = 1;
nodes = (
(923,881,l),
(710,1418,l),
(258,881,l),
(369,881,l),
(678,1247,l),
(818,881,l)
);
}
);
width = 1011;
}
);
unicode = 94;
},
{
glyphname = underscore;
layers = (
{
layerId = "70095191-B7C5-4384-884C-B6DE2D335D53";
shapes = (
{
closed = 1;
nodes = (
(920,-211,l),
(969,0,l),
(76,0,l),
(27,-211,l)
);
}
);
width = 1278;
},
{
layerId = "22EA05E5-9529-48D9-B1F8-A3D05D6A9FB7";
shapes = (
{
closed = 1;
nodes = (
(894,-127,l),
(923,-2,l),
(116,-2,l),
(86,-127,l)
);
}
);
width = 1275;
},
{
layerId = "03B966DD-30AE-4CDF-A24A-6C10C63FDFF4";
shapes = (
{
closed = 1;
nodes = (
(879,-74,l),
(893,-4,l),
(141,-4,l),
(124,-74,l)
);
}
);
width = 1273;
}
);
unicode = 95;
},
{
glyphname = grave;
layers = (
{
layerId = "70095191-B7C5-4384-884C-B6DE2D335D53";
shapes = (
{
closed = 1;
nodes = (
(681,1192,l),
(528,1508,l),
(245,1508,l),
(495,1192,l)
);
}
);
width = 543;
},
{
layerId = "22EA05E5-9529-48D9-B1F8-A3D05D6A9FB7";
shapes = (
{
closed = 1;
nodes = (
(621,1192,l),
(463,1493,l),
(267,1493,l),
(482,1192,l)
);
}
);
width = 552;
},
{
layerId = "03B966DD-30AE-4CDF-A24A-6C10C63FDFF4";
shapes = (
{
closed = 1;
nodes = (
(591,1192,l),
(438,1480,l),
(299,1480,l),
(486,1192,l)
);
}
);
width = 554;
}
);
unicode = 96;
},
{
glyphname = a;
layers = (
{
guides = (
{
angle = 90;
position = "{632, 0}";
}
);
layerId = "70095191-B7C5-4384-884C-B6DE2D335D53";
shapes = (
{
closed = 1;
nodes = (
(521,-20,o),
(626,11,o),
(712,93,c),
(703,0,l),
(971,0,l),
(1216,1064,l),
(920,1064,l),
(891,964,l),
(832,1050,o),
(721,1085,o),
(620,1085,cs),
(268,1085,o),
(33,713,o),
(33,386,cs),
(33,153,o),
(161,-20,o),
(402,-20,cs)
);
},
{
closed = 1;
nodes = (
(387,239,o),
(317,293,o),
(317,413,cs),
(317,607,o),
(446,833,o),
(660,833,cs),
(776,833,o),
(839,777,o),
(839,655,cs),
(839,456,o),
(718,239,o),
(498,239,cs)
);
}
);
width = 1229;
},
{
guides = (
{
angle = 90;
position = "{632, 0}";
}
);
layerId = "22EA05E5-9529-48D9-B1F8-A3D05D6A9FB7";
shapes = (
{
closed = 1;
nodes = (
(539,-20,o),
(664,35,o),
(755,131,c),
(730,0,l),
(894,0,l),
(1137,1064,l),
(966,1064,l),
(930,919,l),
(870,1038,o),
(761,1084,o),
(631,1084,cs),
(281,1084,o),
(71,672,o),
(71,365,cs),
(71,151,o),
(173,-20,o),
(403,-20,cs)
);
},
{
closed = 1;
nodes = (
(302,129,o),
(238,229,o),
(238,372,cs),
(238,612,o),
(388,934,o),
(663,934,cs),
(817,934,o),
(879,834,o),
(879,693,cs),
(879,452,o),
(733,129,o),
(454,129,cs)
);
}
);
width = 1172;
},
{
guides = (
{
angle = 90;
position = "{632, 0}";
}
);
layerId = "03B966DD-30AE-4CDF-A24A-6C10C63FDFF4";
shapes = (
{
closed = 1;
nodes = (
(547,-20,o),
(687,48,o),
(785,154,c),
(749,0,l),
(848,0,l),
(1091,1064,l),
(998,1064,l),
(955,889,l),
(893,1027,o),
(786,1084,o),
(639,1084,cs),
(296,1084,o),
(96,647,o),
(96,350,cs),
(96,151,o),
(186,-20,o),
(407,-20,cs)
);
},
{
closed = 1;
nodes = (
(253,61,o),
(189,187,o),
(189,347,cs),
(189,614,o),
(354,997,o),
(667,997,cs),
(840,997,o),
(906,880,o),
(906,718,cs),
(906,450,o),
(746,61,o),
(431,61,cs)
);
}
);
width = 1157;
}
);
leftKerningGroup = a;
rightKerningGroup = a11;
unicode = 97;
},
{
glyphname = b;
layers = (
{
layerId = "70095191-B7C5-4384-884C-B6DE2D335D53";
shapes = (
{
closed = 1;
nodes = (
(987,-20,o),
(1213,347,o),
(1213,677,cs),
(1213,914,o),
(1094,1084,o),
(848,1084,cs),
(736,1084,o),
(633,1056,o),
(550,982,c),
(675,1448,l),
(373,1448,l),
(27,0,l),
(330,0,l),
(356,100,l),
(416,13,o),
(528,-20,o),
(630,-20,cs)
);
},
{
closed = 1;
nodes = (
(478,240,o),
(409,294,o),
(409,417,cs),
(409,621,o),
(538,829,o),
(754,829,cs),
(866,829,o),
(934,774,o),
(934,654,cs),
(934,458,o),
(809,240,o),
(592,240,cs)
);
}
);
width = 1238;
},
{
layerId = "22EA05E5-9529-48D9-B1F8-A3D05D6A9FB7";
shapes = (
{
closed = 1;
nodes = (
(917,-20,o),
(1122,394,o),
(1122,700,cs),
(1122,915,o),
(1021,1087,o),
(789,1087,cs),
(648,1087,o),
(532,1029,o),
(437,930,c),
(575,1448,l),
(403,1448,l),
(56,0,l),
(228,0,l),
(264,146,l),
(321,22,o),
(436,-20,o),
(565,-20,cs)
);
},
{
closed = 1;
nodes = (
(376,125,o),
(313,228,o),
(313,369,cs),
(313,609,o),
(464,941,o),
(740,941,cs),
(896,941,o),
(958,831,o),
(958,688,cs),
(958,446,o),
(806,125,o),
(529,125,cs)
);
}
);
width = 1183;
},
{
layerId = "03B966DD-30AE-4CDF-A24A-6C10C63FDFF4";
shapes = (
{
closed = 1;
nodes = (
(879,-20,o),
(1076,421,o),
(1076,715,cs),
(1076,915,o),
(985,1087,o),
(762,1087,cs),
(606,1087,o),
(481,1014,o),
(378,896,c),
(520,1448,l),
(430,1448,l),
(83,0,l),
(173,0,l),
(215,176,l),
(272,28,o),
(385,-20,o),
(535,-20,cs)
);
},
{
closed = 1;
nodes = (
(321,53,o),
(262,184,o),
(262,339,cs),
(262,607,o),
(422,1011,o),
(740,1011,cs),
(919,1011,o),
(983,867,o),
(983,707,cs),
(983,438,o),
(812,53,o),
(497,53,cs)
);
}
);
width = 1164;
}
);
unicode = 98;
},
{
glyphname = c;
layers = (
{
guides = (
{
angle = 90;
position = "{663, 0}";
}
);
layerId = "70095191-B7C5-4384-884C-B6DE2D335D53";
shapes = (
{
closed = 1;
nodes = (
(685,-24,o),
(868,92,o),
(977,282,c),
(734,409,l),
(683,315,o),
(597,244,o),
(489,244,cs),
(383,244,o),
(314,297,o),
(314,412,cs),
(314,606,o),
(439,813,o),
(644,813,cs),
(729,813,o),
(796,760,o),
(796,673,c),
(1087,759,l),
(1047,963,o),
(892,1081,o),
(683,1081,cs),
(315,1081,o),
(35,763,o),
(35,399,cs),
(35,133,o),
(201,-24,o),
(462,-24,cs)
);
}
);
width = 1065;
},
{
guides = (
{
angle = 90;
position = "{663, 0}";
}
);
layerId = "22EA05E5-9529-48D9-B1F8-A3D05D6A9FB7";
shapes = (
{
closed = 1;
nodes = (
(641,-20,o),
(805,88,o),
(903,255,c),
(767,331,l),
(710,217,o),
(588,129,o),
(457,129,cs),
(300,129,o),
(241,235,o),
(241,378,cs),
(241,609,o),
(383,930,o),
(649,930,cs),
(765,930,o),
(852,861,o),
(859,740,c),
(1028,799,l),
(986,977,o),
(859,1081,o),
(668,1081,cs),
(309,1081,o),
(75,709,o),
(75,380,cs),
(75,143,o),
(200,-20,o),
(445,-20,cs)
);
}
);
width = 1028;
},
{
guides = (
{
angle = 90;
position = "{663, 0}";
}
);
layerId = "03B966DD-30AE-4CDF-A24A-6C10C63FDFF4";
shapes = (
{
closed = 1;
nodes = (
(618,-20,o),
(775,84,o),
(863,238,c),
(792,280,l),
(729,154,o),
(588,57,o),
(444,57,cs),
(258,57,o),
(199,193,o),
(199,359,cs),
(199,615,o),
(351,1002,o),
(655,1002,cs),
(786,1002,o),
(894,914,o),
(903,782,c),
(994,824,l),
(952,996,o),
(829,1081,o),
(664,1081,cs),
(311,1081,o),
(105,673,o),
(105,365,cs),
(105,151,o),
(202,-20,o),
(439,-20,cs)
);
}
);
width = 1015;
}
);
leftKerningGroup = a;
rightKerningGroup = c1;
unicode = 99;
},
{
glyphname = d;
layers = (
{
layerId = "70095191-B7C5-4384-884C-B6DE2D335D53";
shapes = (
{
closed = 1;
nodes = (
(520,-20,o),
(629,11,o),
(712,93,c),
(703,0,l),
(971,0,l),
(1318,1448,l),
(1022,1448,l),
(891,964,l),
(832,1050,o),
(722,1085,o),
(620,1085,cs),
(266,1085,o),
(33,714,o),
(33,386,cs),
(33,149,o),
(158,-20,o),
(402,-20,cs)
);
},
{
closed = 1;
nodes = (
(387,239,o),
(317,293,o),
(317,413,cs),
(317,607,o),
(446,833,o),
(660,833,cs),
(776,833,o),
(839,777,o),
(839,655,cs),
(839,456,o),
(718,239,o),
(498,239,cs)
);
}
);
width = 1243;
},
{
layerId = "22EA05E5-9529-48D9-B1F8-A3D05D6A9FB7";
shapes = (
{
closed = 1;
nodes = (
(545,-20,o),
(659,29,o),
(753,131,c),
(728,0,l),
(892,0,l),
(1238,1448,l),
(1067,1448,l),
(931,920,l),
(872,1039,o),
(759,1085,o),
(630,1085,cs),
(280,1085,o),
(70,673,o),
(70,365,cs),
(70,151,o),
(169,-20,o),
(402,-20,cs)
);
},
{
closed = 1;
nodes = (
(302,129,o),
(237,229,o),
(237,372,cs),
(237,612,o),
(387,935,o),
(662,935,cs),
(816,935,o),
(879,834,o),
(879,694,cs),
(879,454,o),
(731,129,o),
(454,129,cs)
);
}
);
width = 1191;
},
{
layerId = "03B966DD-30AE-4CDF-A24A-6C10C63FDFF4";
shapes = (
{
closed = 1;
nodes = (
(562,-20,o),
(682,35,o),
(787,154,c),
(751,0,l),
(850,0,l),
(1198,1448,l),
(1105,1448,l),
(954,890,l),
(895,1028,o),
(784,1085,o),
(641,1085,cs),
(297,1085,o),
(97,648,o),
(97,350,cs),
(97,151,o),
(184,-20,o),
(408,-20,cs)
);
},
{
closed = 1;
nodes = (
(256,61,o),
(191,187,o),
(191,347,cs),
(191,614,o),
(355,998,o),
(668,998,cs),
(841,998,o),
(909,880,o),
(909,717,cs),
(909,452,o),
(746,61,o),
(433,61,cs)
);
}
);
width = 1172;
}
);
leftKerningGroup = a;
unicode = 100;
},
{
glyphname = e;
widthMetricsKey = "=1101";
layers = (
{
guides = (
{
angle = 90;
position = "{701, 0}";
},
{
angle = 136.081;
position = "{879, 131}";
}
);
layerId = "70095191-B7C5-4384-884C-B6DE2D335D53";
shapes = (
{
closed = 1;
nodes = (
(660,-20,o),
(821,34,o),
(956,153,c),
(795,353,l),
(714,275,o),
(615,214,o),
(469,214,cs),
(366,214,o),
(304,281,o),
(304,352,cs),
(304,378,o),
(308,428,o),
(321,453,c),
(1054,453,l),
(1087,536,o),
(1092,601,o),
(1092,691,cs),
(1092,957,o),
(926,1084,o),
(676,1084,cs),
(315,1084,o),
(37,763,o),
(37,406,cs),
(37,135,o),
(223,-20,o),
(480,-20,cs)
);
},
{
closed = 1;
nodes = (
(381,651,l),
(435,779,o),
(516,851,o),
(652,851,cs),
(778,851,o),
(838,776,o),
(838,680,cs),
(838,670,o),
(837,661,o),
(836,651,c)
);
}
);
width = 1116;
},
{
guides = (
{
angle = 90;
position = "{701, 0}";
},
{
angle = 136.081;
position = "{879, 131}";
}
);
layerId = "22EA05E5-9529-48D9-B1F8-A3D05D6A9FB7";
shapes = (
{
closed = 1;
nodes = (
(615,-15,o),
(747,36,o),
(886,158,c),
(792,277,l),
(684,176,o),
(589,129,o),
(466,129,cs),
(310,129,o),
(230,226,o),
(230,367,cs),
(230,404,o),
(234,453,o),
(246,493,c),
(989,493,l),
(1019,565,o),
(1030,651,o),
(1030,728,cs),
(1030,938,o),
(918,1089,o),
(676,1089,cs),
(312,1089,o),
(61,721,o),
(61,378,cs),
(61,136,o),
(208,-15,o),
(458,-15,cs)
);
},
{
closed = 1;
nodes = (
(282,622,l),
(345,810,o),
(479,945,o),
(658,945,cs),
(806,945,o),
(872,850,o),
(872,720,cs),
(872,689,o),
(868,656,o),
(861,622,c)
);
}
);
width = 1107;
},
{
hints = (
{
horizontal = 1;
place = (-14,80);
type = Stem;
},
{
horizontal = 1;
place = (490,78);
type = Stem;
},
{
horizontal = 1;
place = (952,80);
type = Stem;
},
{
place = (23,90);
type = Stem;
},
{
place = (833,87);
type = Stem;
}
);
layerId = "03B966DD-30AE-4CDF-A24A-6C10C63FDFF4";
shapes = (
{
closed = 1;
nodes = (
(651,-12,o),
(764,37,o),
(906,161,c),
(856,226,l),
(730,110,o),
(638,73,o),
(530,73,cs),
(340,73,o),
(247,189,o),
(247,377,cs),
(247,421,o),
(252,469,o),
(262,520,c),
(1013,520,l),
(1040,585,o),
(1055,684,o),
(1055,753,cs),
(1055,925,o),
(979,1092,o),
(742,1092,cs),
(376,1092,o),
(143,693,o),
(143,360,cs),
(143,137,o),
(264,-12,o),
(510,-12,cs)
);
},
{
closed = 1;
nodes = (
(282,602,l),
(351,831,o),
(521,1007,o),
(729,1007,cs),
(892,1007,o),
(962,899,o),
(962,747,cs),
(962,702,o),
(956,653,o),
(944,602,c)
);
}
);
width = 1101;
}
);
leftKerningGroup = a;
rightKerningGroup = e1;
unicode = 101;
},
{
glyphname = f;
layers = (
{
layerId = "70095191-B7C5-4384-884C-B6DE2D335D53";
shapes = (
{
closed = 1;
nodes = (
(88,0,l),
(392,0,l),
(608,828,l),
(840,828,l),
(903,1064,l),
(672,1064,l),
(684,1112,ls),
(698,1169,o),
(725,1227,o),
(805,1227,cs),
(831,1227,o),
(854,1220,o),
(872,1208,c),
(1031,1420,l),
(972,1448,o),
(908,1468,o),
(839,1468,cs),
(558,1468,o),
(456,1340,o),
(397,1145,cs),
(373,1064,l),
(175,1064,l),
(111,828,l),
(304,828,l)
);
}
);
width = 738;
},
{
layerId = "22EA05E5-9529-48D9-B1F8-A3D05D6A9FB7";
shapes = (
{
closed = 1;
nodes = (
(135,0,l),
(314,0,l),
(534,923,l),
(817,923,l),
(851,1064,l),
(571,1064,l),
(592,1156,ls),
(614,1257,o),
(670,1319,o),
(767,1319,cs),
(805,1319,o),
(835,1310,o),
(862,1294,c),
(954,1423,l),
(908,1449,o),
(853,1466,o),
(786,1466,cs),
(583,1466,o),
(472,1367,o),
(420,1170,cs),
(393,1064,l),
(180,1064,l),
(145,923,l),
(355,923,l)
);
}
);
width = 722;
},
{
layerId = "03B966DD-30AE-4CDF-A24A-6C10C63FDFF4";
shapes = (
{
closed = 1;
nodes = (
(166,0,l),
(262,0,l),
(485,986,l),
(801,986,l),
(817,1064,l),
(504,1064,l),
(530,1185,ls),
(558,1316,o),
(633,1380,o),
(741,1380,cs),
(788,1380,o),
(823,1370,o),
(855,1351,c),
(903,1425,l),
(865,1449,o),
(816,1464,o),
(750,1464,cs),
(599,1464,o),
(483,1385,o),
(436,1187,cs),
(407,1064,l),
(184,1064,l),
(168,986,l),
(389,986,l)
);
}
);
width = 712;
}
);
leftKerningGroup = a;
rightKerningGroup = f;
unicode = 102;
},
{
glyphname = g;
layers = (
{
guides = (
{
angle = 90;
position = "{642, 0}";
}
);
layerId = "70095191-B7C5-4384-884C-B6DE2D335D53";
shapes = (
{
closed = 1;
nodes = (
(670,-451,o),
(894,-299,o),
(965,1,c),
(1212,1064,l),
(918,1064,l),
(889,965,l),
(835,1055,o),
(717,1085,o),
(616,1085,cs),
(272,1085,o),
(38,736,o),
(38,413,cs),
(38,188,o),
(168,16,o),
(402,16,cs),
(517,16,o),
(617,42,o),
(703,120,c),
(687,60,ls),
(645,-103,o),
(580,-205,o),
(397,-205,cs),
(309,-205,o),
(195,-173,o),
(167,-75,c),
(-76,-216,l),
(16,-387,o),
(175,-451,o),
(366,-451,cs)
);
},
{
closed = 1;
nodes = (
(393,276,o),
(321,323,o),
(321,445,cs),
(321,634,o),
(460,830,o),
(658,830,cs),
(772,830,o),
(840,776,o),
(840,656,cs),
(840,466,o),
(704,276,o),
(505,276,cs)
);
}
);
width = 1224;
},
{
guides = (
{
angle = 90;
position = "{642, 0}";
}
);
layerId = "22EA05E5-9529-48D9-B1F8-A3D05D6A9FB7";
shapes = (
{
closed = 1;
nodes = (
(656,-445,o),
(828,-264,o),
(896,24,cs),
(1140,1064,l),
(966,1064,l),
(930,918,l),
(873,1034,o),
(766,1085,o),
(637,1085,cs),
(281,1085,o),
(72,683,o),
(72,367,cs),
(72,151,o),
(178,-15,o),
(410,-15,cs),
(548,-15,o),
(667,45,o),
(758,141,c),
(724,7,ls),
(677,-175,o),
(544,-303,o),
(356,-303,cs),
(237,-303,o),
(144,-255,o),
(108,-155,c),
(-36,-235,l),
(31,-391,o),
(187,-445,o),
(346,-445,cs)
);
},
{
closed = 1;
nodes = (
(305,132,o),
(239,233,o),
(239,376,cs),
(239,614,o),
(393,939,o),
(666,939,cs),
(818,939,o),
(881,835,o),
(881,695,cs),
(881,459,o),
(727,132,o),
(457,132,cs)
);
}
);
width = 1173;
},
{
guides = (
{
angle = 90;
position = "{642, 0}";
}
);
layerId = "03B966DD-30AE-4CDF-A24A-6C10C63FDFF4";
shapes = (
{
closed = 1;
nodes = (
(652,-441,o),
(792,-239,o),
(858,43,c),
(1100,1064,l),
(1000,1064,l),
(957,888,l),
(900,1028,o),
(795,1085,o),
(654,1085,cs),
(293,1085,o),
(97,653,o),
(97,344,cs),
(97,136,o),
(190,-26,o),
(418,-26,cs),
(565,-26,o),
(698,51,o),
(796,162,c),
(758,5,l),
(706,-192,o),
(556,-364,o),
(333,-364,cs),
(226,-364,o),
(123,-323,o),
(74,-201,c),
(-9,-248,l),
(43,-393,o),
(195,-441,o),
(337,-441,cs)
);
},
{
closed = 1;
nodes = (
(254,48,o),
(190,178,o),
(190,338,cs),
(190,608,o),
(357,1007,o),
(674,1007,cs),
(847,1007,o),
(910,877,o),
(910,722,cs),
(910,457,o),
(746,48,o),
(431,48,cs)
);
}
);
width = 1162;
}
);
leftKerningGroup = a;
rightKerningGroup = g1;
unicode = 103;
},
{
glyphname = h;
layers = (
{
guides = (
{
angle = 256.888;
position = "{832, 322}";
},
{
angle = 90;
position = "{467, 0}";
}
);
layerId = "70095191-B7C5-4384-884C-B6DE2D335D53";
shapes = (
{
closed = 1;
nodes = (
(712,0,l),
(1000,0,l),
(1139,622,ls),
(1150,673,o),
(1155,724,o),
(1155,768,cs),
(1155,965,o),
(1048,1084,o),
(857,1084,cs),
(740,1084,o),
(638,1048,o),
(549,969,c),
(488,969,l),
(398,549,l),
(441,549,l),
(474,701,o),
(616,822,o),
(753,822,cs),
(822,822,o),
(867,784,o),
(867,726,cs),
(867,683,o),
(859,635,o),
(849,592,cs)
);
},
{
closed = 1;
nodes = (
(22,0,l),
(310,0,l),
(656,1448,l),
(368,1448,l)
);
}
);
width = 1241;
},
{
guides = (
{
angle = 256.888;
position = "{832, 322}";
},
{
angle = 90;
position = "{467, 0}";
}
);
layerId = "22EA05E5-9529-48D9-B1F8-A3D05D6A9FB7";
shapes = (
{
closed = 1;
nodes = (
(743,0,l),
(916,0,l),
(1060,646,ls),
(1070,693,o),
(1077,739,o),
(1077,784,cs),
(1077,946,o),
(1000,1084,o),
(788,1084,cs),
(653,1084,o),
(534,1001,o),
(436,898,c),
(374,898,l),
(303,579,l),
(352,579,l),
(396,756,o),
(565,928,o),
(754,928,cs),
(860,928,o),
(906,867,o),
(906,766,cs),
(906,721,o),
(902,684,o),
(874,564,cs)
);
},
{
closed = 1;
nodes = (
(43,0,l),
(213,0,l),
(560,1448,l),
(389,1448,l)
);
}
);
width = 1184;
},
{
guides = (
{
angle = 256.888;
position = "{832, 322}";
},
{
angle = 90;
position = "{467, 0}";
}
);
layerId = "03B966DD-30AE-4CDF-A24A-6C10C63FDFF4";
shapes = (
{
closed = 1;
nodes = (
(775,0,l),
(872,0,l),
(1022,661,l),
(1032,708,o),
(1037,758,o),
(1037,803,cs),
(1037,952,o),
(973,1084,o),
(771,1084,cs),
(628,1084,o),
(475,965,o),
(373,852,c),
(313,852,l),
(255,579,l),
(302,579,l),
(356,783,o),
(536,996,o),
(759,996,cs),
(890,996,o),
(942,918,o),
(942,793,cs),
(942,740,o),
(940,699,o),
(895,513,c)
);
},
{
closed = 1;
nodes = (
(73,0,l),
(163,0,l),
(510,1448,l),
(421,1448,l)
);
}
);
width = 1178;
}
);
leftKerningGroup = h;
rightKerningGroup = h1;
unicode = 104;
},
{
glyphname = i;
layers = (
{
layerId = "70095191-B7C5-4384-884C-B6DE2D335D53";
shapes = (
{
closed = 1;
nodes = (
(539,1178,l),
(605,1448,l),
(350,1448,l),
(284,1178,l)
);
},
{
closed = 1;
nodes = (
(276,0,l),
(511,1064,l),
(256,1064,l),
(22,0,l)
);
}
);
width = 558;
},
{
layerId = "22EA05E5-9529-48D9-B1F8-A3D05D6A9FB7";
shapes = (
{
closed = 1;
nodes = (
(490,1249,l),
(536,1448,l),
(375,1448,l),
(329,1249,l)
);
},
{
closed = 1;
nodes = (
(220,0,l),
(455,1064,l),
(293,1064,l),
(59,0,l)
);
}
);
width = 504;
},
{
layerId = "03B966DD-30AE-4CDF-A24A-6C10C63FDFF4";
shapes = (
{
closed = 1;
nodes = (
(460,1274,l),
(502,1448,l),
(400,1448,l),
(359,1274,l)
);
},
{
closed = 1;
nodes = (
(193,0,l),
(425,1064,l),
(325,1064,l),
(91,0,l)
);
}
);
width = 487;
}
);
leftKerningGroup = a;
rightKerningGroup = i1;
unicode = 105;
},
{
glyphname = j;
layers = (
{
layerId = "70095191-B7C5-4384-884C-B6DE2D335D53";
shapes = (
{
closed = 1;
nodes = (
(563,1177,l),
(625,1445,l),
(351,1445,l),
(290,1177,l)
);
},
{
closed = 1;
nodes = (
(97,-449,o),
(224,-307,o),
(271,-109,cs),
(547,1064,l),
(273,1064,l),
(8,-82,ls),
(-5,-139,o),
(-38,-202,o),
(-92,-202,cs),
(-127,-202,o),
(-161,-197,o),
(-194,-189,c),
(-299,-410,l),
(-242,-434,o),
(-183,-449,o),
(-118,-449,cs)
);
}
);
width = 607;
},
{
layerId = "22EA05E5-9529-48D9-B1F8-A3D05D6A9FB7";
shapes = (
{
closed = 1;
nodes = (
(519,1247,l),
(567,1451,l),
(392,1451,l),
(345,1247,l)
);
},
{
closed = 1;
nodes = (
(38,-449,o),
(150,-327,o),
(191,-152,cs),
(475,1064,l),
(300,1064,l),
(15,-159,ls),
(-4,-241,o),
(-50,-295,o),
(-132,-295,cs),
(-171,-295,o),
(-209,-290,o),
(-247,-280,c),
(-309,-416,l),
(-258,-437,o),
(-204,-449,o),
(-151,-449,cs)
);
}
);
width = 541;
},
{
layerId = "03B966DD-30AE-4CDF-A24A-6C10C63FDFF4";
shapes = (
{
closed = 1;
nodes = (
(485,1274,l),
(529,1455,l),
(415,1455,l),
(372,1274,l)
);
},
{
closed = 1;
nodes = (
(8,-451,o),
(112,-342,o),
(149,-179,c),
(439,1064,l),
(327,1064,l),
(34,-197,l),
(15,-285,o),
(-44,-354,o),
(-145,-354,cs),
(-186,-354,o),
(-228,-349,o),
(-270,-337,c),
(-305,-420,l),
(-260,-437,o),
(-212,-451,o),
(-162,-451,cs)
);
}
);
width = 520;
}
);
leftKerningGroup = a;
rightKerningGroup = j1;
unicode = 106;
},
{
glyphname = k;
layers = (
{
layerId = "70095191-B7C5-4384-884C-B6DE2D335D53";
shapes = (
{
closed = 1;
nodes = (
(1312,1064,l),
(926,1064,l),
(430,638,l),
(357,293,l)
);
},
{
closed = 1;
nodes = (
(1097,0,l),
(786,674,l),
(549,501,l),
(759,0,l)
);
},
{
closed = 1;
nodes = (
(22,0,l),
(310,0,l),
(656,1448,l),
(368,1448,l)
);
}
);
width = 1204;
},
{
layerId = "22EA05E5-9529-48D9-B1F8-A3D05D6A9FB7";
shapes = (
{
closed = 1;
nodes = (
(1155,1064,l),
(936,1064,l),
(322,505,l),
(276,291,l)
);
},
{
closed = 1;
nodes = (
(969,0,l),
(695,696,l),
(561,577,l),
(769,0,l)
);
},
{
closed = 1;
nodes = (
(48,0,l),
(218,0,l),
(565,1448,l),
(395,1448,l)
);
}
);
width = 1119;
},
{
layerId = "03B966DD-30AE-4CDF-A24A-6C10C63FDFF4";
shapes = (
{
closed = 1;
nodes = (
(1064,1064,l),
(951,1064,l),
(263,425,l),
(234,289,l)
);
},
{
closed = 1;
nodes = (
(897,0,l),
(649,709,l),
(576,623,l),
(784,0,l)
);
},
{
closed = 1;
nodes = (
(78,0,l),
(167,0,l),
(514,1448,l),
(425,1448,l)
);
}
);
width = 1087;
}
);
leftKerningGroup = h;
rightKerningGroup = k;
unicode = 107;
},
{
glyphname = l;
layers = (
{
guides = (
{
angle = 90;
position = "{436, 0}";
}
);
layerId = "70095191-B7C5-4384-884C-B6DE2D335D53";
shapes = (
{
closed = 1;
nodes = (
(656,1448,l),
(368,1448,l),
(81,254,ls),
(40,83,o),
(57,-20,o),
(276,-20,cs),
(345,-20,o),
(409,-12,o),
(476,-2,c),
(519,240,l),
(495,235,o),
(471,233,o),
(446,233,cs),
(410,233,o),
(366,241,o),
(377,285,cs)
);
}
);
width = 629;
},
{
guides = (
{
angle = 90;
position = "{436, 0}";
}
);
layerId = "22EA05E5-9529-48D9-B1F8-A3D05D6A9FB7";
shapes = (
{
closed = 1;
nodes = (
(556,1448,l),
(382,1448,l),
(93,223,ls),
(56,66,o),
(97,-16,o),
(251,-16,cs),
(300,-16,o),
(354,-8,o),
(413,6,c),
(437,150,l),
(402,140,o),
(371,135,o),
(345,135,cs),
(287,135,o),
(253,164,o),
(271,242,cs)
);
}
);
width = 565;
},
{
guides = (
{
angle = 90;
position = "{436, 0}";
}
);
layerId = "03B966DD-30AE-4CDF-A24A-6C10C63FDFF4";
shapes = (
{
closed = 1;
nodes = (
(489,1448,l),
(391,1448,l),
(101,203,ls),
(71,53,o),
(123,-14,o),
(234,-14,cs),
(269,-14,o),
(316,-6,o),
(371,12,c),
(381,90,l),
(340,76,o),
(304,70,o),
(277,70,cs),
(205,70,o),
(180,111,o),
(199,213,cs)
);
}
);
width = 523;
}
);
leftKerningGroup = a;
rightKerningGroup = l1;
unicode = 108;
},
{
glyphname = m;
layers = (
{
guides = (
{
angle = 256.769;
position = "{1459, 353}";
showMeasurement = 1;
}
);
layerId = "70095191-B7C5-4384-884C-B6DE2D335D53";
shapes = (
{
closed = 1;
nodes = (
(1627,0,l),
(1740,511,ls),
(1757,590,o),
(1774,670,o),
(1774,751,cs),
(1774,956,o),
(1631,1084,o),
(1427,1084,cs),
(1288,1084,o),
(1182,1034,o),
(1077,941,c),
(1016,1039,o),
(927,1084,o),
(808,1084,cs),
(722,1084,o),
(611,1036,o),
(536,957,c),
(530,957,l),
(562,1064,l),
(268,1064,l),
(25,0,l),
(317,0,l),
(446,572,ls),
(475,698,o),
(584,819,o),
(717,819,cs),
(792,819,o),
(833,780,o),
(833,719,cs),
(833,686,o),
(828,655,o),
(821,623,cs),
(678,0,l),
(975,0,l),
(1103,572,l),
(1132,698,o),
(1238,819,o),
(1374,819,cs),
(1448,819,o),
(1490,784,o),
(1490,716,cs),
(1490,697,o),
(1481,637,o),
(1461,546,cs),
(1337,0,l)
);
}
);
width = 1869;
},
{
guides = (
{
angle = 256.769;
position = "{1459, 353}";
showMeasurement = 1;
}
);
layerId = "22EA05E5-9529-48D9-B1F8-A3D05D6A9FB7";
shapes = (
{
closed = 1;
nodes = (
(1536,0,l),
(1678,637,ls),
(1689,685,o),
(1695,732,o),
(1695,779,cs),
(1695,973,o),
(1588,1084,o),
(1397,1084,cs),
(1240,1084,o),
(1120,1004,o),
(1023,876,c),
(1002,1008,o),
(901,1084,o),
(743,1084,cs),
(620,1084,o),
(549,1044,o),
(437,920,c),
(428,920,l),
(463,1064,l),
(290,1064,l),
(47,0,l),
(219,0,l),
(356,600,ls),
(394,765,o),
(529,940,o),
(713,940,cs),
(822,940,o),
(867,878,o),
(867,774,cs),
(867,734,o),
(861,689,o),
(851,643,cs),
(703,0,l),
(877,0,l),
(1014,600,ls),
(1052,765,o),
(1185,940,o),
(1369,940,cs),
(1481,940,o),
(1526,875,o),
(1526,767,cs),
(1526,733,o),
(1525,698,o),
(1502,599,cs),
(1363,0,l)
);
}
);
width = 1804;
},
{
guides = (
{
angle = 256.769;
position = "{1459, 353}";
showMeasurement = 1;
}
);
layerId = "03B966DD-30AE-4CDF-A24A-6C10C63FDFF4";
shapes = (
{
closed = 1;
nodes = (
(1493,0,l),
(1637,643,l),
(1648,696,o),
(1654,747,o),
(1654,796,cs),
(1654,984,o),
(1560,1084,o),
(1373,1084,cs),
(1191,1084,o),
(1086,974,o),
(1004,834,c),
(1006,989,o),
(894,1084,o),
(715,1084,cs),
(577,1084,o),
(513,1042,o),
(388,905,c),
(379,905,l),
(414,1064,l),
(317,1064,l),
(74,0,l),
(170,0,l),
(311,617,ls),
(353,803,o),
(510,996,o),
(717,996,cs),
(853,996,o),
(902,937,o),
(902,810,cs),
(902,757,o),
(894,704,o),
(882,654,cs),
(732,0,l),
(828,0,l),
(971,617,l),
(1016,803,o),
(1163,996,o),
(1371,996,cs),
(1512,996,o),
(1564,930,o),
(1564,799,cs),
(1564,760,o),
(1567,728,o),
(1531,580,cs),
(1392,0,l)
);
}
);
width = 1800;
}
);
leftKerningGroup = i;
unicode = 109;
},
{
glyphname = n;
layers = (
{
guides = (
{
angle = 257.135;
position = "{312, 1064}";
},
{
angle = 77.27;
position = "{203, 0}";
},
{
angle = 257.161;
position = "{918, 645}";
},
{
angle = 77.344;
position = "{905, 0}";
},
{
angle = 90;
position = "{780, 0}";
}
);
layerId = "70095191-B7C5-4384-884C-B6DE2D335D53";
shapes = (
{
closed = 1;
nodes = (
(712,0,l),
(1000,0,l),
(1139,622,ls),
(1150,673,o),
(1155,724,o),
(1155,768,cs),
(1155,965,o),
(1048,1084,o),
(857,1084,cs),
(740,1084,o),
(638,1048,o),
(549,969,c),
(488,969,l),
(398,549,l),
(441,549,l),
(474,701,o),
(616,822,o),
(753,822,cs),
(822,822,o),
(867,784,o),
(867,726,cs),
(867,683,o),
(859,635,o),
(849,592,cs)
);
},
{
closed = 1;
nodes = (
(310,0,l),
(565,1064,l),
(277,1064,l),
(22,0,l)
);
}
);
width = 1241;
},
{
guides = (
{
angle = 257.135;
position = "{312, 1064}";
},
{
angle = 77.27;
position = "{203, 0}";
},
{
angle = 257.161;
position = "{918, 645}";
},
{
angle = 77.344;
position = "{905, 0}";
},
{
angle = 90;
position = "{780, 0}";
}
);
layerId = "22EA05E5-9529-48D9-B1F8-A3D05D6A9FB7";
shapes = (
{
closed = 1;
nodes = (
(735,0,l),
(908,0,l),
(1052,646,ls),
(1062,693,o),
(1069,739,o),
(1069,784,cs),
(1069,946,o),
(992,1084,o),
(780,1084,cs),
(645,1084,o),
(526,1001,o),
(428,898,c),
(366,898,l),
(295,579,l),
(344,579,l),
(388,756,o),
(557,928,o),
(746,928,cs),
(852,928,o),
(898,867,o),
(898,766,cs),
(898,721,o),
(894,684,o),
(866,564,cs)
);
},
{
closed = 1;
nodes = (
(216,0,l),
(468,1064,l),
(298,1064,l),
(46,0,l)
);
}
);
width = 1177;
},
{
guides = (
{
angle = 257.135;
position = "{312, 1064}";
},
{
angle = 77.27;
position = "{203, 0}";
},
{
angle = 257.161;
position = "{918, 645}";
},
{
angle = 77.344;
position = "{905, 0}";
},
{
angle = 90;
position = "{780, 0}";
}
);
layerId = "03B966DD-30AE-4CDF-A24A-6C10C63FDFF4";
shapes = (
{
closed = 1;
nodes = (
(779,0,l),
(876,0,l),
(1026,661,l),
(1036,708,o),
(1041,758,o),
(1041,803,cs),
(1041,952,o),
(977,1084,o),
(775,1084,cs),
(632,1084,o),
(479,965,o),
(377,852,c),
(317,852,l),
(259,579,l),
(306,579,l),
(360,783,o),
(540,996,o),
(763,996,cs),
(894,996,o),
(946,918,o),
(946,793,cs),
(946,740,o),
(944,699,o),
(899,513,c)
);
},
{
closed = 1;
nodes = (
(161,0,l),
(411,1064,l),
(319,1064,l),
(69,0,l)
);
}
);
width = 1181;
}
);
leftKerningGroup = i;
rightKerningGroup = n;
unicode = 110;
},
{
glyphname = o;
layers = (
{
guides = (
{
angle = 90;
position = "{741, 0}";
}
);
layerId = "70095191-B7C5-4384-884C-B6DE2D335D53";
shapes = (
{
closed = 1;
nodes = (
(837,-20,o),
(1149,267,o),
(1149,643,cs),
(1149,912,o),
(971,1084,o),
(712,1084,cs),
(342,1084,o),
(34,772,o),
(34,397,cs),
(34,135,o),
(224,-20,o),
(472,-20,cs)
);
},
{
closed = 1;
nodes = (
(388,220,o),
(315,280,o),
(315,408,cs),
(315,606,o),
(458,844,o),
(675,844,cs),
(795,844,o),
(867,776,o),
(867,648,cs),
(867,446,o),
(732,220,o),
(508,220,cs)
);
}
);
width = 1178;
},
{
guides = (
{
angle = 90;
position = "{741, 0}";
}
);
layerId = "22EA05E5-9529-48D9-B1F8-A3D05D6A9FB7";
shapes = (
{
closed = 1;
nodes = (
(793.791,-20,o),
(1071.299,315,o),
(1074.902,659,cs),
(1077.405,898,o),
(929.353,1084,o),
(692.353,1084,cs),
(347.353,1084,o),
(76.666,732,o),
(73.043,386,cs),
(70.55,148,o),
(223.791,-20,o),
(455.791,-20,cs)
);
},
{
closed = 1;
nodes = (
(326.361,130,o),
(244.44,233,o),
(246.032,385,cs),
(248.598,630,o),
(419.782,934,o),
(675.782,934,cs),
(821.782,934,o),
(902.682,829,o),
(901.059,674,cs),
(898.441,424,o),
(734.361,130,o),
(472.361,130,cs)
);
}
);
width = 1131;
},
{
guides = (
{
angle = 90;
position = "{693, 0}";
}
);
layerId = "03B966DD-30AE-4CDF-A24A-6C10C63FDFF4";
shapes = (
{
closed = 1;
nodes = (
(764.651,-20,o),
(1020.057,347,o),
(1025.677,669,cs),
(1029.518,889,o),
(900.921,1084,o),
(678.921,1084,cs),
(350.921,1084,o),
(104.306,705,o),
(98.615,379,cs),
(94.723,156,o),
(222.651,-20,o),
(444.651,-20,cs)
);
},
{
closed = 1;
nodes = (
(284.222,70,o),
(196.508,201,o),
(199.458,370,cs),
(204.276,646,o),
(395.35,994,o),
(676.35,994,cs),
(840.35,994,o),
(927.099,865,o),
(924.061,691,cs),
(919.157,410,o),
(734.222,70,o),
(446.222,70,cs)
);
}
);
width = 1100;
}
);
leftKerningGroup = a;
rightKerningGroup = o1;
unicode = 111;
},
{
glyphname = p;
layers = (
{
layerId = "70095191-B7C5-4384-884C-B6DE2D335D53";
shapes = (
{
closed = 1;
nodes = (
(214,-449,l),
(351,100,l),
(408,15,o),
(522,-20,o),
(623,-20,cs),
(978,-20,o),
(1208,346,o),
(1208,676,cs),
(1208,912,o),
(1086,1084,o),
(842,1084,cs),
(730,1084,o),
(626,1056,o),
(543,982,c),
(559,1064,l),
(270,1064,l),
(-83,-449,l)
);
},
{
closed = 1;
nodes = (
(474,240,o),
(403,294,o),
(403,414,cs),
(403,616,o),
(528,834,o),
(744,834,cs),
(858,834,o),
(925,775,o),
(925,655,cs),
(925,459,o),
(804,240,o),
(585,240,cs)
);
}
);
width = 1292;
},
{
layerId = "22EA05E5-9529-48D9-B1F8-A3D05D6A9FB7";
shapes = (
{
closed = 1;
nodes = (
(111,-449,l),
(257,147,l),
(315,26,o),
(425,-20,o),
(554,-20,cs),
(907,-20,o),
(1116,388,o),
(1116,700,cs),
(1116,914,o),
(1011,1084,o),
(781,1084,cs),
(639,1084,o),
(524,1032,o),
(430,931,c),
(463,1064,l),
(293,1064,l),
(-61,-449,l)
);
},
{
closed = 1;
nodes = (
(366,125,o),
(305,232,o),
(305,372,cs),
(305,607,o),
(458,939,o),
(729,939,cs),
(885,939,o),
(952,834,o),
(952,690,cs),
(952,448,o),
(795,125,o),
(519,125,cs)
);
}
);
width = 1178;
},
{
layerId = "03B966DD-30AE-4CDF-A24A-6C10C63FDFF4";
shapes = (
{
closed = 1;
nodes = (
(65,-451,l),
(217,177,l),
(273,34,o),
(381,-20,o),
(529,-20,cs),
(880,-20,o),
(1078,413,o),
(1078,715,cs),
(1078,916,o),
(984,1084,o),
(762,1084,cs),
(608,1084,o),
(480,1017,o),
(378,897,c),
(419,1064,l),
(325,1064,l),
(-29,-451,l)
);
},
{
closed = 1;
nodes = (
(318,53,o),
(263,190,o),
(263,347,cs),
(263,609,o),
(429,1007,o),
(738,1007,cs),
(917,1007,o),
(988,872,o),
(988,709,cs),
(988,442,o),
(808,53,o),
(498,53,cs)
);
}
);
width = 1165;
}
);
unicode = 112;
},
{
glyphname = q;
layers = (
{
layerId = "70095191-B7C5-4384-884C-B6DE2D335D53";
shapes = (
{
closed = 1;
nodes = (
(866,-449,l),
(1220,1064,l),
(934,1064,l),
(897,964,l),
(843,1052,o),
(726,1084,o),
(626,1084,cs),
(270,1084,o),
(41,714,o),
(41,386,cs),
(41,149,o),
(164,-20,o),
(407,-20,cs),
(518,-20,o),
(624,7,o),
(706,82,c),
(572,-449,l)
);
},
{
closed = 1;
nodes = (
(394,240,o),
(325,294,o),
(325,414,cs),
(325,615,o),
(452,830,o),
(666,830,cs),
(782,830,o),
(846,776,o),
(846,654,cs),
(846,459,o),
(722,240,o),
(505,240,cs)
);
}
);
width = 1242;
},
{
layerId = "22EA05E5-9529-48D9-B1F8-A3D05D6A9FB7";
shapes = (
{
closed = 1;
nodes = (
(792,-449,l),
(1146,1064,l),
(976,1064,l),
(936,920,l),
(878,1040,o),
(769,1084,o),
(640,1084,cs),
(289,1084,o),
(78,676,o),
(78,365,cs),
(78,151,o),
(178,-20,o),
(410,-20,cs),
(555,-20,o),
(666,33,o),
(763,134,c),
(619,-449,l)
);
},
{
closed = 1;
nodes = (
(306,125,o),
(245,229,o),
(245,371,cs),
(245,611,o),
(395,939,o),
(672,939,cs),
(826,939,o),
(886,834,o),
(886,696,cs),
(886,455,o),
(739,125,o),
(460,125,cs)
);
}
);
width = 1196;
},
{
layerId = "03B966DD-30AE-4CDF-A24A-6C10C63FDFF4";
shapes = (
{
closed = 1;
nodes = (
(754,-451,l),
(1106,1064,l),
(1010,1064,l),
(968,890,l),
(910,1032,o),
(803,1084,o),
(655,1084,cs),
(308,1084,o),
(110,653,o),
(110,352,cs),
(110,151,o),
(195,-20,o),
(421,-20,cs),
(582,-20,o),
(698,48,o),
(807,168,c),
(657,-451,l)
);
},
{
closed = 1;
nodes = (
(260,53,o),
(203,185,o),
(203,344,cs),
(203,613,o),
(365,1007,o),
(683,1007,cs),
(858,1007,o),
(920,878,o),
(920,721,cs),
(920,453,o),
(756,53,o),
(441,53,cs)
);
}
);
width = 1181;
}
);
leftKerningGroup = a;
unicode = 113;
},
{
glyphname = r;
layers = (
{
guides = (
{
angle = 90;
position = "{628, 0}";
}
);
layerId = "70095191-B7C5-4384-884C-B6DE2D335D53";
shapes = (
{
closed = 1;
nodes = (
(303,0,l),
(418,500,ls),
(451,642,o),
(538,816,o),
(702,816,cs),
(747,816,o),
(789,806,o),
(829,784,c),
(1011,998,l),
(950,1054,o),
(863,1079,o),
(780,1079,cs),
(648,1079,o),
(557,994,o),
(497,885,c),
(507,882,l),
(542,1064,l),
(268,1064,l),
(25,0,l)
);
}
);
width = 877;
},
{
layerId = "22EA05E5-9529-48D9-B1F8-A3D05D6A9FB7";
shapes = (
{
closed = 1;
nodes = (
(232,0,l),
(362,574,ls),
(411,787,o),
(559,916,o),
(710,916,cs),
(753,916,o),
(796,904,o),
(830,887,c),
(943,1024,l),
(892,1061,o),
(830,1078,o),
(764,1078,cs),
(632,1078,o),
(488,990,o),
(414,833,c),
(422,832,l),
(472,1064,l),
(305,1064,l),
(63,0,l)
);
}
);
width = 823;
},
{
layerId = "03B966DD-30AE-4CDF-A24A-6C10C63FDFF4";
shapes = (
{
closed = 1;
nodes = (
(184,0,l),
(325,624,ls),
(384,884,o),
(573,982,o),
(716,982,cs),
(757,982,o),
(800,970,o),
(830,955,c),
(897,1041,l),
(854,1066,o),
(808,1078,o),
(754,1078,cs),
(621,1078,o),
(442,988,o),
(358,798,c),
(366,798,l),
(426,1064,l),
(330,1064,l),
(88,0,l)
);
}
);
width = 787;
}
);
leftKerningGroup = i;
rightKerningGroup = r;
unicode = 114;
},
{
glyphname = s;
widthMetricsKey = "=959";
layers = (
{
layerId = "70095191-B7C5-4384-884C-B6DE2D335D53";
shapes = (
{
closed = 1;
nodes = (
(-28,268,l),
(20,84,o),
(220,-20,o),
(405,-20,cs,{name = .dv01;}),
(637,-20,o),
(851,112,o),
(851,365,cs,{name = .sh01;}),
(851,540,o),
(687,599,o),
(564,654,cs),
(490,687,o),
(430,718,o),
(430,774,cs),
(430,835,o),
(494,864,o),
(547,864,cs),
(636,864,o,{name = .sh04;}),
(700,823,o),
(733,747,c),
(962,873,l),
(884,1025,o),
(729,1084,o),
(554,1084,cs),
(334,1084,o),
(139,937,o),
(139,704,cs),
(139,529,o,{name = .dv04;}),
(301,468,o),
(423,415,cs),
(497,383,o),
(558,354,o),
(558,303,cs),
(558,232,o,{name = .sh03;}),
(499,208,o),
(437,208,cs),
(321,208,o),
(240,264,o),
(213,371,c)
);
}
);
width = 951;
},
{
layerId = "22EA05E5-9529-48D9-B1F8-A3D05D6A9FB7";
shapes = (
{
closed = 1;
nodes = (
(17,258,l),
(53,76,o),
(274,-20,o),
(436,-20,cs,{name = .dv01;}),
(640,-20,o),
(821,112,o),
(821,338,cs,{name = .sh01;}),
(821,515,o),
(660,572,o),
(525,626,cs),
(427,665,o),
(342,703,o),
(342,792,cs),
(342,900,o),
(444,952,o),
(530,952,cs),
(634,952,o,{name = .sh04;}),
(743,901,o),
(775,789,c),
(915,863,l),
(860,1020,o),
(689,1084,o),
(536,1084,cs),
(347,1084,o),
(172,961,o),
(172,750,cs),
(172,591,o,{name = .dv04;}),
(316,537,o),
(444,487,cs),
(541,448,o),
(650,409,o),
(650,300,cs),
(650,178,o,{name = .sh03;}),
(554,117,o),
(452,117,cs),
(332,117,o),
(188,184,o),
(163,319,c)
);
}
);
width = 956;
},
{
hints = (
{
horizontal = 1;
place = (-14,80);
type = Stem;
},
{
horizontal = 1;
place = (955,78);
type = Stem;
},
{
place = (128,84);
type = Stem;
},
{
place = (621,85);
type = Stem;
}
);
layerId = "03B966DD-30AE-4CDF-A24A-6C10C63FDFF4";
shapes = (
{
closed = 1;
nodes = (
(42,252,l),
(72,71,o),
(305,-20,o),
(454,-20,cs),
(641,-20,o),
(804,112,o),
(804,323,cs),
(804,501,o),
(645,556,o),
(503,610,cs),
(391,653,o),
(292,695,o),
(292,802,cs),
(292,937,o),
(415,1002,o),
(521,1002,cs),
(633,1002,o),
(768,946,o),
(799,813,c),
(889,858,l),
(847,1017,o),
(667,1084,o),
(526,1084,cs),
(355,1084,o),
(191,975,o),
(191,776,cs),
(191,627,o),
(325,577,o),
(456,528,cs),
(566,485,o),
(702,441,o),
(702,298,cs),
(702,148,o),
(586,65,o),
(460,65,cs),
(338,65,o),
(158,138,o),
(134,289,c)
);
}
);
width = 959;
}
);
leftKerningGroup = a;
rightKerningGroup = s1;
unicode = 115;
},
{
glyphname = t;
layers = (
{
layerId = "70095191-B7C5-4384-884C-B6DE2D335D53";
shapes = (
{
closed = 1;
nodes = (
(478,-22,o),
(574,-14,o),
(633,8,c),
(684,279,l),
(630,250,o),
(571,229,o),
(506,229,cs),
(458,229,o),
(412,237,o),
(412,298,cs),
(412,349,o),
(431,418,o),
(442,467,cs),
(526,828,l),
(806,828,l),
(863,1064,l),
(585,1064,l),
(691,1474,l),
(374,1302,l),
(316,1064,l),
(143,1064,l),
(87,828,l),
(257,828,l),
(144,315,ls),
(138,288,o),
(135,262,o),
(135,234,cs),
(135,66,o),
(261,-22,o),
(415,-22,cs)
);
}
);
width = 824;
},
{
layerId = "22EA05E5-9529-48D9-B1F8-A3D05D6A9FB7";
shapes = (
{
closed = 1;
nodes = (
(403.644,-17,o),
(470.832,-8,o),
(529.21,10,c),
(559.478,166,l),
(508.017,144,o),
(459.745,131,o),
(412.745,131,cs),
(351.745,131,o),
(318.248,155,o),
(319.568,218,cs),
(320.217,249,o),
(330.076,290,o),
(336.768,323,cs),
(472.339,923,l),
(728.339,923,l),
(764.293,1064,l),
(507.293,1064,l),
(594.732,1419,l),
(400.552,1315,l),
(342.293,1064,l),
(172.293,1064,l),
(137.339,923,l),
(307.339,923,l),
(159.427,259,ls),
(152.798,229,o),
(148.253,203,o),
(147.709,177,cs),
(144.943,45,o),
(231.644,-17,o),
(353.644,-17,cs)
);
}
);
width = 708;
},
{
layerId = "03B966DD-30AE-4CDF-A24A-6C10C63FDFF4";
shapes = (
{
closed = 1;
nodes = (
(353.511,-14,o),
(402.86,-4,o),
(459.419,12,c),
(474.143,90,l),
(424.584,74,o),
(383.305,66,o),
(348.305,66,cs),
(278.305,66,o),
(253.492,100,o),
(255.727,164,cs),
(256.356,182,o),
(259.159,205,o),
(263.927,227,cs),
(438.432,986,l),
(679.432,986,l),
(698.156,1064,l),
(456.156,1064,l),
(529.261,1382,l),
(419.2,1323,l),
(360.156,1064,l),
(192.156,1064,l),
(173.432,986,l),
(342.432,986,l),
(167.717,221,ls),
(160.635,190,o),
(155.727,164,o),
(154.854,139,cs),
(151.083,31,o),
(212.511,-14,o),
(312.511,-14,cs)
);
}
);
width = 630;
}
);
leftKerningGroup = t;
rightKerningGroup = t1;
unicode = 116;
},
{
glyphname = u;
layers = (
{
guides = (
{
angle = 257.394;
position = "{277, 1064}";
},
{
angle = 90;
position = "{701, 0}";
}
);
layerId = "70095191-B7C5-4384-884C-B6DE2D335D53";
shapes = (
{
closed = 1;
nodes = (
(519,-24,o),
(643,23,o),
(730,116,c),
(714,124,l),
(689,0,l),
(978,0,l),
(1223,1064,l),
(926,1064,l),
(813,570,ls),
(773,393,o),
(710,247,o),
(502,247,cs),
(431,247,o),
(364,261,o),
(364,349,cs),
(364,379,o),
(369,411,o),
(376,439,cs),
(519,1064,l),
(227,1064,l),
(123,609,ls),
(86,450,o),
(78,393,o),
(78,318,cs),
(78,115,o),
(186,-24,o),
(393,-24,cs)
);
}
);
width = 1242;
},
{
guides = (
{
angle = 257.394;
position = "{277, 1064}";
},
{
angle = 90;
position = "{701, 0}";
}
);
layerId = "22EA05E5-9529-48D9-B1F8-A3D05D6A9FB7";
shapes = (
{
closed = 1;
nodes = (
(585,-24,o),
(725,55,o),
(800,192,c),
(775,195,l),
(729,0,l),
(901,0,l),
(1145,1064,l),
(972,1064,l),
(816,411,ls),
(779,254,o),
(656,137,o),
(456,137,cs),
(349,137,o),
(281,181,o),
(281,288,cs),
(281,334,o),
(287,378,o),
(297,419,cs),
(444,1064,l),
(271,1064,l),
(145,505,ls),
(122,407,o),
(115,352,o),
(115,286,cs),
(115,95,o),
(211,-24,o),
(407,-24,cs)
);
}
);
width = 1196;
},
{
guides = (
{
angle = 257.394;
position = "{277, 1064}";
},
{
angle = 90;
position = "{701, 0}";
}
);
layerId = "03B966DD-30AE-4CDF-A24A-6C10C63FDFF4";
shapes = (
{
closed = 1;
nodes = (
(629,-24,o),
(779,76,o),
(847,243,c),
(815,243,l),
(756,0,l),
(850,0,l),
(1093,1064,l),
(1003,1064,l),
(818,305,ls),
(783,162,o),
(620,63,o),
(425,63,cs),
(295,63,o),
(226,128,o),
(226,248,cs),
(226,304,o),
(233,356,o),
(244,406,cs),
(394,1064,l),
(300,1064,l),
(159,435,l),
(146,379,o),
(139,324,o),
(139,265,cs),
(139,81,o),
(227,-24,o),
(416,-24,cs)
);
}
);
width = 1165;
}
);
leftKerningGroup = a;
rightKerningGroup = u1;
unicode = 117;
},
{
glyphname = v;
layers = (
{
layerId = "70095191-B7C5-4384-884C-B6DE2D335D53";
shapes = (
{
closed = 1;
nodes = (
(538,0,l),
(1227,1064,l),
(906,1064,l),
(499,376,l),
(414,1064,l),
(100,1064,l),
(301,0,l)
);
}
);
width = 1079;
},
{
layerId = "22EA05E5-9529-48D9-B1F8-A3D05D6A9FB7";
shapes = (
{
closed = 1;
nodes = (
(463,0,l),
(1111,1064,l),
(924,1064,l),
(434,221,l),
(341,1064,l),
(157,1064,l),
(314,0,l)
);
}
);
width = 1017;
},
{
layerId = "03B966DD-30AE-4CDF-A24A-6C10C63FDFF4";
shapes = (
{
closed = 1;
nodes = (
(425,0,l),
(1048,1064,l),
(945,1064,l),
(404,122,l),
(305,1064,l),
(201,1064,l),
(331,0,l)
);
}
);
width = 998;
}
);
leftKerningGroup = v;
unicode = 118;
},
{
glyphname = w;
layers = (
{
guides = (
{
angle = 90;
position = "{881, 0}";
}
);
layerId = "70095191-B7C5-4384-884C-B6DE2D335D53";
shapes = (
{
closed = 1;
nodes = (
(457,-5,l),
(804,645,l),
(850,0,l),
(1111,0,l),
(1695,1064,l),
(1381,1064,l),
(1064,458,l),
(1020,1064,l),
(771,1064,l),
(444,456,l),
(418,1064,l),
(122,1064,l),
(208,-5,l)
);
}
);
width = 1562;
},
{
guides = (
{
angle = 90;
position = "{881, 0}";
}
);
layerId = "22EA05E5-9529-48D9-B1F8-A3D05D6A9FB7";
shapes = (
{
closed = 1;
nodes = (
(383,-2,l),
(824,830,l),
(875,0,l),
(1040,0,l),
(1588,1064,l),
(1403,1064,l),
(1001,249,l),
(952,1064,l),
(796,1064,l),
(366,247,l),
(344,1064,l),
(170,1064,l),
(223,-2,l)
);
}
);
width = 1506;
},
{
guides = (
{
angle = 90;
position = "{881, 0}";
}
);
layerId = "03B966DD-30AE-4CDF-A24A-6C10C63FDFF4";
shapes = (
{
closed = 1;
nodes = (
(345,0,l),
(845,942,l),
(898,0,l),
(1004,0,l),
(1531,1064,l),
(1426,1064,l),
(971,120,l),
(918,1064,l),
(819,1064,l),
(328,118,l),
(306,1064,l),
(208,1064,l),
(240,0,l)
);
}
);
width = 1487;
}
);
leftKerningGroup = v;
rightKerningGroup = w1;
unicode = 119;
},
{
glyphname = x;
layers = (
{
layerId = "70095191-B7C5-4384-884C-B6DE2D335D53";
shapes = (
{
closed = 1;
nodes = (
(-130,0,l),
(233,0,l),
(525,344,l),
(764,537,l),
(1261,1064,l),
(896,1064,l),
(604,727,l),
(364,537,l)
);
},
{
closed = 1;
nodes = (
(514,373,l),
(654,0,l),
(1007,0,l),
(751,565,l)
);
},
{
closed = 1;
nodes = (
(615,698,l),
(472,1064,l),
(125,1064,l),
(377,509,l)
);
}
);
width = 1141;
},
{
layerId = "22EA05E5-9529-48D9-B1F8-A3D05D6A9FB7";
shapes = (
{
closed = 1;
nodes = (
(-72,0,l),
(143,0,l),
(523.947,427,l),
(637.853,518,l),
(1141.293,1064,l),
(925.293,1064,l),
(550.493,644,l),
(439.629,555,l)
);
},
{
closed = 1;
nodes = (
(500.198,439,l),
(694,0,l),
(900,0,l),
(634.775,562,l)
);
},
{
closed = 1;
nodes = (
(569.158,628,l),
(373.293,1064,l),
(169.293,1064,l),
(431.623,507,l)
);
}
);
width = 1046;
},
{
layerId = "03B966DD-30AE-4CDF-A24A-6C10C63FDFF4";
shapes = (
{
closed = 1;
nodes = (
(-33,0,l),
(83,0,l),
(525.867,483,l),
(552.67,506,l),
(1061.156,1064,l),
(945.156,1064,l),
(512.568,589,l),
(489.8,567,l)
);
},
{
closed = 1;
nodes = (
(491.867,483,l),
(720,0,l),
(829,0,l),
(556.556,560,l)
);
},
{
closed = 1;
nodes = (
(536.324,582,l),
(308.156,1064,l),
(199.156,1064,l),
(468.67,506,l)
);
}
);
width = 983;
}
);
unicode = 120;
},
{
glyphname = y;
layers = (
{
guides = (
{
angle = 90;
position = "{620, 0}";
}
);
layerId = "70095191-B7C5-4384-884C-B6DE2D335D53";
shapes = (
{
closed = 1;
nodes = (
(290,-440,l),
(1261,1064,l),
(936,1064,l),
(510,374,l),
(418,1064,l),
(103,1064,l),
(283,48,l),
(-34,-440,l)
);
}
);
width = 1121;
},
{
guides = (
{
angle = 90;
position = "{620, 0}";
}
);
layerId = "22EA05E5-9529-48D9-B1F8-A3D05D6A9FB7";
shapes = (
{
closed = 1;
nodes = (
(215,-441,l),
(1141,1064,l),
(952,1064,l),
(452,219,l),
(345,1064,l),
(157,1064,l),
(323,20,l),
(29,-441,l)
);
}
);
width = 1052;
},
{
guides = (
{
angle = 90;
position = "{620, 0}";
}
);
layerId = "03B966DD-30AE-4CDF-A24A-6C10C63FDFF4";
shapes = (
{
closed = 1;
nodes = (
(177,-441,l),
(1076,1064,l),
(971,1064,l),
(422,120,l),
(307,1064,l),
(201,1064,l),
(359,1,l),
(78,-441,l)
);
}
);
width = 1029;
}
);
leftKerningGroup = v;
rightKerningGroup = y1;
unicode = 121;
},
{
glyphname = z;
layers = (
{
guides = (
{
angle = 90;
position = "{623, 0}";
}
);
layerId = "70095191-B7C5-4384-884C-B6DE2D335D53";
shapes = (
{
closed = 1;
nodes = (
(898,0,l),
(954,234,l),
(400,234,l),
(1100,869,l),
(1144,1064,l),
(205,1064,l),
(148,828,l),
(697,828,l),
(-31,181,l),
(-71,0,l)
);
}
);
width = 1096;
},
{
guides = (
{
angle = 90;
position = "{623, 0}";
}
);
layerId = "22EA05E5-9529-48D9-B1F8-A3D05D6A9FB7";
shapes = (
{
closed = 1;
nodes = (
(796,0,l),
(830,140,l),
(201,140,l),
(1011,932,l),
(1040,1064,l),
(221,1064,l),
(189,929,l),
(799,929,l),
(-28,120,l),
(-54,0,l)
);
}
);
width = 1002;
},
{
guides = (
{
angle = 90;
position = "{623, 0}";
}
);
layerId = "03B966DD-30AE-4CDF-A24A-6C10C63FDFF4";
shapes = (
{
closed = 1;
nodes = (
(747,0,l),
(767,81,l),
(93,81,l),
(971,970,l),
(991,1064,l),
(244,1064,l),
(231,990,l),
(879,990,l),
(-11,82,l),
(-31,0,l)
);
}
);
width = 970;
}
);
leftKerningGroup = z;
rightKerningGroup = z1;
unicode = 122;
},
{
glyphname = braceleft;
layers = (
{
guides = (
{
angle = 78.14;
position = "{622, 942}";
},
{
angle = 78.14;
position = "{457, 942}";
},
{
angle = 78.14;
position = "{457, 942}";
}
);
layerId = "70095191-B7C5-4384-884C-B6DE2D335D53";
shapes = (
{
closed = 1;
nodes = (
(427,-169,l),
(469,14,l),
(398,14,ls),
(358,14,o),
(324,32,o),
(324,73,cs),
(324,104,o),
(327,129,o),
(339,180,cs),
(392,407,ls),
(400,444,o),
(407,479,o),
(407,513,cs),
(407,578,o),
(385,636,o),
(319,678,c),
(412,730,o),
(477,793,o),
(502,899,cs),
(622,1423,ls),
(630,1457,o),
(649,1475,o),
(677,1475,cs),
(804,1475,l),
(842,1640,l),
(694,1640,ls),
(507,1640,o),
(419,1550,o),
(378,1374,cs),
(278,938,ls),
(261,862,o),
(184,802,o),
(100,791,c),
(73,612,l),
(133,588,o),
(168,570,o),
(168,501,cs),
(168,477,o),
(164,448,o),
(155,410,cs),
(93,148,l),
(85,111,o),
(79,76,o),
(79,38,cs),
(79,-89,o),
(168,-169,o),
(310,-169,cs)
);
}
);
width = 637;
},
{
guides = (
{
angle = 78.14;
position = "{622, 942}";
},
{
angle = 78.14;
position = "{457, 942}";
},
{
angle = 78.14;
position = "{457, 942}";
}
);
layerId = "22EA05E5-9529-48D9-B1F8-A3D05D6A9FB7";
shapes = (
{
closed = 1;
nodes = (
(403,-131,l),
(423,-35,l),
(360,-35,ls),
(300,-35,o),
(267,-11,o),
(267,33,cs),
(267,61,o),
(271,80,o),
(278,118,c),
(339,390,ls),
(347,427,o),
(352,460,o),
(352,489,cs),
(352,565,o),
(319,619,o),
(221,657,c),
(385,716,o),
(433,770,o),
(466,927,cs),
(539,1263,ls),
(571,1409,o),
(614,1456,o),
(710,1456,cs),
(746,1456,l),
(768,1552,l),
(686,1552,ls),
(523,1552,o),
(443,1488,o),
(408,1332,cs),
(309,895,ls),
(291,816,o),
(228,759,o),
(131,735,c),
(115,612,l),
(182,582,o),
(205,539,o),
(205,484,cs),
(205,459,o),
(200,430,o),
(194,401,cs),
(130,118,l),
(124,89,o),
(118,62,o),
(118,36,cs),
(118,-65,o),
(206,-131,o),
(306,-131,cs)
);
}
);
width = 619;
},
{
guides = (
{
angle = 78.14;
position = "{622, 942}";
},
{
angle = 78.14;
position = "{457, 942}";
},
{
angle = 78.14;
position = "{457, 942}";
}
);
layerId = "03B966DD-30AE-4CDF-A24A-6C10C63FDFF4";
shapes = (
{
closed = 1;
nodes = (
(399,-101,l),
(406,-42,l),
(354,-42,ls),
(281,-42,o),
(237,-21,o),
(237,23,cs),
(237,60,o),
(241,61,o),
(253,112,cs),
(312,388,ls),
(320,425,o),
(325,454,o),
(325,481,cs),
(325,559,o),
(315,600,o),
(192,642,c),
(400,710,o),
(403,749,o),
(449,959,c),
(501,1219,l),
(539,1403,o),
(584,1434,o),
(714,1434,c),
(714,1434,l),
(722,1497,l),
(688,1497,ls),
(529,1497,o),
(458,1444,o),
(427,1305,cs),
(330,868,l),
(312,782,o),
(243,719,o),
(150,699,c),
(142,610,l),
(214,576,o),
(230,528,o),
(230,476,cs),
(230,440,o),
(223,405,o),
(213,365,c),
(153,99,l),
(149,78,o),
(145,58,o),
(145,34,cs),
(145,-46,o),
(233,-101,o),
(304,-101,cs)
);
}
);
width = 613;
}
);
unicode = 123;
},
{
glyphname = bar;
layers = (
{
layerId = "70095191-B7C5-4384-884C-B6DE2D335D53";
shapes = (
{
closed = 1;
nodes = (
(182,-524,l),
(667,1571,l),
(460,1571,l),
(-25,-524,l)
);
}
);
width = 636;
},
{
layerId = "22EA05E5-9529-48D9-B1F8-A3D05D6A9FB7";
shapes = (
{
closed = 1;
nodes = (
(143,-525,l),
(628,1571,l),
(507,1571,l),
(23,-525,l)
);
}
);
width = 644;
},
{
layerId = "03B966DD-30AE-4CDF-A24A-6C10C63FDFF4";
shapes = (
{
closed = 1;
nodes = (
(116,-525,l),
(601,1571,l),
(534,1571,l),
(50,-525,l)
);
}
);
width = 646;
}
);
unicode = 124;
},
{
glyphname = braceright;
layers = (
{
guides = (
{
position = "{0, 1640}";
},
{
angle = 78.14;
position = "{148, 942}";
}
);
layerId = "70095191-B7C5-4384-884C-B6DE2D335D53";
shapes = (
{
closed = 1;
nodes = (
(58,-169,ls),
(259,-169,o),
(330,-59,o),
(372,125,cs),
(455,492,ls),
(471,565,o),
(552,597,o),
(622,603,c),
(649,781,l),
(592,791,o),
(547,819,o),
(547,879,cs),
(547,903,o),
(575,1014,o),
(586,1061,cs),
(653,1352,ls),
(660,1384,o),
(665,1415,o),
(665,1448,cs),
(665,1586,o),
(579,1640,o),
(450,1640,cs),
(318,1640,l),
(283,1475,l),
(360,1475,ls),
(395,1475,o),
(417,1441,o),
(417,1380,cs),
(417,1355,o),
(413,1325,o),
(406,1291,c),
(321,924,ls),
(316,904,o),
(312,883,o),
(312,864,cs),
(312,794,o),
(343,741,o),
(403,703,c),
(332,667,o),
(244,602,o),
(226,520,cs),
(143,151,ls),
(127,77,o),
(91,19,o),
(6,19,cs),
(-51,19,l),
(-94,-169,l)
);
}
);
width = 637;
},
{
guides = (
{
position = "{0, 1640}";
},
{
angle = 78.14;
position = "{148, 942}";
}
);
layerId = "22EA05E5-9529-48D9-B1F8-A3D05D6A9FB7";
shapes = (
{
closed = 1;
nodes = (
(36,-131,ls),
(236,-131,o),
(288,11,o),
(311,114,cs),
(393,478,ls),
(406,539,o),
(470,576,o),
(562,605,c),
(578,730,l),
(516,748,o),
(480,788,o),
(480,834,cs),
(480,850,o),
(482,872,o),
(489,902,cs),
(586,1319,ls),
(593,1348,o),
(597,1374,o),
(597,1399,cs),
(597,1494,o),
(545,1552,o),
(414,1552,cs),
(317,1552,l),
(297,1456,l),
(367,1456,ls),
(420,1456,o),
(446,1423,o),
(446,1373,cs),
(446,1353,o),
(443,1340,o),
(438,1322,c),
(349,939,ls),
(336,885,o),
(334,863,o),
(334,832,cs),
(334,762,o),
(377,710,o),
(469,669,c),
(337,638,o),
(270,586,o),
(250,497,cs),
(164,124,ls),
(142,28,o),
(84,-35,o),
(-18,-35,cs),
(-59,-35,l),
(-81,-131,l)
);
}
);
width = 619;
},
{
guides = (
{
position = "{0, 1640}";
},
{
angle = 78.14;
position = "{148, 942}";
}
);
layerId = "03B966DD-30AE-4CDF-A24A-6C10C63FDFF4";
shapes = (
{
closed = 1;
nodes = (
(13,-101,ls),
(223,-101,o),
(267,55,o),
(277,110,c),
(355,470,l),
(368,526,o),
(407,570,o),
(526,607,c),
(536,696,l),
(474,710,o),
(438,748,o),
(438,798,cs),
(438,808,o),
(440,826,o),
(447,862,c),
(546,1300,l),
(551,1327,o),
(555,1349,o),
(555,1369,cs),
(555,1450,o),
(511,1497,o),
(393,1497,cs),
(321,1497,l),
(310,1434,l),
(382,1434,ls),
(439,1434,o),
(461,1401,o),
(461,1351,cs),
(461,1327,o),
(458,1314,o),
(453,1291,c),
(370,960,l),
(351,879,o),
(349,852,o),
(349,813,cs),
(349,741,o),
(370,689,o),
(481,648,c),
(328,630,o),
(289,584,o),
(265,482,cs),
(181,129,ls),
(155,18,o),
(88,-42,o),
(-31,-42,cs),
(-55,-42,l),
(-66,-101,l)
);
}
);
width = 613;
}
);
unicode = 125;
},
{
glyphname = asciitilde;
layers = (
{
layerId = "70095191-B7C5-4384-884C-B6DE2D335D53";
shapes = (
{
closed = 1;
nodes = (
(936,388,o),
(1018,477,o),
(1018,660,c),
(813,660,l),
(813,608,o),
(800,589,o),
(757,589,cs),
(695,589,o),
(564,667,o),
(407,667,cs),
(240,667,o),
(163,580,o),
(163,416,c),
(359,416,l),
(362,462,o),
(380,470,o),
(409,470,cs),
(490,470,o),
(594,388,o),
(751,388,cs)
);
}
);
width = 1182;
},
{
layerId = "22EA05E5-9529-48D9-B1F8-A3D05D6A9FB7";
shapes = (
{
closed = 1;
nodes = (
(923,389,o),
(984,508,o),
(984,659,c),
(866,659,l),
(866,587,o),
(857,503,o),
(768,503,cs),
(654,503,o),
(608,665,o),
(417,665,cs),
(273,665,o),
(215,545,o),
(215,416,c),
(324,416,l),
(324,483,o),
(337,555,o),
(419,555,cs),
(525,555,o),
(601,389,o),
(761,389,cs)
);
}
);
width = 1197;
},
{
layerId = "03B966DD-30AE-4CDF-A24A-6C10C63FDFF4";
shapes = (
{
closed = 1;
nodes = (
(919,389,o),
(961,533,o),
(961,657,c),
(896,657,l),
(896,574,o),
(880,448,o),
(770,448,cs),
(618,448,o),
(610,665,o),
(419,665,cs),
(288,665,o),
(242,526,o),
(242,418,c),
(299,418,l),
(299,498,o),
(318,610,o),
(421,610,cs),
(548,610,o),
(620,389,o),
(763,389,cs)
);
}
);
width = 1201;
}
);
unicode = 126;
},
{
glyphname = exclamdown;
layers = (
{
layerId = "70095191-B7C5-4384-884C-B6DE2D335D53";
shapes = (
{
closed = 1;
nodes = (
(525,730,l),
(590,1023,l),
(295,1023,l),
(230,730,l)
);
},
{
closed = 1;
nodes = (
(241,-444,l),
(444,569,l),
(233,569,l),
(-29,-444,l)
);
}
);
width = 650;
},
{
layerId = "22EA05E5-9529-48D9-B1F8-A3D05D6A9FB7";
shapes = (
{
closed = 1;
nodes = (
(499,816,l),
(546,1022,l),
(337,1022,l),
(290,816,l)
);
},
{
closed = 1;
nodes = (
(195,-446,l),
(413,626,l),
(289,626,l),
(12,-446,l)
);
}
);
width = 651;
},
{
layerId = "03B966DD-30AE-4CDF-A24A-6C10C63FDFF4";
shapes = (
{
closed = 1;
nodes = (
(484,871,l),
(516,1022,l),
(364,1022,l),
(328,871,l)
);
},
{
closed = 1;
nodes = (
(165,-448,l),
(394,660,l),
(323,660,l),
(37,-448,l)
);
}
);
width = 651;
}
);
unicode = 161;
},
{
glyphname = cent;
layers = (
{
layerId = "70095191-B7C5-4384-884C-B6DE2D335D53";
shapes = (
{
closed = 1;
nodes = (
(562,-210,l),
(611,-26,l),
(806,7,o),
(922,120,o),
(1022,282,c),
(814,394,l),
(757,277,o),
(680,193,o),
(541,193,cs),
(422,193,o),
(369,260,o),
(369,376,cs),
(369,567,o),
(495,825,o),
(714,825,cs),
(813,825,o),
(861,751,o),
(879,648,c),
(1134,719,l),
(1101,881,o),
(1016,1011,o),
(843,1038,c),
(895,1229,l),
(686,1229,l),
(636,1043,l),
(320,981,o),
(119,684,o),
(119,371,cs),
(119,180,o),
(210,24,o),
(406,-19,c),
(355,-210,l)
);
}
);
width = 1229;
},
{
layerId = "22EA05E5-9529-48D9-B1F8-A3D05D6A9FB7";
shapes = (
{
closed = 1;
nodes = (
(524,-211,l),
(573,-19,l),
(746,0,o),
(877,93,o),
(967,247,c),
(833,323,l),
(773,206,o),
(658,128,o),
(532,128,cs),
(386,128,o),
(329,224,o),
(329,359,cs),
(329,583,o),
(477,890,o),
(732,890,cs),
(844,890,o),
(923,826,o),
(927,711,c),
(1094,761,l),
(1061,916,o),
(954,1015,o),
(806,1036,c),
(856,1228,l),
(736,1228,l),
(686,1037,l),
(364,993,o),
(163,663,o),
(163,358,cs),
(163,165,o),
(251,11,o),
(455,-16,c),
(402,-211,l)
);
}
);
width = 1229;
},
{
layerId = "03B966DD-30AE-4CDF-A24A-6C10C63FDFF4";
shapes = (
{
closed = 1;
nodes = (
(501,-211,l),
(548,-15,l),
(721,-4,o),
(847,87,o),
(931,226,c),
(844,277,l),
(790,174,o),
(652,88,o),
(526,88,cs),
(359,88,o),
(304,199,o),
(304,348,cs),
(304,589,o),
(462,930,o),
(743,930,cs),
(848,930,o),
(950,860,o),
(957,749,c),
(1069,786,l),
(1042,918,o),
(920,1017,o),
(781,1034,c),
(833,1228,l),
(763,1228,l),
(713,1033,l),
(389,1004,o),
(190,648,o),
(190,350,cs),
(190,157,o),
(278,3,o),
(485,-14,c),
(432,-211,l)
);
}
);
width = 1229;
}
);
leftKerningGroup = a;
unicode = 162;
},
{
glyphname = sterling;
layers = (
{
layerId = "70095191-B7C5-4384-884C-B6DE2D335D53";
shapes = (
{
closed = 1;
nodes = (
(1045,0,l),
(1099,228,l),
(395,228,l),
(525,257,o),
(576,503,o),
(576,614,c),
(1021,614,l),
(1074,837,l),
(578,837,l),
(570,870,o),
(566,904,o),
(566,937,cs),
(566,1090,o),
(677,1251,o),
(842,1251,cs),
(945,1251,o),
(1016,1194,o),
(1031,1091,c),
(1256,1146,l),
(1237,1337,o),
(1073,1485,o),
(882,1485,cs),
(582,1485,o),
(341,1261,o),
(341,950,cs),
(341,911,o),
(344,874,o),
(350,837,c),
(171,837,l),
(118,614,l),
(350,614,l),
(350,407,o),
(204,295,o),
(26,229,c),
(-27,0,l)
);
}
);
width = 1229;
},
{
layerId = "22EA05E5-9529-48D9-B1F8-A3D05D6A9FB7";
shapes = (
{
closed = 1;
nodes = (
(1058,0,l),
(1091,141,l),
(271,141,l),
(463,257,o),
(530,436,o),
(530,654,c),
(984,654,l),
(1017,790,l),
(528,790,l),
(521,824,o),
(520,858,o),
(520,893,cs),
(520,1095,o),
(628,1325,o),
(857,1325,cs),
(972,1325,o),
(1059,1252,o),
(1076,1132,c),
(1216,1167,l),
(1191,1346,o),
(1048,1469,o),
(869,1469,cs),
(565,1469,o),
(382,1194,o),
(382,909,cs),
(382,869,o),
(385,830,o),
(392,790,c),
(199,790,l),
(166,654,l),
(392,654,l),
(392,400,o),
(265,263,o),
(43,125,c),
(15,0,l)
);
}
);
width = 1229;
},
{
layerId = "03B966DD-30AE-4CDF-A24A-6C10C63FDFF4";
shapes = (
{
closed = 1;
nodes = (
(1064,0,l),
(1085,84,l),
(191,84,l),
(419,246,o),
(500,398,o),
(500,677,c),
(961,677,l),
(979,760,l),
(496,760,l),
(489,799,o),
(490,835,o),
(490,872,cs),
(490,1093,o),
(601,1371,o),
(861,1371,cs),
(995,1371,o),
(1089,1284,o),
(1103,1157,c),
(1191,1182,l),
(1166,1344,o),
(1033,1458,o),
(867,1458,cs),
(563,1458,o),
(405,1160,o),
(405,890,cs),
(405,846,o),
(408,803,o),
(417,760,c),
(216,760,l),
(193,677,l),
(417,677,l),
(417,366,o),
(267,225,o),
(54,60,c),
(38,0,l)
);
}
);
width = 1229;
}
);
unicode = 163;
},
{
glyphname = currency;
layers = (
{
layerId = "70095191-B7C5-4384-884C-B6DE2D335D53";
shapes = (
{
closed = 1;
nodes = (
(851,120,l),
(1026,270,l),
(939,366,l),
(1033,468,o),
(1093,596,o),
(1093,738,cs),
(1093,795,o),
(1082,853,o),
(1058,906,c),
(1198,1023,l),
(1083,1166,l),
(943,1053,l),
(866,1113,o),
(779,1140,o),
(682,1140,cs),
(587,1140,o),
(495,1112,o),
(412,1064,c),
(327,1168,l),
(154,1019,l),
(239,923,l),
(146,821,o),
(87,689,o),
(87,550,cs),
(87,494,o),
(95,439,o),
(119,387,c),
(-22,270,l),
(91,120,l),
(233,240,l),
(311,179,o),
(401,152,o),
(499,152,cs),
(593,152,o),
(682,180,o),
(764,225,c)
);
},
{
closed = 1;
nodes = (
(393,361,o),
(299,447,o),
(299,575,cs),
(299,768,o),
(496,932,o),
(683,932,cs),
(807,932,o),
(902,847,o),
(902,720,cs),
(902,529,o),
(703,361,o),
(519,361,cs)
);
}
);
width = 1229;
},
{
layerId = "22EA05E5-9529-48D9-B1F8-A3D05D6A9FB7";
shapes = (
{
closed = 1;
nodes = (
(863,166,l),
(983,270,l),
(900,367,l),
(999,470,o),
(1063,604,o),
(1063,738,cs),
(1063,799,o),
(1049,859,o),
(1022,913,c),
(1155,1024,l),
(1075,1123,l),
(941,1012,l),
(869,1078,o),
(783,1108,o),
(684,1108,cs),
(584,1108,o),
(487,1075,o),
(400,1020,c),
(319,1125,l),
(200,1019,l),
(281,921,l),
(178,821,o),
(120,691,o),
(120,556,cs),
(120,495,o),
(133,434,o),
(161,381,c),
(23,270,l),
(103,166,l),
(239,279,l),
(312,212,o),
(400,182,o),
(500,182,cs),
(599,182,o),
(694,214,o),
(780,269,c)
);
},
{
closed = 1;
nodes = (
(364,323,o),
(257,412,o),
(257,555,cs),
(257,765,o),
(478,966,o),
(684,966,cs),
(824,966,o),
(928,873,o),
(928,731,cs),
(928,522,o),
(703,323,o),
(500,323,cs)
);
}
);
width = 1229;
},
{
layerId = "03B966DD-30AE-4CDF-A24A-6C10C63FDFF4";
shapes = (
{
closed = 1;
nodes = (
(869,193,l),
(953,268,l),
(877,369,l),
(967,462,o),
(1044,593,o),
(1044,738,cs),
(1044,799,o),
(1030,863,o),
(999,917,c),
(1125,1024,l),
(1071,1093,l),
(939,987,l),
(865,1059,o),
(781,1089,o),
(684,1089,cs),
(578,1089,o),
(476,1052,o),
(392,993,c),
(313,1095,l),
(227,1019,l),
(306,921,l),
(205,832,o),
(139,704,o),
(139,558,cs),
(139,497,o),
(154,432,o),
(186,377,c),
(50,268,l),
(109,193,l),
(241,304,l),
(314,231,o),
(402,201,o),
(500,201,cs),
(605,201,o),
(702,239,o),
(788,296,c)
);
},
{
closed = 1;
nodes = (
(339,300,o),
(230,393,o),
(230,542,cs),
(230,763,o),
(463,987,o),
(682,987,cs),
(830,987,o),
(943,890,o),
(943,737,cs),
(943,516,o),
(705,300,o),
(487,300,cs)
);
}
);
width = 1229;
}
);
unicode = 164;
},
{
glyphname = yen;
layers = (
{
layerId = "70095191-B7C5-4384-884C-B6DE2D335D53";
shapes = (
{
closed = 1;
nodes = (
(607,0,l),
(645,167,l),
(951,167,l),
(997,377,l),
(692,377,l),
(722,497,l),
(1028,497,l),
(1074,707,l),
(871,707,l),
(1524,1448,l),
(1238,1448,l),
(661,770,l),
(404,1448,l),
(126,1448,l),
(440,710,l),
(230,710,l),
(181,497,l),
(487,497,l),
(457,377,l),
(151,377,l),
(104,167,l),
(410,167,l),
(371,0,l)
);
}
);
width = 1229;
},
{
layerId = "22EA05E5-9529-48D9-B1F8-A3D05D6A9FB7";
shapes = (
{
closed = 1;
nodes = (
(573,0,l),
(639,290,l),
(948,290,l),
(976,417,l),
(668,417,l),
(698,540,l),
(1006,540,l),
(1035,667,l),
(788,667,l),
(1454,1448,l),
(1271,1448,l),
(661,731,l),
(384,1448,l),
(207,1448,l),
(515,667,l),
(266,667,l),
(236,540,l),
(543,540,l),
(513,417,l),
(206,417,l),
(178,290,l),
(485,290,l),
(418,0,l)
);
}
);
width = 1229;
},
{
layerId = "03B966DD-30AE-4CDF-A24A-6C10C63FDFF4";
shapes = (
{
closed = 1;
nodes = (
(550,0,l),
(631,366,l),
(942,366,l),
(959,440,l),
(649,440,l),
(679,567,l),
(989,567,l),
(1005,644,l),
(733,644,l),
(1408,1448,l),
(1288,1448,l),
(657,708,l),
(369,1448,l),
(256,1448,l),
(557,640,l),
(285,640,l),
(268,567,l),
(577,567,l),
(547,440,l),
(240,440,l),
(220,366,l),
(527,366,l),
(445,0,l)
);
}
);
width = 1229;
}
);
unicode = 165;
},
{
glyphname = brokenbar;
layers = (
{
layerId = "70095191-B7C5-4384-884C-B6DE2D335D53";
shapes = (
{
closed = 1;
nodes = (
(504,749,l),
(680,1510,l),
(444,1510,l),
(268,749,l)
);
},
{
closed = 1;
nodes = (
(259,-314,l),
(430,430,l),
(196,430,l),
(24,-314,l)
);
}
);
width = 664;
},
{
layerId = "22EA05E5-9529-48D9-B1F8-A3D05D6A9FB7";
shapes = (
{
closed = 1;
nodes = (
(435,749,l),
(611,1510,l),
(490,1510,l),
(314,749,l)
);
},
{
closed = 1;
nodes = (
(190,-315,l),
(362,429,l),
(240,429,l),
(69,-315,l)
);
}
);
width = 640;
},
{
layerId = "03B966DD-30AE-4CDF-A24A-6C10C63FDFF4";
shapes = (
{
closed = 1;
nodes = (
(397,751,l),
(573,1510,l),
(524,1510,l),
(348,751,l)
);
},
{
closed = 1;
nodes = (
(150,-315,l),
(322,427,l),
(272,427,l),
(101,-315,l)
);
}
);
width = 634;
}
);
unicode = 166;
},
{
glyphname = section;
layers = (
{
guides = (
{
angle = 346.464;
position = "{628, 450}";
},
{
angle = 346.464;
position = "{628, 1017}";
}
);
layerId = "70095191-B7C5-4384-884C-B6DE2D335D53";
shapes = (
{
closed = 1;
nodes = (
(783,-18,o),
(962,81,o),
(962,294,cs),
(962,489,o),
(774,580,o),
(657,610,cs),
(540,640,ls),
(492,652,o),
(441,688,o),
(441,739,cs),
(441,801,o),
(530,858,o),
(584,873,c),
(456,999,l),
(299,922,o),
(212,815,o),
(212,701,cs),
(212,599,o),
(293,513,o),
(419,480,cs),
(602,433,ls),
(653,420,o),
(732,375,o),
(732,315,cs),
(732,245,o),
(645,203,o),
(556,203,cs),
(469,203,o),
(375,256,o),
(344,354,c),
(120,208,l),
(192,69,o),
(358,-18,o),
(553,-18,cs)
);
},
{
closed = 1;
nodes = (
(849,447,l),
(988,519,o),
(1055,610,o),
(1055,732,cs),
(1055,867,o),
(986,944,o),
(827,985,cs),
(653,1030,ls),
(563,1054,o),
(529,1096,o),
(529,1149,cs),
(529,1218,o),
(598,1255,o),
(694,1255,cs),
(788,1255,o),
(870,1228,o),
(918,1175,c),
(1084,1320,l),
(996,1412,o),
(886,1468,o),
(724,1468,cs),
(477,1468,o),
(306,1344,o),
(306,1166,cs),
(306,960,o),
(505,880,o),
(633,847,cs),
(722,824,ls),
(762,814,o),
(824,787,o),
(824,731,cs),
(824,666,o),
(771,605,o),
(685,578,c)
);
}
);
width = 1124;
},
{
guides = (
{
angle = 346.464;
position = "{628, 450}";
},
{
angle = 346.464;
position = "{628, 1017}";
}
);
layerId = "22EA05E5-9529-48D9-B1F8-A3D05D6A9FB7";
shapes = (
{
closed = 1;
nodes = (
(773,-18,o),
(925,101,o),
(925,291,cs),
(925,453,o),
(829,522,o),
(654,564,cs),
(578,582,ls),
(491,602,o),
(407,631,o),
(407,714,cs),
(407,815,o),
(501,905,o),
(589,936,c),
(471,1005,l),
(336,917,o),
(262,808,o),
(262,692,cs),
(262,552,o),
(389,503,o),
(502,477,cs),
(613,450,ls),
(703,428,o),
(776,397,o),
(776,286,cs),
(776,190,o),
(681,122,o),
(529,122,cs),
(417,122,o),
(285,184,o),
(272,314,c),
(130,222,l),
(181,64,o),
(370,-18,o),
(526,-18,cs)
);
},
{
closed = 1;
nodes = (
(814,459,l),
(941,521,o),
(1023,623,o),
(1023,747,cs),
(1023,863,o),
(961,938,o),
(843,967,cs),
(705,1001,ls),
(562,1036,o),
(503,1079,o),
(503,1168,cs),
(503,1276,o),
(614,1338,o),
(737,1338,cs),
(852,1338,o),
(942,1271,o),
(972,1176,c),
(1096,1252,l),
(1054,1382,o),
(932,1468,o),
(730,1468,cs),
(526,1468,o),
(363,1355,o),
(363,1162,cs),
(363,1024,o),
(476,940,o),
(617,905,cs),
(779,866,ls),
(847,849,o),
(880,807,o),
(880,745,cs),
(880,647,o),
(801,570,o),
(685,540,c)
);
}
);
width = 1160;
},
{
guides = (
{
angle = 346.464;
position = "{628, 450}";
},
{
angle = 346.464;
position = "{628, 1017}";
}
);
layerId = "03B966DD-30AE-4CDF-A24A-6C10C63FDFF4";
shapes = (
{
closed = 1;
nodes = (
(748,-18,o),
(895,95,o),
(895,276,cs),
(895,432,o),
(824,496,o),
(617,542,cs),
(590,548,ls),
(483,572,o),
(377,593,o),
(377,699,cs),
(377,830,o),
(503,939,o),
(604,963,c),
(528,1011,l),
(378,928,o),
(287,804,o),
(287,677,cs),
(287,510,o),
(425,505,o),
(555,470,cs),
(581,463,ls),
(699,431,o),
(795,403,o),
(795,263,cs),
(795,163,o),
(719,71,o),
(518,71,cs),
(383,71,o),
(207,131,o),
(221,289,c),
(124,276,l),
(142,83,o),
(275,-18,o),
(511,-18,cs)
);
},
{
closed = 1;
nodes = (
(749,461,l),
(905,515,o),
(1000,638,o),
(1000,762,cs),
(1000,876,o),
(955,938,o),
(849,961,cs),
(724,988,ls),
(498,1037,o),
(482,1092,o),
(482,1183,cs),
(482,1303,o),
(608,1393,o),
(748,1393,cs),
(886,1393,o),
(989,1305,o),
(1011,1182,c),
(1098,1206,l),
(1079,1367,o),
(966,1468,o),
(745,1468,cs),
(556,1468,o),
(393,1359,o),
(393,1164,cs),
(393,1027,o),
(508,953,o),
(634,923,cs),
(806,882,ls),
(874,866,o),
(910,826,o),
(910,747,cs),
(910,636,o),
(839,553,o),
(685,506,c)
);
}
);
width = 1171;
}
);
unicode = 167;
},
{
glyphname = dieresis;
layers = (
{
layerId = "70095191-B7C5-4384-884C-B6DE2D335D53";
shapes = (
{
closed = 1;
nodes = (
(470,1192,l),
(525,1433,l),
(303,1433,l),
(249,1192,l)
);
},
{
closed = 1;
nodes = (
(838,1192,l),
(893,1433,l),
(671,1433,l),
(617,1192,l)
);
}
);
width = 771;
},
{
layerId = "22EA05E5-9529-48D9-B1F8-A3D05D6A9FB7";
shapes = (
{
closed = 1;
nodes = (
(454,1193,l),
(500,1392,l),
(324,1392,l),
(278,1193,l)
);
},
{
closed = 1;
nodes = (
(802,1193,l),
(848,1392,l),
(671,1392,l),
(626,1193,l)
);
}
);
width = 713;
},
{
layerId = "03B966DD-30AE-4CDF-A24A-6C10C63FDFF4";
shapes = (
{
closed = 1;
nodes = (
(547,1193,l),
(589,1367,l),
(440,1367,l),
(401,1193,l)
);
},
{
closed = 1;
nodes = (
(884,1193,l),
(926,1367,l),
(778,1367,l),
(737,1193,l)
);
}
);
width = 692;
}
);
leftKerningGroup = dieresis;
rightKerningGroup = dieresis1;
unicode = 168;
},
{
glyphname = copyright;
layers = (
{
layerId = "70095191-B7C5-4384-884C-B6DE2D335D53";
shapes = (
{
closed = 1;
nodes = (
(1325,-31,o),
(1675,260,o),
(1675,713,cs),
(1675,1165,o),
(1325,1458,o),
(895,1458,cs),
(465,1458,o),
(115,1165,o),
(115,713,cs),
(115,260,o),
(465,-31,o),
(895,-31,cs)
);
},
{
closed = 1;
nodes = (
(563,150,o),
(293,365,o),
(293,713,cs),
(293,1063,o),
(563,1278,o),
(895,1278,cs),
(1229,1278,o),
(1497,1063,o),
(1497,713,cs),
(1497,365,o),
(1229,150,o),
(895,150,cs)
);
},
{
closed = 1;
nodes = (
(1083,295,o),
(1210,389,o),
(1262,543,c),
(1049,625,l),
(1032,561,o),
(983,512,o),
(913,512,cs),
(799,512,o),
(758,612,o),
(758,711,cs),
(758,809,o),
(801,915,o),
(913,915,cs),
(985,915,o),
(1034,860,o),
(1049,799,c),
(1272,885,l),
(1210,1051,o),
(1079,1130,o),
(913,1130,cs),
(645,1130,o),
(520,922,o),
(520,711,cs),
(520,506,o),
(643,295,o),
(915,295,cs)
);
}
);
width = 1789;
},
{
layerId = "22EA05E5-9529-48D9-B1F8-A3D05D6A9FB7";
shapes = (
{
closed = 1;
nodes = (
(1326,-44,o),
(1660,289,o),
(1660,720,cs),
(1660,1150,o),
(1323,1483,o),
(899,1483,cs),
(473,1483,o),
(137,1149,o),
(137,720,cs),
(137,286,o),
(471,-44,o),
(899,-44,cs)
);
},
{
closed = 1;
nodes = (
(542,74,o),
(253,361,o),
(253,720,cs),
(253,1077,o),
(544,1365,o),
(899,1365,cs),
(1254,1365,o),
(1544,1077,o),
(1544,720,cs),
(1544,361,o),
(1256,74,o),
(899,74,cs)
);
},
{
closed = 1;
nodes = (
(1059,315,o),
(1175,388,o),
(1226,512,c),
(1098,563,l),
(1067,492,o),
(992,448,o),
(915,448,cs),
(758,448,o),
(694,579,o),
(694,718,cs),
(694,855,o),
(761,989,o),
(916,989,cs),
(997,989,o),
(1068,943,o),
(1099,875,c),
(1230,926,l),
(1178,1050,o),
(1050,1120,o),
(916,1120,cs),
(671,1120,o),
(556,932,o),
(556,718,cs),
(556,508,o),
(668,315,o),
(917,315,cs)
);
}
);
width = 1796;
},
{
layerId = "03B966DD-30AE-4CDF-A24A-6C10C63FDFF4";
shapes = (
{
closed = 1;
nodes = (
(1326,-53,o),
(1650,309,o),
(1650,724,cs),
(1650,1140,o),
(1322,1500,o),
(901,1500,cs),
(479,1500,o),
(152,1138,o),
(152,724,cs),
(152,304,o),
(475,-53,o),
(901,-53,cs)
);
},
{
closed = 1;
nodes = (
(528,24,o),
(226,358,o),
(226,724,cs),
(226,1087,o),
(532,1423,o),
(901,1423,cs),
(1271,1423,o),
(1575,1087,o),
(1575,724,cs),
(1575,358,o),
(1274,24,o),
(901,24,cs)
);
},
{
closed = 1;
nodes = (
(1043,329,o),
(1151,388,o),
(1202,492,c),
(1131,521,l),
(1090,446,o),
(998,406,o),
(916,406,cs),
(731,406,o),
(652,557,o),
(652,722,cs),
(652,885,o),
(734,1038,o),
(918,1038,cs),
(1005,1038,o),
(1090,998,o),
(1133,925,c),
(1202,954,l),
(1156,1050,o),
(1031,1113,o),
(918,1113,cs),
(689,1113,o),
(580,939,o),
(580,722,cs),
(580,510,o),
(684,329,o),
(918,329,cs)
);
}
);
width = 1801;
}
);
unicode = 169;
},
{
glyphname = ordfeminine;
layers = (
{
layerId = "70095191-B7C5-4384-884C-B6DE2D335D53";
shapes = (
{
closed = 1;
nodes = (
(453,726,o),
(534,750,o),
(605,807,c),
(587,740,l),
(734,740,l),
(834,1164,ls),
(840,1189,o),
(843,1213,o),
(843,1239,cs),
(843,1396,o),
(726,1468,o),
(582,1468,cs),
(432,1468,o),
(338,1411,o),
(237,1305,c),
(354,1196,l),
(408,1258,o),
(483,1317,o),
(569,1317,cs),
(629,1317,o),
(685,1305,o),
(685,1234,cs),
(685,1219,o),
(684,1186,o),
(681,1171,c),
(479,1171,ls),
(311,1171,o),
(140,1117,o),
(140,920,cs),
(140,793,o),
(244,726,o),
(375,726,cs)
);
},
{
closed = 1;
nodes = (
(371,878,o),
(311,896,o),
(311,944,cs),
(311,988,o),
(361,1042,o),
(418,1042,cs),
(647,1042,l),
(595,927,o),
(515,878,o),
(425,878,cs)
);
}
);
width = 771;
},
{
layerId = "22EA05E5-9529-48D9-B1F8-A3D05D6A9FB7";
shapes = (
{
closed = 1;
nodes = (
(600,727,o),
(674,773,o),
(752,852,c),
(727,741,l),
(831,741,l),
(931,1173,ls),
(937,1201,o),
(941,1228,o),
(941,1255,cs),
(941,1399,o),
(837,1468,o),
(702,1468,cs),
(572,1468,o),
(481,1421,o),
(392,1327,c),
(480,1253,l),
(535,1319,o),
(621,1365,o),
(697,1365,cs),
(782,1365,o),
(826,1328,o),
(826,1247,cs),
(826,1220,o),
(822,1186,o),
(815,1158,c),
(558,1158,l),
(398,1157,o),
(275,1066,o),
(275,905,cs),
(275,789,o),
(365,727,o),
(492,727,cs)
);
},
{
closed = 1;
nodes = (
(450,834,o),
(404,859,o),
(404,922,cs),
(404,997,o),
(473,1056,o),
(597,1056,cs),
(792,1056,l),
(758,930,o),
(643,834,o),
(516,834,cs)
);
}
);
width = 1006;
},
{
layerId = "03B966DD-30AE-4CDF-A24A-6C10C63FDFF4";
shapes = (
{
closed = 1;
nodes = (
(651,727,o),
(716,771,o),
(809,879,c),
(782,741,l),
(854,741,l),
(956,1179,ls),
(962,1207,o),
(966,1234,o),
(966,1266,cs),
(966,1401,o),
(869,1468,o),
(742,1468,cs),
(625,1468,o),
(536,1425,o),
(453,1342,c),
(522,1289,l),
(565,1342,o),
(663,1395,o),
(743,1395,cs),
(831,1395,o),
(879,1349,o),
(879,1255,cs),
(879,1218,o),
(873,1180,o),
(866,1143,c),
(564,1143,l),
(409,1144,o),
(326,1032,o),
(326,894,cs),
(326,787,o),
(418,727,o),
(543,727,cs)
);
},
{
closed = 1;
nodes = (
(496,804,o),
(417,836,o),
(417,920,cs),
(417,995,o),
(467,1065,o),
(634,1065,cs),
(845,1065,l),
(817,943,o),
(660,804,o),
(543,804,cs)
);
}
);
width = 1082;
}
);
unicode = 170;
},
{
glyphname = guillemotleft;
layers = (
{
layerId = "70095191-B7C5-4384-884C-B6DE2D335D53";
shapes = (
{
closed = 1;
nodes = (
(375,151,l),
(425,382,l),
(278,521,l),
(493,665,l),
(542,896,l),
(1,521,l)
);
},
{
closed = 1;
nodes = (
(745,151,l),
(795,382,l),
(650,521,l),
(863,665,l),
(913,896,l),
(373,521,l)
);
}
);
width = 971;
},
{
layerId = "22EA05E5-9529-48D9-B1F8-A3D05D6A9FB7";
shapes = (
{
closed = 1;
nodes = (
(378,188,l),
(413,357,l),
(256,523,l),
(493,689,l),
(529,858,l),
(69,523,l)
);
},
{
closed = 1;
nodes = (
(751,187,l),
(787,357,l),
(629,523,l),
(866,689,l),
(902,858,l),
(441,523,l)
);
}
);
width = 997;
},
{
layerId = "03B966DD-30AE-4CDF-A24A-6C10C63FDFF4";
shapes = (
{
closed = 1;
nodes = (
(376,211,l),
(402,342,l),
(239,525,l),
(491,704,l),
(516,835,l),
(107,523,l)
);
},
{
closed = 1;
nodes = (
(751,210,l),
(776,342,l),
(612,525,l),
(864,704,l),
(891,835,l),
(481,523,l)
);
}
);
width = 1005;
}
);
rightKerningGroup = guillemotleft;
unicode = 171;
},
{
glyphname = logicalnot;
layers = (
{
layerId = "70095191-B7C5-4384-884C-B6DE2D335D53";
shapes = (
{
closed = 1;
nodes = (
(1124,298,l),
(1124,816,l),
(131,816,l),
(131,567,l),
(856,567,l),
(856,298,l)
);
}
);
width = 1333;
},
{
layerId = "22EA05E5-9529-48D9-B1F8-A3D05D6A9FB7";
shapes = (
{
closed = 1;
nodes = (
(1068,298,l),
(1068,815,l),
(160,815,l),
(160,667,l),
(913,667,l),
(913,298,l)
);
}
);
width = 1325;
},
{
layerId = "03B966DD-30AE-4CDF-A24A-6C10C63FDFF4";
shapes = (
{
closed = 1;
nodes = (
(1034,298,l),
(1034,813,l),
(179,813,l),
(179,730,l),
(949,730,l),
(949,298,l)
);
}
);
width = 1323;
}
);
unicode = 172;
},
{
glyphname = softhyphen;
layers = (
{
guides = (
{
angle = 256.921;
position = "{216, 707}";
},
{
angle = 76.921;
position = "{848, 608}";
},
{
position = "{0, 608}";
},
{
position = "{0, 707}";
}
);
layerId = "70095191-B7C5-4384-884C-B6DE2D335D53";
shapes = (
{
closed = 1;
nodes = (
(963,500,l),
(1026,770,l),
(128,770,l),
(65,500,l)
);
}
);
width = 1034;
},
{
guides = (
{
angle = 256.921;
position = "{216, 707}";
},
{
angle = 76.921;
position = "{848, 608}";
},
{
position = "{0, 608}";
},
{
position = "{0, 707}";
}
);
layerId = "22EA05E5-9529-48D9-B1F8-A3D05D6A9FB7";
shapes = (
{
closed = 1;
nodes = (
(860,583,l),
(890,707,l),
(209,707,l),
(180,583,l)
);
}
);
width = 1007;
},
{
guides = (
{
angle = 256.921;
position = "{216, 707}";
},
{
angle = 76.921;
position = "{848, 608}";
},
{
position = "{0, 608}";
},
{
position = "{0, 707}";
}
);
layerId = "03B966DD-30AE-4CDF-A24A-6C10C63FDFF4";
shapes = (
{
closed = 1;
nodes = (
(841,636,l),
(856,707,l),
(230,707,l),
(214,636,l)
);
}
);
width = 996;
}
);
leftKerningGroup = endash;
rightKerningGroup = endash1;
unicode = 173;
},
{
glyphname = registered;
layers = (
{
layerId = "70095191-B7C5-4384-884C-B6DE2D335D53";
shapes = (
{
closed = 1;
nodes = (
(1325,-21,o),
(1675,270,o),
(1675,723,cs),
(1675,1175,o),
(1325,1468,o),
(895,1468,cs),
(465,1468,o),
(115,1175,o),
(115,723,cs),
(115,270,o),
(465,-21,o),
(895,-21,cs)
);
},
{
closed = 1;
nodes = (
(563,160,o),
(293,375,o),
(293,723,cs),
(293,1073,o),
(563,1288,o),
(895,1288,cs),
(1229,1288,o),
(1497,1073,o),
(1497,723,cs),
(1497,375,o),
(1229,160,o),
(895,160,cs)
);
},
{
closed = 1;
nodes = (
(631,307,l),
(817,307,l),
(817,653,l),
(872,653,l),
(1069,307,l),
(1286,307,l),
(1059,669,l),
(1151,710,o),
(1208,796,o),
(1208,887,cs),
(1208,1034,o),
(1085,1140,o),
(911,1140,cs),
(631,1140,l)
);
},
{
closed = 1;
nodes = (
(817,971,l),
(913,971,ls),
(981,971,o),
(1020,936,o),
(1020,882,cs),
(1020,839,o),
(983,807,o),
(930,807,cs),
(817,807,l)
);
}
);
width = 1789;
},
{
layerId = "22EA05E5-9529-48D9-B1F8-A3D05D6A9FB7";
shapes = (
{
closed = 1;
nodes = (
(1326,-39,o),
(1660,295,o),
(1660,725,cs),
(1660,1155,o),
(1323,1488,o),
(899,1488,cs),
(473,1488,o),
(137,1154,o),
(137,725,cs),
(137,292,o),
(471,-39,o),
(899,-39,cs)
);
},
{
closed = 1;
nodes = (
(536,75,o),
(247,361,o),
(247,725,cs),
(247,1089,o),
(538,1376,o),
(899,1376,cs),
(1260,1376,o),
(1549,1088,o),
(1549,725,cs),
(1549,361,o),
(1261,75,o),
(899,75,cs)
);
},
{
closed = 1;
nodes = (
(648,315,l),
(773,315,l),
(773,666,l),
(917,666,l),
(1107,315,l),
(1253,315,l),
(1036,674,l),
(1152,699,o),
(1208,782,o),
(1208,889,cs),
(1208,1048,o),
(1101,1126,o),
(938,1126,cs),
(648,1126,l)
);
},
{
closed = 1;
nodes = (
(773,1014,l),
(939,1014,ls),
(1024,1014,o),
(1089,980,o),
(1089,887,cs),
(1089,802,o),
(1021,769,o),
(946,769,cs),
(773,769,l)
);
}
);
width = 1796;
},
{
layerId = "03B966DD-30AE-4CDF-A24A-6C10C63FDFF4";
shapes = (
{
closed = 1;
nodes = (
(1326,-51,o),
(1650,311,o),
(1650,726,cs),
(1650,1142,o),
(1322,1502,o),
(901,1502,cs),
(479,1502,o),
(152,1140,o),
(152,726,cs),
(152,306,o),
(475,-51,o),
(901,-51,cs)
);
},
{
closed = 1;
nodes = (
(518,18,o),
(217,351,o),
(217,726,cs),
(217,1100,o),
(521,1434,o),
(901,1434,cs),
(1281,1434,o),
(1583,1098,o),
(1583,726,cs),
(1583,351,o),
(1282,18,o),
(901,18,cs)
);
},
{
closed = 1;
nodes = (
(660,320,l),
(743,320,l),
(743,674,l),
(947,674,l),
(1132,320,l),
(1231,320,l),
(1021,677,l),
(1153,691,o),
(1208,773,o),
(1208,891,cs),
(1208,1057,o),
(1111,1116,o),
(956,1116,cs),
(660,1116,l)
);
},
{
closed = 1;
nodes = (
(743,1042,l),
(956,1042,ls),
(1053,1042,o),
(1135,1009,o),
(1135,890,cs),
(1135,777,o),
(1047,744,o),
(956,744,cs),
(743,744,l)
);
}
);
width = 1801;
}
);
unicode = 174;
},
{
glyphname = macron;
layers = (
{
layerId = "70095191-B7C5-4384-884C-B6DE2D335D53";
shapes = (
{
closed = 1;
nodes = (
(283,1252,l),
(861,1252,l),
(896,1403,l),
(318,1403,l)
);
}
);
width = 848;
},
{
layerId = "22EA05E5-9529-48D9-B1F8-A3D05D6A9FB7";
shapes = (
{
closed = 1;
nodes = (
(338,1253,l),
(893,1253,l),
(923,1381,l),
(369,1381,l)
);
}
);
width = 891;
},
{
layerId = "03B966DD-30AE-4CDF-A24A-6C10C63FDFF4";
shapes = (
{
closed = 1;
nodes = (
(357,1250,l),
(897,1250,l),
(925,1366,l),
(384,1366,l)
);
}
);
width = 906;
}
);
unicode = 175;
},
{
glyphname = degree;
layers = (
{
layerId = "70095191-B7C5-4384-884C-B6DE2D335D53";
shapes = (
{
closed = 1;
nodes = (
(674,868,o),
(802,990,o),
(802,1161,cs),
(802,1342,o),
(681,1468,o),
(508,1468,cs),
(333,1468,o),
(202,1344,o),
(202,1176,cs),
(202,998,o),
(324,868,o),
(494,868,cs)
);
},
{
closed = 1;
nodes = (
(441,1059,o),
(392,1108,o),
(392,1168,cs),
(392,1228,o),
(441,1278,o),
(501,1278,cs),
(567,1278,o),
(614,1233,o),
(614,1168,cs),
(614,1103,o),
(568,1059,o),
(501,1059,cs)
);
}
);
width = 701;
},
{
layerId = "22EA05E5-9529-48D9-B1F8-A3D05D6A9FB7";
shapes = (
{
closed = 1;
nodes = (
(707,868,o),
(838,1001,o),
(838,1169,cs),
(838,1336,o),
(706,1470,o),
(538,1470,cs),
(371,1470,o),
(237,1337,o),
(237,1169,cs),
(237,998,o),
(367,868,o),
(538,868,cs)
);
},
{
closed = 1;
nodes = (
(429,975,o),
(345,1060,o),
(345,1169,cs),
(345,1275,o),
(432,1363,o),
(538,1363,cs),
(644,1363,o),
(731,1274,o),
(731,1169,cs),
(731,1063,o),
(644,975,o),
(538,975,cs)
);
}
);
width = 772;
},
{
layerId = "03B966DD-30AE-4CDF-A24A-6C10C63FDFF4";
shapes = (
{
closed = 1;
nodes = (
(718,866,o),
(849,999,o),
(849,1169,cs),
(849,1338,o),
(717,1470,o),
(549,1470,cs),
(377,1470,o),
(243,1339,o),
(243,1169,cs),
(243,994,o),
(373,866,o),
(549,866,cs)
);
},
{
closed = 1;
nodes = (
(410,922,o),
(301,1030,o),
(301,1169,cs),
(301,1302,o),
(415,1416,o),
(549,1416,cs),
(678,1416,o),
(790,1301,o),
(790,1169,cs),
(790,1033,o),
(682,922,o),
(549,922,cs)
);
}
);
width = 787;
}
);
unicode = 176;
},
{
glyphname = plusminus;
layers = (
{
layerId = "70095191-B7C5-4384-884C-B6DE2D335D53";
shapes = (
{
closed = 1;
nodes = (
(788,109,l),
(788,532,l),
(1255,532,l),
(1255,745,l),
(788,745,l),
(788,1170,l),
(577,1170,l),
(577,745,l),
(110,745,l),
(110,532,l),
(577,532,l),
(577,109,l)
);
},
{
closed = 1;
nodes = (
(1252,-211,l),
(1252,0,l),
(112,0,l),
(112,-211,l)
);
}
);
width = 1364;
},
{
layerId = "22EA05E5-9529-48D9-B1F8-A3D05D6A9FB7";
shapes = (
{
closed = 1;
nodes = (
(743,109,l),
(743,579,l),
(1211,579,l),
(1211,703,l),
(743,703,l),
(743,1170,l),
(617,1170,l),
(617,703,l),
(150,703,l),
(150,579,l),
(617,579,l),
(617,109,l)
);
},
{
closed = 1;
nodes = (
(1210,-127,l),
(1210,-2,l),
(151,-2,l),
(151,-127,l)
);
}
);
width = 1361;
},
{
layerId = "03B966DD-30AE-4CDF-A24A-6C10C63FDFF4";
shapes = (
{
closed = 1;
nodes = (
(713,109,l),
(713,606,l),
(1184,606,l),
(1184,676,l),
(713,676,l),
(713,1168,l),
(644,1168,l),
(644,676,l),
(175,676,l),
(175,606,l),
(644,606,l),
(644,109,l)
);
},
{
closed = 1;
nodes = (
(1183,-74,l),
(1183,-4,l),
(174,-4,l),
(174,-74,l)
);
}
);
width = 1359;
}
);
unicode = 177;
},
{
glyphname = acute;
layers = (
{
layerId = "70095191-B7C5-4384-884C-B6DE2D335D53";
shapes = (
{
closed = 1;
nodes = (
(368,1192,l),
(759,1507,l),
(467,1507,l),
(165,1192,l)
);
}
);
width = 550;
},
{
layerId = "22EA05E5-9529-48D9-B1F8-A3D05D6A9FB7";
shapes = (
{
closed = 1;
nodes = (
(353,1192,l),
(706,1493,l),
(498,1493,l),
(207,1192,l)
);
}
);
width = 550;
},
{
layerId = "03B966DD-30AE-4CDF-A24A-6C10C63FDFF4";
shapes = (
{
closed = 1;
nodes = (
(347,1192,l),
(676,1480,l),
(521,1480,l),
(239,1192,l)
);
}
);
width = 550;
}
);
leftKerningGroup = acute;
rightKerningGroup = acute1;
unicode = 180;
},
{
glyphname = micro;
layers = (
{
layerId = "70095191-B7C5-4384-884C-B6DE2D335D53";
shapes = (
{
closed = 1;
nodes = (
(589,-24,o),
(703,16,o),
(788,94,c),
(769,0,l),
(1058,0,l),
(1303,1064,l),
(1006,1064,l),
(893,570,ls),
(853,393,o),
(790,247,o),
(582,247,cs),
(511,247,o),
(444,261,o),
(444,349,cs),
(444,379,o),
(450,411,o),
(456,439,cs),
(599,1064,l),
(307,1064,l),
(-22,-266,l),
(251,-266,l),
(342,-2,l),
(380,-16,o),
(424,-24,o),
(473,-24,cs)
);
}
);
width = 1373;
},
{
layerId = "22EA05E5-9529-48D9-B1F8-A3D05D6A9FB7";
shapes = (
{
closed = 1;
nodes = (
(667,-24,o),
(816,58,o),
(894,164,c),
(853,0,l),
(1028,0,l),
(1273,1064,l),
(1097,1064,l),
(959,462,ls),
(921,296,o),
(736,130,o),
(562,130,cs),
(452,130,o),
(404,184,o),
(404,289,cs),
(404,331,o),
(413,371,o),
(422,415,cs),
(568,1064,l),
(394,1064,l),
(84,-273,l),
(237,-273,l),
(337,31,l),
(395,-7,o),
(459,-24,o),
(529,-24,cs)
);
}
);
width = 1383;
},
{
layerId = "03B966DD-30AE-4CDF-A24A-6C10C63FDFF4";
shapes = (
{
closed = 1;
nodes = (
(684,-24,o),
(862,90,o),
(938,227,c),
(883,0,l),
(1005,0,l),
(1250,1064,l),
(1129,1064,l),
(986,449,l),
(944,271,o),
(747,75,o),
(556,75,cs),
(429,75,o),
(374,138,o),
(374,266,cs),
(374,320,o),
(386,369,o),
(397,417,cs),
(543,1064,l),
(426,1064,l),
(114,-273,l),
(212,-273,l),
(318,46,l),
(380,-5,o),
(453,-24,o),
(531,-24,cs)
);
}
);
width = 1387;
}
);
unicode = 181;
},
{
glyphname = paragraph;
layers = (
{
layerId = "70095191-B7C5-4384-884C-B6DE2D335D53";
shapes = (
{
closed = 1;
nodes = (
(520,-252,l),
(912,1448,l),
(712,1448,ls),
(445,1448,o),
(164,1257,o),
(164,970,cs),
(164,754,o),
(347,639,o),
(547,639,c),
(335,-252,l)
);
},
{
closed = 1;
nodes = (
(876,-252,l),
(1268,1448,l),
(1080,1448,l),
(688,-252,l)
);
}
);
width = 1262;
},
{
layerId = "22EA05E5-9529-48D9-B1F8-A3D05D6A9FB7";
shapes = (
{
closed = 1;
nodes = (
(557,-252,l),
(949,1447,l),
(800,1447,ls),
(526,1447,o),
(242,1255,o),
(242,959,cs),
(242,745,o),
(434,639,o),
(627,639,c),
(415,-252,l)
);
},
{
closed = 1;
nodes = (
(932,-252,l),
(1324,1447,l),
(1182,1447,l),
(789,-252,l)
);
}
);
width = 1393;
},
{
layerId = "03B966DD-30AE-4CDF-A24A-6C10C63FDFF4";
shapes = (
{
closed = 1;
nodes = (
(561,-254,l),
(953,1447,l),
(832,1447,ls),
(556,1447,o),
(272,1249,o),
(272,953,cs),
(272,741,o),
(470,639,o),
(659,639,c),
(447,-254,l)
);
},
{
closed = 1;
nodes = (
(949,-254,l),
(1341,1447,l),
(1228,1447,l),
(835,-254,l)
);
}
);
width = 1435;
}
);
unicode = 182;
},
{
glyphname = periodcentered;
layers = (
{
layerId = "70095191-B7C5-4384-884C-B6DE2D335D53";
shapes = (
{
closed = 1;
nodes = (
(452,651,o),
(538,730,o),
(538,831,cs),
(538,910,o),
(479,971,o),
(400,971,cs),
(302,971,o),
(219,894,o),
(219,795,cs),
(219,716,o),
(270,651,o),
(353,651,cs)
);
}
);
width = 620;
},
{
layerId = "22EA05E5-9529-48D9-B1F8-A3D05D6A9FB7";
shapes = (
{
closed = 1;
nodes = (
(470,709,o),
(541,780,o),
(541,859,cs),
(541,926,o),
(493,970,o),
(427,970,cs),
(345,970,o),
(279,903,o),
(279,822,cs),
(279,757,o),
(323,709,o),
(390,709,cs)
);
}
);
width = 668;
},
{
layerId = "03B966DD-30AE-4CDF-A24A-6C10C63FDFF4";
shapes = (
{
closed = 1;
nodes = (
(472,747,o),
(535,807,o),
(535,876,cs),
(535,932,o),
(493,970,o),
(438,970,cs),
(364,970,o),
(309,909,o),
(309,837,cs),
(309,780,o),
(350,747,o),
(405,747,cs)
);
}
);
width = 683;
}
);
unicode = 183;
},
{
glyphname = cedilla;
layers = (
{
layerId = "70095191-B7C5-4384-884C-B6DE2D335D53";
shapes = (
{
closed = 1;
nodes = (
(208,-541,o),
(315,-448,o),
(315,-298,cs),
(315,-170,o),
(240,-115,o),
(166,-103,c),
(257,0,l),
(95,0,l),
(-50,-174,l),
(-33,-205,l),
(47,-205,ls),
(94,-205,o),
(150,-230,o),
(150,-289,cs),
(150,-354,o),
(115,-386,o),
(54,-386,cs),
(34,-386,o),
(3,-377,o),
(-10,-357,c),
(-166,-395,l),
(-140,-481,o),
(-46,-541,o),
(60,-541,cs)
);
}
);
width = 560;
},
{
layerId = "22EA05E5-9529-48D9-B1F8-A3D05D6A9FB7";
shapes = (
{
closed = 1;
nodes = (
(206,-520,o),
(294,-441,o),
(294,-294,cs),
(294,-203,o),
(231,-138,o),
(131,-121,c),
(236,0,l),
(109,0,l),
(-31,-175,l),
(-17,-197,l),
(38,-197,ls),
(117,-197,o),
(180,-233,o),
(180,-298,cs),
(180,-372,o),
(136,-412,o),
(58,-412,cs),
(17,-412,o),
(-30,-384,o),
(-37,-349,c),
(-150,-386,l),
(-130,-459,o),
(-35,-520,o),
(60,-520,cs)
);
}
);
width = 550;
},
{
layerId = "03B966DD-30AE-4CDF-A24A-6C10C63FDFF4";
shapes = (
{
closed = 1;
nodes = (
(195,-507,o),
(275,-441,o),
(275,-296,cs),
(275,-205,o),
(218,-144,o),
(110,-132,c),
(228,0,l),
(122,0,l),
(-14,-173,l),
(4,-195,l),
(61,-195,ls),
(128,-195,o),
(195,-231,o),
(195,-296,cs),
(195,-383,o),
(151,-427,o),
(60,-427,cs),
(6,-427,o),
(-41,-388,o),
(-52,-345,c),
(-137,-382,l),
(-119,-446,o),
(-27,-507,o),
(45,-507,cs)
);
}
);
width = 548;
}
);
unicode = 184;
},
{
glyphname = ordmasculine;
layers = (
{
layerId = "70095191-B7C5-4384-884C-B6DE2D335D53";
shapes = (
{
closed = 1;
nodes = (
(716,728,o),
(926,925,o),
(926,1170,cs),
(926,1355,o),
(797,1468,o),
(615,1468,cs),
(377,1468,o),
(172,1264,o),
(172,1026,cs),
(172,846,o),
(299,728,o),
(477,728,cs)
);
},
{
closed = 1;
nodes = (
(402,888,o),
(347,922,o),
(347,1013,cs),
(347,1165,o),
(447,1310,o),
(610,1310,cs),
(692,1310,o),
(752,1277,o),
(752,1188,cs),
(752,1040,o),
(648,888,o),
(488,888,cs)
);
}
);
width = 830;
},
{
layerId = "22EA05E5-9529-48D9-B1F8-A3D05D6A9FB7";
shapes = (
{
closed = 1;
nodes = (
(789,729,o),
(979,949,o),
(979,1182,cs),
(979,1346,o),
(872,1468,o),
(697,1468,cs),
(460,1468,o),
(265,1250,o),
(265,1018,cs),
(265,849,o),
(371,729,o),
(549,729,cs)
);
},
{
closed = 1;
nodes = (
(449,844,o),
(397,897,o),
(397,998,cs),
(397,1169,o),
(507,1355,o),
(695,1355,cs),
(799,1355,o),
(848,1296,o),
(848,1200,cs),
(848,1032,o),
(738,844,o),
(553,844,cs)
);
}
);
width = 974;
},
{
layerId = "03B966DD-30AE-4CDF-A24A-6C10C63FDFF4";
shapes = (
{
closed = 1;
nodes = (
(810,729,o),
(990,964,o),
(990,1188,cs),
(990,1354,o),
(883,1468,o),
(722,1468,cs),
(487,1468,o),
(303,1235,o),
(303,1012,cs),
(303,843,o),
(407,729,o),
(572,729,cs)
);
},
{
closed = 1;
nodes = (
(464,814,o),
(403,878,o),
(403,990,cs),
(403,1173,o),
(518,1382,o),
(725,1382,cs),
(833,1382,o),
(886,1317,o),
(886,1206,cs),
(886,1028,o),
(774,814,o),
(572,814,cs)
);
}
);
width = 1020;
}
);
unicode = 186;
},
{
glyphname = guillemotright;
layers = (
{
layerId = "70095191-B7C5-4384-884C-B6DE2D335D53";
shapes = (
{
closed = 1;
nodes = (
(60,151,l),
(601,521,l),
(227,896,l),
(180,665,l),
(325,521,l),
(111,382,l)
);
},
{
closed = 1;
nodes = (
(431,151,l),
(972,521,l),
(599,896,l),
(552,665,l),
(695,521,l),
(481,382,l)
);
}
);
width = 974;
},
{
layerId = "22EA05E5-9529-48D9-B1F8-A3D05D6A9FB7";
shapes = (
{
closed = 1;
nodes = (
(96,188,l),
(556,523,l),
(248,858,l),
(213,688,l),
(370,523,l),
(131,356,l)
);
},
{
closed = 1;
nodes = (
(468,188,l),
(930,523,l),
(619,858,l),
(585,688,l),
(741,523,l),
(504,356,l)
);
}
);
width = 998;
},
{
layerId = "03B966DD-30AE-4CDF-A24A-6C10C63FDFF4";
shapes = (
{
closed = 1;
nodes = (
(115,211,l),
(524,525,l),
(256,835,l),
(230,703,l),
(393,523,l),
(142,341,l)
);
},
{
closed = 1;
nodes = (
(487,211,l),
(898,525,l),
(630,835,l),
(602,703,l),
(766,523,l),
(515,341,l)
);
}
);
width = 1004;
}
);
leftKerningGroup = guillemotright;
rightKerningGroup = guillemotright1;
unicode = 187;
},
{
glyphname = questiondown;
layers = (
{
layerId = "70095191-B7C5-4384-884C-B6DE2D335D53";
shapes = (
{
closed = 1;
nodes = (
(411,626,l),
(398,561,ls),
(373,437,o),
(279,370,o),
(185,303,cs),
(60,215,o),
(-65,124,o),
(-65,-89,cs),
(-65,-302,o),
(103,-404,o),
(310,-404,cs),
(593,-404,o),
(820,-238,o),
(877,57,c),
(630,57,l),
(603,-91,o),
(513,-170,o),
(361,-170,cs),
(251,-170,o),
(189,-130,o),
(189,-52,cs),
(189,53,o),
(271,112,o),
(363,174,c),
(468,249,o),
(592,330,o),
(634,540,cs),
(651,626,l)
);
},
{
closed = 1;
nodes = (
(481,1064,l),
(416,771,l),
(711,771,l),
(775,1064,l)
);
}
);
width = 1011;
},
{
layerId = "22EA05E5-9529-48D9-B1F8-A3D05D6A9FB7";
shapes = (
{
closed = 1;
nodes = (
(498,658,l),
(471,522,ls),
(447,400,o),
(356,343,o),
(258,282,cs),
(112,191,o),
(-6,102,o),
(-6,-111,cs),
(-6,-303,o),
(140,-404,o),
(353,-404,cs),
(613,-404,o),
(818,-250,o),
(869,6,c),
(725,6,l),
(693,-166,o),
(566,-269,o),
(381,-269,cs),
(224,-269,o),
(138,-205,o),
(138,-90,cs),
(138,57,o),
(230,129,o),
(355,202,c),
(459,268,o),
(570,340,o),
(605,512,cs),
(635,658,l)
);
},
{
closed = 1;
nodes = (
(537,1064,l),
(489,857,l),
(698,857,l),
(746,1064,l)
);
}
);
width = 1057;
},
{
layerId = "03B966DD-30AE-4CDF-A24A-6C10C63FDFF4";
shapes = (
{
closed = 1;
nodes = (
(527,677,l),
(492,499,ls),
(468,379,o),
(377,324,o),
(279,268,cs),
(121,177,o),
(6,86,o),
(6,-125,cs),
(6,-305,o),
(141,-404,o),
(358,-404,cs),
(602,-404,o),
(795,-260,o),
(842,-27,c),
(762,-27,l),
(723,-211,o),
(575,-328,o),
(373,-328,cs),
(186,-328,o),
(88,-250,o),
(88,-113,cs),
(88,59,o),
(186,135,o),
(332,217,c),
(434,278,o),
(539,340,o),
(569,493,cs),
(605,677,l)
);
},
{
closed = 1;
nodes = (
(559,1064,l),
(524,912,l),
(680,912,l),
(715,1064,l)
);
}
);
width = 1072;
}
);
unicode = 191;
},
{
glyphname = AE;
layers = (
{
guides = (
{
angle = 90;
position = "{1328, 0}";
}
);
layerId = "70095191-B7C5-4384-884C-B6DE2D335D53";
shapes = (
{
closed = 1;
nodes = (
(1696,0,l),
(1753,251,l),
(987,251,l),
(1068,602,l),
(1744,602,l),
(1800,845,l),
(1124,845,l),
(1207,1203,l),
(1973,1203,l),
(2030,1448,l),
(792,1448,l),
(-124,0,l),
(172,0,l),
(355,314,l),
(738,314,l),
(668,0,l)
);
},
{
closed = 1;
nodes = (
(787,534,l),
(498,534,l),
(919,1203,l),
(943,1203,l)
);
}
);
width = 1913;
},
{
guides = (
{
angle = 90;
position = "{1328, 0}";
}
);
layerId = "22EA05E5-9529-48D9-B1F8-A3D05D6A9FB7";
shapes = (
{
closed = 1;
nodes = (
(1642,0,l),
(1675,149,l),
(908,149,l),
(1023,650,l),
(1700,650,l),
(1734,797,l),
(1058,797,l),
(1175,1306,l),
(1942,1306,l),
(1975,1448,l),
(818,1448,l),
(-58,0,l),
(124,0,l),
(310,314,l),
(778,314,l),
(707,0,l)
);
},
{
closed = 1;
nodes = (
(813,465,l),
(398,465,l),
(902,1306,l),
(1007,1306,l)
);
}
);
width = 1873;
},
{
guides = (
{
angle = 90;
position = "{1328, 0}";
}
);
layerId = "03B966DD-30AE-4CDF-A24A-6C10C63FDFF4";
shapes = (
{
closed = 1;
nodes = (
(1612,0,l),
(1633,86,l),
(866,86,l),
(1002,680,l),
(1681,680,l),
(1698,765,l),
(1022,765,l),
(1160,1369,l),
(1927,1369,l),
(1945,1448,l),
(841,1448,l),
(-12,0,l),
(101,0,l),
(287,314,l),
(810,314,l),
(737,0,l)
);
},
{
closed = 1;
nodes = (
(834,421,l),
(341,421,l),
(896,1369,l),
(1053,1369,l)
);
}
);
width = 1860;
}
);
leftKerningGroup = AE;
rightKerningGroup = AE1;
unicode = 198;
},
{
color = (153, 254, 255, 255);
glyphname = Ccedilla;
layers = (
{
guides = (
{
angle = 90;
position = "{993, 0}";
}
);
layerId = "70095191-B7C5-4384-884C-B6DE2D335D53";
shapes = (
{
closed = 1;
nodes = (
(709,-541,o),
(816,-448,o),
(816,-298,cs),
(816,-170,o),
(741,-115,o),
(667,-103,c),
(743,-18,l),
(1027,4,o),
(1246,147,o),
(1407,394,c),
(1163,526,l),
(1061,354,o),
(915,257,o),
(711,257,cs),
(511,257,o),
(384,345,o),
(384,555,cs),
(384,869,o),
(602,1218,o),
(945,1218,cs),
(1116,1218,o),
(1258,1137,o),
(1258,949,c),
(1549,1034,l),
(1498,1323,o),
(1274,1470,o),
(990,1470,cs),
(465,1470,o),
(97,1025,o),
(97,523,cs),
(97,205,o),
(290,14,o),
(583,-16,c),
(451,-174,l),
(468,-205,l),
(548,-205,ls),
(595,-205,o),
(651,-230,o),
(651,-289,cs),
(651,-354,o),
(616,-386,o),
(555,-386,cs),
(535,-386,o),
(504,-377,o),
(491,-357,c),
(335,-395,l),
(361,-481,o),
(455,-541,o),
(561,-541,cs)
);
}
);
width = 1466;
},
{
guides = (
{
angle = 90;
position = "{993, 0}";
}
);
layerId = "22EA05E5-9529-48D9-B1F8-A3D05D6A9FB7";
shapes = (
{
closed = 1;
nodes = (
(695,-520,o),
(784,-441,o),
(784,-294,cs),
(784,-203,o),
(720,-138,o),
(620,-121,c),
(709,-18,l),
(970,0,o),
(1182,147,o),
(1327,363,c),
(1182,444,l),
(1066,251,o),
(897,148,o),
(675,148,cs),
(433,148,o),
(306,272,o),
(306,515,cs),
(306,884,o),
(536,1311,o),
(947,1311,cs),
(1138,1311,o),
(1299,1229,o),
(1315,1020,c),
(1483,1077,l),
(1436,1344,o),
(1230,1470,o),
(970,1470,cs),
(453,1470,o),
(131,980,o),
(131,503,cs),
(131,193,o),
(297,8,o),
(584,-17,c),
(458,-175,l),
(472,-197,l),
(527,-197,ls),
(606,-197,o),
(669,-233,o),
(669,-298,cs),
(669,-372,o),
(624,-412,o),
(547,-412,cs),
(505,-412,o),
(460,-384,o),
(452,-349,c),
(339,-386,l),
(359,-459,o),
(454,-520,o),
(549,-520,cs)
);
}
);
width = 1460;
},
{
guides = (
{
angle = 90;
position = "{993, 0}";
}
);
layerId = "03B966DD-30AE-4CDF-A24A-6C10C63FDFF4";
shapes = (
{
closed = 1;
nodes = (
(668,-507,o),
(746,-441,o),
(746,-296,cs),
(746,-205,o),
(690,-144,o),
(582,-132,c),
(684,-20,l),
(932,-4,o),
(1136,139,o),
(1276,344,c),
(1193,391,l),
(1072,192,o),
(889,80,o),
(652,80,cs),
(382,80,o),
(255,223,o),
(255,490,cs),
(255,886,o),
(490,1370,o),
(939,1370,cs),
(1140,1370,o),
(1326,1286,o),
(1349,1064,c),
(1437,1104,l),
(1392,1355,o),
(1198,1470,o),
(955,1470,cs),
(438,1470,o),
(148,940,o),
(148,484,cs),
(148,191,o),
(295,4,o),
(580,-19,c),
(458,-173,l),
(476,-195,l),
(533,-195,ls),
(600,-195,o),
(667,-231,o),
(667,-296,cs),
(667,-383,o),
(624,-427,o),
(532,-427,cs),
(480,-427,o),
(430,-388,o),
(420,-345,c),
(335,-382,l),
(353,-446,o),
(446,-507,o),
(517,-507,cs)
);
}
);
width = 1458;
}
);
leftKerningGroup = C;
rightKerningGroup = C1;
unicode = 199;
},
{
glyphname = Eth;
layers = (
{
layerId = "70095191-B7C5-4384-884C-B6DE2D335D53";
shapes = (
{
closed = 1;
nodes = (
(159,836,l),
(113,625,l),
(881,625,l),
(927,836,l)
);
},
{
closed = 1;
nodes = (
(522,0,ls),
(1088,0,o),
(1467,369,o),
(1467,925,cs),
(1467,1310,o),
(1193,1448,o),
(845,1448,cs),
(416,1448,l),
(83,0,l)
);
},
{
closed = 1;
nodes = (
(435,266,l),
(646,1180,l),
(793,1180,ls),
(978,1180,o),
(1183,1160,o),
(1183,924,cs),
(1183,531,o),
(955,266,o),
(545,266,cs)
);
}
);
width = 1464;
},
{
layerId = "22EA05E5-9529-48D9-B1F8-A3D05D6A9FB7";
shapes = (
{
closed = 1;
nodes = (
(185,793,l),
(155,667,l),
(835,667,l),
(866,793,l)
);
},
{
closed = 1;
nodes = (
(496,0,ls),
(1051,0,o),
(1416,392,o),
(1416,935,cs),
(1416,1311,o),
(1158,1448,o),
(788,1448,cs),
(450,1448,l),
(117,0,l)
);
},
{
closed = 1;
nodes = (
(330,159,l),
(591,1291,l),
(792,1291,ls),
(1041,1291,o),
(1245,1207,o),
(1245,926,cs),
(1245,495,o),
(944,159,o),
(497,159,cs)
);
}
);
width = 1466;
},
{
layerId = "03B966DD-30AE-4CDF-A24A-6C10C63FDFF4";
shapes = (
{
closed = 1;
nodes = (
(203,765,l),
(182,692,l),
(807,692,l),
(824,765,l)
);
},
{
closed = 1;
nodes = (
(478,0,ls),
(1039,0,o),
(1384,419,o),
(1384,941,cs),
(1384,1362,o),
(1066,1448,o),
(743,1448,cs),
(473,1448,l),
(139,0,l)
);
},
{
closed = 1;
nodes = (
(260,90,l),
(554,1363,l),
(789,1363,ls),
(1075,1363,o),
(1284,1237,o),
(1284,926,cs),
(1284,472,o),
(936,90,o),
(466,90,cs)
);
}
);
width = 1468;
}
);
leftKerningGroup = Eth;
rightKerningGroup = D;
unicode = 208;
},
{
glyphname = multiply;
layers = (
{
layerId = "70095191-B7C5-4384-884C-B6DE2D335D53";
shapes = (
{
closed = 1;
nodes = (
(223,161,l),
(555,489,l),
(856,189,l),
(1007,340,l),
(706,640,l),
(1034,971,l),
(887,1118,l),
(555,791,l),
(256,1091,l),
(105,940,l),
(406,640,l),
(76,308,l)
);
}
);
width = 1111;
},
{
layerId = "22EA05E5-9529-48D9-B1F8-A3D05D6A9FB7";
shapes = (
{
closed = 1;
nodes = (
(234,220,l),
(566,551,l),
(897,219,l),
(985,309,l),
(655,640,l),
(986,971,l),
(897,1058,l),
(566,728,l),
(234,1059,l),
(147,969,l),
(478,640,l),
(146,307,l)
);
}
);
width = 1133;
},
{
layerId = "03B966DD-30AE-4CDF-A24A-6C10C63FDFF4";
shapes = (
{
closed = 1;
nodes = (
(240,258,l),
(572,589,l),
(920,238,l),
(970,290,l),
(621,640,l),
(954,971,l),
(901,1020,l),
(572,688,l),
(219,1040,l),
(170,988,l),
(520,640,l),
(188,307,l)
);
}
);
width = 1139;
}
);
unicode = 215;
},
{
glyphname = Oslash;
layers = (
{
guides = (
{
angle = 90;
position = "{913, 0}";
}
);
layerId = "70095191-B7C5-4384-884C-B6DE2D335D53";
shapes = (
{
closed = 1;
nodes = (
(1197,-20,o),
(1566,416,o),
(1566,916,cs),
(1566,1059,o),
(1532,1200,o),
(1431,1308,c),
(1549,1447,l),
(1341,1447,l),
(1304,1402,l),
(1207,1452,o),
(1098,1468,o),
(990,1468,cs),
(474,1468,o),
(96,1041,o),
(96,528,cs),
(96,386,o),
(134,249,o),
(231,141,c),
(111,0,l),
(323,0,l),
(360,44,l),
(458,-4,o),
(566,-20,o),
(674,-20,cs)
);
},
{
closed = 1;
nodes = (
(430,378,l),
(410,426,o),
(402,479,o),
(402,531,cs),
(402,842,o),
(601,1211,o),
(950,1211,cs),
(1007,1211,o),
(1065,1207,o),
(1117,1182,c)
);
},
{
closed = 1;
nodes = (
(656,236,o),
(598,240,o),
(546,264,c),
(1233,1071,l),
(1255,1023,o),
(1261,968,o),
(1261,916,cs),
(1261,604,o),
(1064,236,o),
(713,236,cs)
);
}
);
width = 1565;
},
{
guides = (
{
angle = 90;
position = "{913, 0}";
}
);
layerId = "22EA05E5-9529-48D9-B1F8-A3D05D6A9FB7";
shapes = (
{
closed = 1;
nodes = (
(1158,-23,o),
(1494,459,o),
(1494,941,cs),
(1494,1086,o),
(1458,1224,o),
(1362,1326,c),
(1460,1447,l),
(1320,1447,l),
(1277,1394,l),
(1188,1451,o),
(1080,1470,o),
(970,1470,cs),
(461,1470,o),
(127,987,o),
(127,505,cs),
(127,366,o),
(165,226,o),
(257,124,c),
(156,0,l),
(298,0,l),
(342,54,l),
(431,-2,o),
(538,-23,o),
(648,-23,cs)
);
},
{
closed = 1;
nodes = (
(372,266,l),
(320,335,o),
(302,424,o),
(302,515,cs),
(302,883,o),
(549,1306,o),
(955,1306,cs),
(1031,1306,o),
(1104,1293,o),
(1166,1257,c)
);
},
{
closed = 1;
nodes = (
(586,140,o),
(513,153,o),
(453,191,c),
(1248,1183,l),
(1302,1111,o),
(1320,1025,o),
(1320,931,cs),
(1320,561,o),
(1070,140,o),
(661,140,cs)
);
}
);
width = 1522;
},
{
guides = (
{
angle = 90;
position = "{913, 0}";
}
);
layerId = "03B966DD-30AE-4CDF-A24A-6C10C63FDFF4";
shapes = (
{
closed = 1;
nodes = (
(1143,-25,o),
(1452,493,o),
(1452,956,cs),
(1452,1088,o),
(1424,1232,o),
(1324,1337,c),
(1407,1447,l),
(1309,1447,l),
(1264,1388,l),
(1173,1453,o),
(1061,1470,o),
(959,1470,cs),
(457,1470,o),
(150,951,o),
(150,490,cs),
(150,362,o),
(184,215,o),
(276,113,c),
(190,0,l),
(285,0,l),
(331,60,l),
(425,-4,o),
(536,-25,o),
(637,-25,cs)
);
},
{
closed = 1;
nodes = (
(338,194,l),
(265,284,o),
(243,399,o),
(243,504,cs),
(243,906,o),
(519,1365,o),
(957,1365,cs),
(1039,1365,o),
(1123,1352,o),
(1200,1303,c)
);
},
{
closed = 1;
nodes = (
(556,81,o),
(471,94,o),
(398,145,c),
(1261,1255,l),
(1340,1162,o),
(1362,1052,o),
(1362,942,cs),
(1362,538,o),
(1081,81,o),
(638,81,cs)
);
}
);
width = 1503;
}
);
leftKerningGroup = Oslash;
rightKerningGroup = Oslash1;
unicode = 216;
},
{
glyphname = Thorn;
layers = (
{
layerId = "70095191-B7C5-4384-884C-B6DE2D335D53";
shapes = (
{
closed = 1;
nodes = (
(59,0,l),
(318,0,l),
(409,395,l),
(610,395,ls),
(940,395,o),
(1229,574,o),
(1229,939,cs),
(1229,1168,o),
(1070,1250,o),
(863,1250,cs),
(607,1250,l),
(652,1448,l),
(392,1448,l)
);
},
{
closed = 1;
nodes = (
(463,632,l),
(558,1032,l),
(757,1032,ls),
(845,1032,o),
(969,1020,o),
(969,904,cs),
(969,723,o),
(816,632,o),
(650,632,cs)
);
}
);
width = 1171;
},
{
layerId = "22EA05E5-9529-48D9-B1F8-A3D05D6A9FB7";
shapes = (
{
closed = 1;
nodes = (
(82,0,l),
(250,0,l),
(350,438,l),
(548,438,ls),
(865,438,o),
(1165,586,o),
(1165,938,cs),
(1165,1143,o),
(1005,1242,o),
(793,1242,cs),
(536,1242,l),
(583,1448,l),
(415,1448,l)
);
},
{
closed = 1;
nodes = (
(385,593,l),
(499,1083,l),
(746,1083,ls),
(873,1083,o),
(994,1042,o),
(994,911,cs),
(994,702,o),
(819,593,o),
(624,593,cs)
);
}
);
width = 1182;
},
{
layerId = "03B966DD-30AE-4CDF-A24A-6C10C63FDFF4";
shapes = (
{
closed = 1;
nodes = (
(88,0,l),
(199,0,l),
(308,465,l),
(491,465,ls),
(802,465,o),
(1119,586,o),
(1119,938,cs),
(1119,1162,o),
(923,1237,o),
(742,1237,cs),
(485,1237,l),
(532,1448,l),
(423,1448,l)
);
},
{
closed = 1;
nodes = (
(330,570,l),
(460,1137,l),
(736,1137,ls),
(849,1137,o),
(1005,1076,o),
(1005,915,cs),
(1005,687,o),
(815,570,o),
(603,570,cs)
);
}
);
width = 1184;
}
);
leftKerningGroup = B;
unicode = 222;
},
{
glyphname = germandbls;
layers = (
{
guides = (
{
angle = 256.667;
position = "{232, 692}";
}
);
layerId = "70095191-B7C5-4384-884C-B6DE2D335D53";
shapes = (
{
closed = 1;
nodes = (
(897.024,-18.432,o),
(1134.592,143.36,o),
(1134.592,393.216,cs),
(1134.592,617.472,o),
(902.144,677.888,o),
(902.144,736.256,cs),
(902.144,820.224,o),
(1224.704,823.296,o),
(1224.704,1140.736,cs),
(1224.704,1350.656,o),
(1027.072,1468.416,o),
(831.488,1468.416,cs),
(439.296,1468.416,o),
(310.272,1208.32,o),
(234.496,884.736,cs),
(26.624,0,l),
(314.368,0,l),
(546.816,998.4,ls),
(581.632,1145.856,o),
(654.336,1230.848,o),
(816.128,1230.848,cs),
(876.544,1230.848,o),
(959.488,1218.56,o),
(959.488,1141.76,cs),
(959.488,975.872,o),
(655.36,986.112,o),
(655.36,737.28,cs),
(655.36,560.128,o),
(857.088,491.52,o),
(857.088,380.928,cs),
(857.088,288.768,o),
(772.096,230.4,o),
(686.08,230.4,cs),
(660.48,230.4,o),
(634.88,230.4,o),
(610.304,237.568,c),
(468.992,14.336,l),
(530.432,-6.144,o),
(595.968,-18.432,o),
(661.504,-18.432,cs)
);
}
);
width = 1239;
},
{
guides = (
{
angle = 256.667;
position = "{232, 692}";
}
);
layerId = "22EA05E5-9529-48D9-B1F8-A3D05D6A9FB7";
shapes = (
{
closed = 1;
nodes = (
(866.708,-18.14,o),
(1086.408,148.147,o),
(1086.408,375.909,cs),
(1086.408,579.485,o),
(856.63,637.937,o),
(856.63,755.85,cs),
(856.63,914.075,o),
(1182.149,885.856,o),
(1182.149,1176.103,cs),
(1182.149,1366.577,o),
(994.699,1468.365,o),
(824.38,1468.365,cs),
(539.173,1468.365,o),
(370.87,1315.179,o),
(284.2,952.371,cs),
(58.452,0,l),
(227.763,0,l),
(452.502,945.316,ls),
(496.845,1133.775,o),
(605.688,1319.21,o),
(822.365,1319.21,cs),
(916.09,1319.21,o),
(1017.878,1281.922,o),
(1017.878,1189.204,cs),
(1017.878,965.472,o),
(690.343,982.605,o),
(690.343,748.795,cs),
(690.343,569.407,o),
(918.106,510.955,o),
(918.106,359.785,cs),
(918.106,237.841,o),
(778.022,143.108,o),
(665.148,143.108,cs),
(601.657,143.108,o),
(536.15,160.24,o),
(483.744,192.49,c),
(390.019,46.359,l),
(479.713,6.047,o),
(556.306,-18.14,o),
(651.039,-18.14,cs)
);
}
);
width = 1242;
},
{
guides = (
{
angle = 256.667;
position = "{232, 692}";
}
);
layerId = "03B966DD-30AE-4CDF-A24A-6C10C63FDFF4";
shapes = (
{
closed = 1;
nodes = (
(848.188,-18.756,o),
(1050.336,151.09,o),
(1050.336,364.7,cs),
(1050.336,551.218,o),
(822.138,611.654,o),
(822.138,770.038,cs),
(822.138,969.06,o),
(1151.41,927.38,o),
(1151.41,1198.3,cs),
(1151.41,1367.104,o),
(980.522,1467.136,o),
(826.306,1467.136,cs),
(515.79,1467.136,o),
(391.792,1320.214,o),
(285.508,863.818,c),
(80.234,0,l),
(174.014,0,l),
(377.204,866.944,ls),
(432.43,1097.226,o),
(542.882,1375.44,o),
(824.222,1375.44,cs),
(903.414,1375.44,o),
(1052.42,1343.138,o),
(1052.42,1221.224,cs),
(1052.42,958.64,o),
(715.854,968.018,o),
(715.854,754.408,cs),
(715.854,571.016,o),
(951.346,526.21,o),
(951.346,348.028,cs),
(951.346,204.232,o),
(784.626,86.486,o),
(650.208,86.486,cs),
(566.848,86.486,o),
(475.152,112.536,o),
(403.254,161.51,c),
(341.776,65.646,l),
(442.85,12.504,o),
(522.042,-18.756,o),
(641.872,-18.756,cs)
);
}
);
width = 1240;
}
);
unicode = 223;
},
{
glyphname = ae;
layers = (
{
guides = (
{
angle = 90;
position = "{1022, 0}";
}
);
layerId = "70095191-B7C5-4384-884C-B6DE2D335D53";
shapes = (
{
closed = 1;
nodes = (
(306,707,l),
(378,785,o),
(499,842,o),
(604,842,cs),
(688,842,o),
(775,829,o),
(775,717,cs),
(775,692,o),
(772,666,o),
(767,638,c),
(486,638,ls),
(239,638,o),
(-16,542,o),
(-16,260,cs),
(-16,76,o),
(140,-20,o),
(308,-20,cs),
(507,-20,o),
(708,67,o),
(808,197,c),
(722,206,l),
(795,70,o),
(969,-12,o),
(1114,-12,cs),
(1304,-12,o),
(1452,41,o),
(1595,161,c),
(1462,323,l),
(1385,243,o),
(1252,205,o),
(1148,205,cs),
(1034,205,o),
(945,283,o),
(945,377,cs),
(945,395,o),
(949,417,o),
(956,440,c),
(1680,440,l),
(1717,485,o),
(1731,629,o),
(1731,690,cs),
(1731,945,o),
(1592,1077,o),
(1341,1077,cs),
(1197,1077,o),
(1071,1016,o),
(966,922,c),
(903,1035,o),
(769,1081,o),
(643,1081,cs),
(442,1081,o),
(290,1009,o),
(154,870,c)
);
},
{
closed = 1;
nodes = (
(1010,638,l),
(1067,760,o),
(1162,844,o),
(1292,844,cs),
(1411,844,o),
(1473,790,o),
(1473,692,cs),
(1473,676,o),
(1470,657,o),
(1467,638,c)
);
},
{
closed = 1;
nodes = (
(718,440,l),
(644,285,o),
(521,207,o),
(349,207,cs),
(286,207,o),
(234,227,o),
(234,301,cs),
(234,385,o),
(329,440,o),
(464,440,cs)
);
}
);
width = 1764;
},
{
guides = (
{
angle = 90;
position = "{1022, 0}";
}
);
layerId = "22EA05E5-9529-48D9-B1F8-A3D05D6A9FB7";
shapes = (
{
closed = 1;
nodes = (
(305,785,l),
(383,874,o),
(503,944,o),
(623,944,cs),
(765,944,o),
(827,878,o),
(827,746,cs),
(827,700,o),
(821,655,o),
(810,609,c),
(481,609,ls),
(257,609,o),
(20,499,o),
(20,243,cs),
(20,74,o),
(139,-20,o),
(306,-20,cs),
(525,-20,o),
(734,105,o),
(829,293,c),
(781,298,l),
(792,103,o),
(929,-12,o),
(1133,-12,cs),
(1308,-12,o),
(1442,37,o),
(1574,145,c),
(1476,251,l),
(1378,167,o),
(1280,137,o),
(1149,137,cs),
(996,137,o),
(912,225,o),
(912,375,cs),
(912,411,o),
(917,446,o),
(928,478,c),
(1664,478,l),
(1686,523,o),
(1706,673,o),
(1706,725,cs),
(1706,960,o),
(1576,1077,o),
(1345,1077,cs),
(1187,1077,o),
(1061,1006,o),
(955,883,c),
(923,1026,o),
(799,1081,o),
(647,1081,cs),
(466,1081,o),
(325,1014,o),
(194,885,c)
);
},
{
closed = 1;
nodes = (
(960,610,l),
(1008,780,o),
(1134,932,o),
(1324,932,cs),
(1471,932,o),
(1555,866,o),
(1555,713,cs),
(1555,679,o),
(1551,643,o),
(1541,610,c)
);
},
{
closed = 1;
nodes = (
(782,478,l),
(721,296,o),
(570,118,o),
(359,118,cs),
(272,118,o),
(186,165,o),
(186,250,cs),
(186,390,o),
(334,478,o),
(461,478,cs)
);
}
);
width = 1765;
},
{
guides = (
{
angle = 90;
position = "{1022, 0}";
}
);
layerId = "03B966DD-30AE-4CDF-A24A-6C10C63FDFF4";
shapes = (
{
closed = 1;
nodes = (
(294,844,l),
(377,937,o),
(505,1007,o),
(634,1007,cs),
(788,1007,o),
(861,922,o),
(861,761,cs),
(861,700,o),
(851,644,o),
(837,590,c),
(479,590,ls),
(270,590,o),
(43,465,o),
(43,235,cs),
(43,68,o),
(145,-20,o),
(304,-20,cs),
(548,-20,o),
(719,116,o),
(827,350,c),
(798,359,l),
(786,97,o),
(933,-12,o),
(1144,-12,cs),
(1312,-12,o),
(1427,31,o),
(1561,134,c),
(1503,181,l),
(1393,91,o),
(1286,65,o),
(1151,65,cs),
(981,65,o),
(893,179,o),
(893,345,cs),
(893,400,o),
(898,458,o),
(911,507,c),
(1653,507,l),
(1667,556,o),
(1693,698,o),
(1693,748,cs),
(1693,973,o),
(1565,1077,o),
(1349,1077,cs),
(1176,1077,o),
(1046,991,o),
(949,860,c),
(927,1037,o),
(788,1081,o),
(649,1081,cs),
(472,1081,o),
(340,1010,o),
(219,893,c)
);
},
{
closed = 1;
nodes = (
(928,593,l),
(972,795,o),
(1119,987,o),
(1343,987,cs),
(1509,987,o),
(1604,904,o),
(1604,736,cs),
(1604,687,o),
(1597,639,o),
(1587,593,c)
);
},
{
closed = 1;
nodes = (
(824,507,l),
(757,287,o),
(614,63,o),
(353,63,cs),
(266,63,o),
(142,127,o),
(142,239,cs),
(142,394,o),
(305,507,o),
(447,507,cs)
);
}
);
width = 1765;
}
);
leftKerningGroup = a;
rightKerningGroup = ae1;
unicode = 230;
},
{
color = (153, 254, 255, 255);
glyphname = ccedilla;
layers = (
{
guides = (
{
angle = 90;
position = "{663, 0}";
}
);
layerId = "70095191-B7C5-4384-884C-B6DE2D335D53";
shapes = (
{
closed = 1;
nodes = (
(506,-541,o),
(613,-448,o),
(613,-298,cs),
(613,-170,o),
(538,-115,o),
(464,-103,c),
(538,-19,l),
(727,4,o),
(881,114,o),
(977,282,c),
(734,409,l),
(683,315,o),
(597,244,o),
(489,244,cs),
(383,244,o),
(314,297,o),
(314,412,cs),
(314,606,o),
(439,813,o),
(644,813,cs),
(729,813,o),
(796,760,o),
(796,673,c),
(1087,759,l),
(1047,963,o),
(892,1081,o),
(683,1081,cs),
(315,1081,o),
(35,763,o),
(35,399,cs),
(35,162,o),
(166,12,o),
(378,-18,c),
(248,-174,l),
(265,-205,l),
(345,-205,ls),
(392,-205,o),
(448,-230,o),
(448,-289,cs),
(448,-354,o),
(413,-386,o),
(352,-386,cs),
(332,-386,o),
(301,-377,o),
(288,-357,c),
(132,-395,l),
(158,-481,o),
(252,-541,o),
(358,-541,cs)
);
}
);
width = 1065;
},
{
guides = (
{
angle = 90;
position = "{663, 0}";
}
);
layerId = "22EA05E5-9529-48D9-B1F8-A3D05D6A9FB7";
shapes = (
{
closed = 1;
nodes = (
(492,-520,o),
(581,-441,o),
(581,-294,cs),
(581,-203,o),
(518,-138,o),
(418,-121,c),
(508,-17,l),
(676,4,o),
(816,107,o),
(903,255,c),
(767,331,l),
(710,217,o),
(588,129,o),
(457,129,cs),
(300,129,o),
(241,235,o),
(241,378,cs),
(241,609,o),
(383,930,o),
(649,930,cs),
(765,930,o),
(852,861,o),
(859,740,c),
(1028,799,l),
(986,977,o),
(859,1081,o),
(668,1081,cs),
(309,1081,o),
(75,709,o),
(75,380,cs),
(75,164,o),
(179,10,o),
(383,-16,c),
(256,-175,l),
(270,-197,l),
(324,-197,ls),
(403,-197,o),
(467,-233,o),
(467,-298,cs),
(467,-372,o),
(422,-411,o),
(344,-411,cs),
(303,-411,o),
(257,-384,o),
(249,-349,c),
(137,-386,l),
(156,-459,o),
(252,-520,o),
(346,-520,cs)
);
}
);
width = 1028;
},
{
guides = (
{
angle = 90;
position = "{663, 0}";
}
);
layerId = "03B966DD-30AE-4CDF-A24A-6C10C63FDFF4";
shapes = (
{
closed = 1;
nodes = (
(481,-507,o),
(560,-441,o),
(560,-296,cs),
(560,-205,o),
(503,-144,o),
(395,-132,c),
(497,-17,l),
(653,2,o),
(784,101,o),
(863,238,c),
(792,280,l),
(729,154,o),
(588,57,o),
(444,57,cs),
(258,57,o),
(199,193,o),
(199,359,cs),
(199,615,o),
(351,1002,o),
(655,1002,cs),
(786,1002,o),
(894,914,o),
(903,782,c),
(994,824,l),
(952,996,o),
(829,1081,o),
(664,1081,cs),
(311,1081,o),
(105,673,o),
(105,365,cs),
(105,166,o),
(192,4,o),
(394,-18,c),
(271,-173,l),
(289,-195,l),
(347,-195,ls),
(414,-195,o),
(480,-231,o),
(480,-296,cs),
(480,-383,o),
(437,-428,o),
(346,-428,cs),
(292,-428,o),
(244,-388,o),
(234,-345,c),
(148,-382,l),
(167,-446,o),
(258,-507,o),
(331,-507,cs)
);
}
);
width = 1015;
}
);
leftKerningGroup = a;
rightKerningGroup = c1;
unicode = 231;
},
{
glyphname = eth;
layers = (
{
layerId = "70095191-B7C5-4384-884C-B6DE2D335D53";
shapes = (
{
closed = 1;
nodes = (
(983,-16,o),
(1204,416,o),
(1204,853,cs),
(1204,1112,o),
(1101,1299,o),
(889,1441,c),
(983,1537,l),
(884,1595,l),
(781,1496,l),
(737,1516,o),
(692,1535,o),
(647,1550,c),
(479,1357,l),
(520,1347,o),
(568,1335,o),
(601,1324,c),
(508,1233,l),
(609,1168,l),
(722,1279,l),
(862,1218,o),
(936,1128,o),
(947,985,c),
(870,1062,o),
(785,1085,o),
(677,1085,cs),
(318,1085,o),
(37,784,o),
(37,425,cs),
(37,132,o),
(232,-16,o),
(506,-16,cs)
);
},
{
closed = 1;
nodes = (
(403,241,o),
(311,301,o),
(311,442,cs),
(311,646,o),
(476,857,o),
(690,857,cs),
(818,857,o),
(898,784,o),
(898,654,cs),
(898,456,o),
(740,241,o),
(530,241,cs)
);
}
);
width = 1234;
},
{
layerId = "22EA05E5-9529-48D9-B1F8-A3D05D6A9FB7";
shapes = (
{
closed = 1;
nodes = (
(954,-16,o),
(1155,461,o),
(1155,861,cs),
(1155,1095,o),
(1075,1280,o),
(884,1426,c),
(977,1517,l),
(888,1571,l),
(794,1480,l),
(744,1508,o),
(690,1532,o),
(636,1550,c),
(530,1438,l),
(584,1418,o),
(635,1395,o),
(684,1371,c),
(557,1247,l),
(646,1191,l),
(775,1319,l),
(880,1248,o),
(970,1104,o),
(972,975,c),
(916,1055,o),
(790,1085,o),
(691,1085,cs),
(336,1085,o),
(81,747,o),
(81,409,cs),
(81,149,o),
(234,-16,o),
(495,-16,cs)
);
},
{
closed = 1;
nodes = (
(329,140,o),
(258,255,o),
(258,408,cs),
(258,661,o),
(432,951,o),
(711,951,cs),
(867,951,o),
(952,845,o),
(952,694,cs),
(952,447,o),
(773,140,o),
(499,140,cs)
);
}
);
width = 1221;
},
{
layerId = "03B966DD-30AE-4CDF-A24A-6C10C63FDFF4";
shapes = (
{
closed = 1;
nodes = (
(935,-16,o),
(1125,491,o),
(1125,865,cs),
(1125,1091,o),
(1058,1274,o),
(884,1415,c),
(975,1504,l),
(892,1556,l),
(805,1469,l),
(750,1506,o),
(690,1532,o),
(632,1550,c),
(564,1489,l),
(624,1460,o),
(681,1433,o),
(739,1398,c),
(591,1255,l),
(669,1206,l),
(811,1342,l),
(895,1267,o),
(991,1085,o),
(989,969,c),
(943,1057,o),
(784,1085,o),
(702,1085,cs),
(351,1085,o),
(108,722,o),
(108,398,cs),
(108,160,o),
(238,-16,o),
(493,-16,cs)
);
},
{
closed = 1;
nodes = (
(299,77,o),
(224,209,o),
(224,385,cs),
(224,667,o),
(409,1008,o),
(726,1008,cs),
(899,1008,o),
(990,881,o),
(990,717,cs),
(990,445,o),
(798,77,o),
(488,77,cs)
);
}
);
width = 1217;
}
);
leftKerningGroup = a;
unicode = 240;
},
{
glyphname = divide;
layers = (
{
layerId = "70095191-B7C5-4384-884C-B6DE2D335D53";
shapes = (
{
closed = 1;
nodes = (
(845,831,l),
(845,1124,l),
(550,1124,l),
(550,831,l)
);
},
{
closed = 1;
nodes = (
(1323,539,l),
(1323,750,l),
(72,750,l),
(72,539,l)
);
},
{
closed = 1;
nodes = (
(845,146,l),
(845,441,l),
(550,441,l),
(550,146,l)
);
}
);
width = 1392;
},
{
layerId = "22EA05E5-9529-48D9-B1F8-A3D05D6A9FB7";
shapes = (
{
closed = 1;
nodes = (
(596,915,l),
(596,1122,l),
(389,1122,l),
(389,915,l)
);
},
{
closed = 1;
nodes = (
(878,581,l),
(878,706,l),
(106,706,l),
(106,581,l)
);
},
{
closed = 1;
nodes = (
(596,146,l),
(596,352,l),
(389,352,l),
(389,146,l)
);
}
);
width = 992;
},
{
layerId = "03B966DD-30AE-4CDF-A24A-6C10C63FDFF4";
shapes = (
{
closed = 1;
nodes = (
(501,968,l),
(501,1120,l),
(347,1120,l),
(347,968,l)
);
},
{
closed = 1;
nodes = (
(661,606,l),
(661,676,l),
(186,676,l),
(186,606,l)
);
},
{
closed = 1;
nodes = (
(501,144,l),
(501,297,l),
(347,297,l),
(347,144,l)
);
}
);
width = 861;
}
);
unicode = 247;
},
{
glyphname = oslash;
layers = (
{
guides = (
{
angle = 90;
position = "{743, 0}";
}
);
layerId = "70095191-B7C5-4384-884C-B6DE2D335D53";
shapes = (
{
closed = 1;
nodes = (
(838,-20,o),
(1145,279,o),
(1145,646,cs),
(1145,769,o),
(1109,880,o),
(1024,966,c),
(1108,1064,l),
(961,1064,l),
(931,1030,l),
(860,1066,o),
(780,1077,o),
(701,1077,cs),
(346,1077,o),
(31,774,o),
(31,413,cs),
(31,294,o),
(68,180,o),
(150,94,c),
(68,-2,l),
(217,-2,l),
(243,29,l),
(316,-7,o),
(397,-20,o),
(476,-20,cs)
);
},
{
closed = 1;
nodes = (
(330,314,l),
(317,343,o),
(311,375,o),
(311,408,cs),
(311,612,o),
(445,836,o),
(671,836,cs),
(699,836,o),
(726,832,o),
(754,824,c)
);
},
{
closed = 1;
nodes = (
(475,219,o),
(447,223,o),
(418,232,c),
(843,745,l),
(859,715,o),
(863,681,o),
(863,647,cs),
(863,446,o),
(723,219,o),
(504,219,cs)
);
}
);
width = 1177;
},
{
guides = (
{
angle = 90;
position = "{743, 0}";
}
);
layerId = "22EA05E5-9529-48D9-B1F8-A3D05D6A9FB7";
shapes = (
{
closed = 1;
nodes = (
(826,-20,o),
(1107,321,o),
(1107,660,cs),
(1107,778,o),
(1072,888,o),
(993,973,c),
(1066,1063,l),
(967,1063,l),
(931,1019,l),
(864,1060,o),
(789,1077,o),
(706,1077,cs),
(354,1077,o),
(74,734,o),
(74,396,cs),
(74,276,o),
(108,168,o),
(186,84,c),
(118,0,l),
(218,0,l),
(248,36,l),
(315,-5,o),
(392,-20,o),
(475,-20,cs)
);
},
{
closed = 1;
nodes = (
(292,217,l),
(259,264,o),
(244,322,o),
(244,382,cs),
(244,629,o),
(416,929,o),
(692,929,cs),
(741,929,o),
(790,921,o),
(830,897,c)
);
},
{
closed = 1;
nodes = (
(438,127,o),
(391,136,o),
(351,161,c),
(890,842,l),
(923,795,o),
(936,737,o),
(936,676,cs),
(936,425,o),
(766,127,o),
(487,127,cs)
);
}
);
width = 1181;
},
{
guides = (
{
angle = 90;
position = "{743, 0}";
}
);
layerId = "03B966DD-30AE-4CDF-A24A-6C10C63FDFF4";
shapes = (
{
closed = 1;
nodes = (
(818,-20,o),
(1084,346,o),
(1084,671,cs),
(1084,780,o),
(1051,890,o),
(974,977,c),
(1041,1063,l),
(973,1063,l),
(933,1013,l),
(862,1060,o),
(787,1077,o),
(708,1077,cs),
(362,1077,o),
(99,711,o),
(99,385,cs),
(99,276,o),
(129,166,o),
(209,78,c),
(150,2,l),
(218,2,l),
(250,42,l),
(321,-5,o),
(394,-20,o),
(473,-20,cs)
);
},
{
closed = 1;
nodes = (
(271,156,l),
(221,218,o),
(200,295,o),
(200,369,cs),
(200,644,o),
(397,986,o),
(705,986,cs),
(762,986,o),
(824,976,o),
(876,941,c)
);
},
{
closed = 1;
nodes = (
(419,68,o),
(359,81,o),
(309,117,c),
(917,901,l),
(965,839,o),
(982,764,o),
(982,691,cs),
(982,410,o),
(789,68,o),
(476,68,cs)
);
}
);
width = 1183;
}
);
leftKerningGroup = a;
rightKerningGroup = oslash1;
unicode = 248;
},
{
glyphname = thorn;
layers = (
{
layerId = "70095191-B7C5-4384-884C-B6DE2D335D53";
shapes = (
{
closed = 1;
nodes = (
(190,-449,l),
(321,71,l),
(394,9,o),
(488,-20,o),
(585,-20,cs),
(933,-20,o),
(1185,354,o),
(1185,677,cs),
(1185,921,o),
(1059,1085,o),
(809,1085,cs),
(704,1085,o),
(615,1065,o),
(526,1012,c),
(646,1448,l),
(371,1448,l),
(-85,-449,l)
);
},
{
closed = 1;
nodes = (
(454,222,o),
(385,283,o),
(385,409,cs),
(385,607,o),
(523,839,o),
(740,839,cs),
(859,839,o),
(929,781,o),
(929,654,cs),
(929,456,o),
(790,222,o),
(573,222,cs)
);
}
);
width = 1225;
},
{
layerId = "22EA05E5-9529-48D9-B1F8-A3D05D6A9FB7";
shapes = (
{
closed = 1;
nodes = (
(121,-449,l),
(272,158,l),
(321,34,o),
(432,-20,o),
(574,-20,cs),
(925,-20,o),
(1128,399,o),
(1128,708,cs),
(1128,918,o),
(1032,1085,o),
(803,1085,cs),
(653,1085,o),
(533,1029,o),
(438,920,c),
(577,1448,l),
(412,1448,l),
(-44,-449,l)
);
},
{
closed = 1;
nodes = (
(382,117,o),
(315,220,o),
(315,370,cs),
(315,614,o),
(475,947,o),
(754,947,cs),
(910,947,o),
(975,841,o),
(975,696,cs),
(975,453,o),
(823,117,o),
(542,117,cs)
);
}
);
width = 1214;
},
{
layerId = "03B966DD-30AE-4CDF-A24A-6C10C63FDFF4";
shapes = (
{
closed = 1;
nodes = (
(79,-451,l),
(242,213,l),
(285,40,o),
(413,-20,o),
(568,-20,cs),
(910,-20,o),
(1094,441,o),
(1094,727,cs),
(1094,920,o),
(1019,1085,o),
(801,1085,cs),
(623,1085,o),
(487,1010,o),
(385,861,c),
(535,1448,l),
(439,1448,l),
(-17,-451,l)
);
},
{
closed = 1;
nodes = (
(340,49,o),
(273,178,o),
(273,347,cs),
(273,616,o),
(450,1015,o),
(765,1015,cs),
(944,1015,o),
(1009,881,o),
(1009,721,cs),
(1009,453,o),
(844,49,o),
(525,49,cs)
);
}
);
width = 1210;
}
);
unicode = 254;
},
{
glyphname = dcaron;
layers = (
{
layerId = "70095191-B7C5-4384-884C-B6DE2D335D53";
shapes = (
{
closed = 1;
nodes = (
(1492,1002,l),
(1858,1447,l),
(1566,1447,l),
(1324,1002,l)
);
},
{
closed = 1;
nodes = (
(526,-20,o),
(635,11,o),
(718,93,c),
(709,0,l),
(977,0,l),
(1324,1448,l),
(1028,1448,l),
(897,964,l),
(838,1050,o),
(728,1085,o),
(626,1085,cs),
(272,1085,o),
(39,714,o),
(39,386,cs),
(39,149,o),
(164,-20,o),
(408,-20,cs)
);
},
{
closed = 1;
nodes = (
(393,239,o),
(323,293,o),
(323,413,cs),
(323,607,o),
(452,833,o),
(666,833,cs),
(782,833,o),
(845,777,o),
(845,655,cs),
(845,456,o),
(724,239,o),
(504,239,cs)
);
}
);
width = 1512;
},
{
layerId = "22EA05E5-9529-48D9-B1F8-A3D05D6A9FB7";
shapes = (
{
closed = 1;
nodes = (
(1385,1075,l),
(1707,1447,l),
(1473,1447,l),
(1263,1075,l)
);
},
{
closed = 1;
nodes = (
(549,-20,o),
(663,29,o),
(758,131,c),
(732,0,l),
(896,0,l),
(1242,1448,l),
(1071,1448,l),
(935,920,l),
(875,1039,o),
(763,1085,o),
(634,1085,cs),
(284,1085,o),
(74,673,o),
(74,365,cs),
(74,151,o),
(173,-20,o),
(406,-20,cs)
);
},
{
closed = 1;
nodes = (
(306,129,o),
(241,229,o),
(241,372,cs),
(241,612,o),
(391,935,o),
(666,935,cs),
(820,935,o),
(883,834,o),
(883,694,cs),
(883,454,o),
(735,129,o),
(458,129,cs)
);
}
);
width = 1350;
},
{
layerId = "03B966DD-30AE-4CDF-A24A-6C10C63FDFF4";
shapes = (
{
closed = 1;
nodes = (
(1343,1121,l),
(1637,1447,l),
(1439,1447,l),
(1248,1121,l)
);
},
{
closed = 1;
nodes = (
(583,-20,o),
(703,35,o),
(807,154,c),
(772,0,l),
(871,0,l),
(1219,1448,l),
(1126,1448,l),
(975,890,l),
(917,1028,o),
(805,1085,o),
(661,1085,cs),
(318,1085,o),
(118,648,o),
(118,350,cs),
(118,151,o),
(205,-20,o),
(429,-20,cs)
);
},
{
closed = 1;
nodes = (
(276,61,o),
(211,187,o),
(211,347,cs),
(211,614,o),
(376,998,o),
(689,998,cs),
(862,998,o),
(929,880,o),
(929,717,cs),
(929,452,o),
(767,61,o),
(454,61,cs)
);
}
);
width = 1297;
}
);
leftKerningGroup = a;
unicode = 271;
},
